<?xml version="1.0" encoding="utf-8"?>
<!-- Generator: Adobe Illustrator 21.0.2, SVG Export Plug-In . SVG Version: 6.00 Build 0)  -->
<svg version="1.1" id="Слой_1" xmlns="http://www.w3.org/2000/svg" xmlns:xlink="http://www.w3.org/1999/xlink" x="0px" y="0px"
	 viewBox="0 0 1327 292" style="enable-background:new 0 0 1327 292;" xml:space="preserve">
<style type="text/css">
	.st0{fill:#4D13D1;}
	.st1{fill:#FFFFFF;}
	.st2{fill:#484848;}
</style>
<path class="st0" d="M369.5,153.1c0,64.1-175.4,116.1-233.5,116.1s-105-52-105-116.1S78,37,136.1,37S369.5,89,369.5,153.1z"/>
<circle class="st1" cx="121.8" cy="151.8" r="38.6"/>
<circle class="st1" cx="211.6" cy="155.3" r="28.8"/>
<circle class="st1" cx="284.4" cy="156.3" r="19.5"/>
<g>
	<path class="st2" d="M430.8,185.8c-7.3-8-10.9-18.9-10.9-32.6s3.6-24.6,10.9-32.5s17.1-11.9,29.4-11.9c9.9,0,18.4,2.9,25.3,8.5
		c6.9,5.7,10.9,13.1,12,22.2H480c-1.1-4.7-3.5-8.5-7.1-11.2c-3.6-2.8-7.8-4.2-12.8-4.2c-6.7,0-12.1,2.6-16.1,7.8
		c-4,5.3-6.1,12.5-6.1,21.4c0,9.2,2,16.3,6,21.5c4,5.3,9.4,7.9,16.2,7.9c5,0,9.3-1.3,12.8-3.9c3.4-2.5,5.8-6.2,7.1-10.7h17.5
		c-1.4,9.2-5.4,16.3-12.1,21.7c-6.7,5.4-15.2,8-25.3,8C447.9,197.7,438.1,193.7,430.8,185.8z"/>
	<path class="st2" d="M551.2,143.9h-25.5v52h-17.2v-65.1h59.9v65.1h-17.2V143.9L551.2,143.9z"/>
	<path class="st2" d="M638.5,138.9c4.7,6,7.2,14.1,7.2,24.4s-2.3,18.4-7.1,24.4c-4.7,6-11.2,8.9-19.4,8.9c-9.7,0-16.4-3.9-20.2-11.7
		h-0.3v31.4h-17.3v-85.5h17V142h0.3c1.8-3.6,4.4-6.5,7.9-8.7c3.6-2.1,7.6-3.2,12.2-3.2C627.2,130,633.7,132.9,638.5,138.9z
		 M624,177.4c2.6-3.5,4-8.2,4-14.1c0-5.8-1.3-10.5-4-14.1c-2.8-3.5-6.3-5.3-10.8-5.3c-4.4,0-7.9,1.8-10.6,5.3c-2.6,3.5-4,8.3-4,14.1
		c0,5.8,1.3,10.5,4,14.1c2.6,3.5,6.2,5.3,10.6,5.3C617.7,182.7,621.3,180.9,624,177.4z"/>
	<path class="st2" d="M662.4,188c-5.7-6-8.6-14.2-8.6-24.7c0-10.4,2.9-18.5,8.7-24.6c5.8-6,13.6-8.9,23.4-8.9s17.6,3,23.4,8.9
		c5.8,6.1,8.7,14.2,8.7,24.6c0,10.5-2.9,18.7-8.6,24.8c-5.7,6-13.6,8.9-23.5,8.9C675.9,196.9,668.2,193.9,662.4,188z M696.6,178.4
		c2.5-3.6,3.9-8.6,3.9-15.1c0-6.4-1.3-11.4-3.9-15c-2.5-3.6-6.1-5.4-10.6-5.4s-8.2,1.8-10.7,5.4c-2.6,3.6-3.9,8.6-3.9,15
		c0,6.5,1.3,11.5,3.9,15.1c2.5,3.5,6.2,5.3,10.7,5.3C690.5,183.7,694,181.9,696.6,178.4z"/>
	<path class="st2" d="M770.9,152.9c-0.7-3-2.1-5.3-4.3-6.9c-2.3-1.8-5.1-2.6-8.4-2.6c-4.4,0-7.9,1.8-10.6,5.3
		c-2.6,3.6-3.9,8.5-3.9,14.7c0,6.3,1.3,11.2,3.9,14.8c2.6,3.5,6.2,5.3,10.6,5.3c6.9,0,11.1-3.2,12.8-9.5h16.1
		c-0.9,7.1-3.9,12.7-9,16.9c-5.2,4.2-11.9,6.3-20.1,6.3c-9.7,0-17.4-3-23.2-8.9c-5.7-6.1-8.6-14.3-8.6-24.7
		c0-10.3,2.9-18.4,8.6-24.5c5.7-6.1,13.3-9.2,23-9.2c8.2,0,14.9,2.2,20.2,6.5c5.2,4.2,8.2,9.8,8.9,16.7L770.9,152.9L770.9,152.9z"/>
	<path class="st2" d="M797.2,195.8v-65.1h16.9V172h0.4l26.9-41.1h16.9V196h-16.8v-41.7h-0.4L814.2,196h-17L797.2,195.8L797.2,195.8z
		"/>
	<path class="st0" d="M941,120.9c7.4,7.9,11.1,18.6,11.1,32.3c0,13.6-3.7,24.3-11.1,32.2c-7.4,7.9-17.4,11.9-30,11.9
		c-12.7,0-22.6-4-30-11.9s-11.1-18.6-11.1-32.2s3.7-24.4,11.1-32.3c7.4-7.9,17.4-11.9,30-11.9C923.7,109.1,933.7,113.1,941,120.9z
		 M894.4,131.9c-4.2,5.3-6.3,12.3-6.3,21.3c0,8.9,2.1,16,6.2,21.3c4.2,5.3,9.7,7.8,16.8,7.8c6.9,0,12.6-2.6,16.7-7.8
		c4.2-5.3,6.2-12.3,6.2-21.3c0-8.9-2.1-16.1-6.2-21.3c-4.2-5.3-9.7-7.9-16.7-7.9S898.6,126.7,894.4,131.9z"/>
	<path class="st0" d="M1007.1,169h-26v26.8h-17.2v-65.1h17.2v25.1h26v-25.1h17.2v65.1h-17.2V169z"/>
	<path class="st0" d="M1060.4,164.8c-0.6,10.4-2.4,18.1-5.5,23.2c-3.6,5.8-9.2,8.7-16.8,8.7c-2.3,0-4.1-0.3-5.5-0.9v-14.6
		c1.2,0.3,2.5,0.4,3.7,0.4c2.9,0,5.1-1.7,6.5-5.1c1.2-2.8,2-7.1,2.2-12.8l1.9-33h49.1v65.1h-17.2v-52h-17.1L1060.4,164.8z"/>
	<path class="st0" d="M1112.6,191.3c-4.2-3.6-6.3-8.4-6.3-14.1c0-5.8,2.2-10.5,6.6-13.8c4.3-3.3,10.7-5.2,19.1-5.6l16.2-1v-4.3
		c0-3.1-1-5.5-3-7.2s-4.9-2.5-8.4-2.5c-3.1,0-5.6,0.8-7.7,2.2c-2.1,1.4-3.3,3.4-3.7,5.8h-15.8c0.2-6.2,2.9-11.2,8-15.1
		c5.2-3.9,11.8-5.8,20-5.8c8.4,0,15,2,20.1,6s7.6,9.2,7.6,15.7v44.7h-16.7v-10h-0.3c-1.8,3.3-4.4,6-8.2,7.9
		c-3.6,1.9-7.5,2.9-11.8,2.9C1121.9,196.6,1116.7,194.8,1112.6,191.3z M1144,180.7c2.8-2.3,4.2-5.2,4.2-8.7v-4.7l-13.7,1
		c-7.4,0.4-11,3.2-11,8c0,2.4,1,4.3,2.9,5.6c1.9,1.4,4.3,2.1,7.5,2.1C1138,184,1141.3,182.9,1144,180.7z"/>
	<path class="st0" d="M1176.9,195.8v-65.1h16.9V172h0.4l26.9-41.1h16.9V196h-16.9v-41.7h-0.4l-26.9,41.7h-16.9V195.8z M1197.3,102.1
		c0.1,3.2,1,5.8,2.9,7.8c1.9,2.1,4.4,3.1,7.5,3.1s5.5-1,7.4-3.1c1.8-2,2.8-4.6,2.9-7.8h10.6c0,5.8-1.9,10.5-5.7,14.1
		c-3.9,3.6-8.8,5.4-15.1,5.4c-6.3,0-11.2-1.8-15.1-5.4c-3.9-3.5-5.7-8.3-5.7-14.1H1197.3z"/>
	<path class="st0" d="M1294.2,169h-26v26.8H1251v-65.1h17.2v25.1h26v-25.1h17.2v65.1h-17.2V169z"/>
</g>
</svg>
