<?xml version="1.0" encoding="utf-8"?>
<!-- Generator: Adobe Illustrator 21.0.2, SVG Export Plug-In . SVG Version: 6.00 Build 0)  -->
<svg version="1.1" id="Слой_1" xmlns="http://www.w3.org/2000/svg" xmlns:xlink="http://www.w3.org/1999/xlink" x="0px" y="0px"
	 viewBox="0 0 1000 600.1" style="enable-background:new 0 0 1000 600.1;" xml:space="preserve">
<style type="text/css">
	.st0{fill:#67809F;}
	.st1{fill:none;stroke:#6C7A89;stroke-width:2;stroke-miterlimit:10;}
	.st2{fill:none;stroke:#6C7A89;stroke-miterlimit:10;}
	.st3{fill:none;stroke:#FFFFFF;stroke-width:2;stroke-miterlimit:10;}
</style>
<path class="st0" d="M608.3,347.5l-1.4,50.4l-1,23.4l28,0.1c0,0,58.1,3.6,58.7,3.6c0.6,0,22.8,1.2,22.8,1.2v-15.4l2.3-50.7l0.8-13.9
	l-33.9,0.1l-47.7-3.1l-23.5,0.8l-5.1,0.5L608.3,347.5z"/>
<path class="st1" d="M541.1,171.5c0,0-6.7,0.3-11.1,1c-4.5,0.9-35.2,23.7-35.2,23.7l1.7,8.3c0,0-10.9,0.3-15,2.8s-21.5,5.4-21.5,5.4
	l-33,3.8c0,0-0.3,2.3,5.4,8.7c5.5,6.4,0.3,23.3,0.3,23.3l29.2,19.8l-2.8,2.8c0,0,20.9,15,36.7,20.7c2.9-11.3,26.6-15,26.6-15
	l23.3-23.4c0,0-2.9-17.5-6.8-29s1.3-48,2.9-54.4c1.7-6.4,29.7-15,29.7-15s0.3-4.9,0.1-5.2c-0.1-0.4-1.5-0.1-7.3,0.3
	c-5.8,0.4-4.6-14.1-4.6-14.7c0-0.6-4.3-1-4.7-0.9c-0.4,0.1,4.2-9.6,4.2-9.6s1-15.9-0.4-17.7c-1.8-4.6-1.2-7.4,5-9.6
	c6.1-2.3,20.1-0.5,27.9,1.5c7.9,2,9.1,8.7,9.1,8.7s2.9,16.6,3.3,20.5c0.4,3.8-0.9,5.2-0.9,5.2s0.5,14.1,1,16.9
	c1.2,0.4,3.8,4.6,3.8,4.6l32.4,3.2c0,0,50.5,65.6,58.2,75.9c7.7,10.2,3.8,24,3.8,24s-19.6,63.6-20.2,67.3c-0.8,3.7-1.8,4.6-3.7,4.5
	c0.1,1.2-2.7,4.2-2.7,4.2l7,0.1l-0.4,12.4l35.7-0.3l-3.8,79.3l-71.6-3.6l12.8,113c0,0-3.7,1-4.3,1c-0.6,0-0.4,2.3-0.4,5.2
	c1.2,2.7,0.1,12,0.1,12h-13.3c0,0-1-2.9-0.8-3.6s-7.8,4.9-7.8,4.9s-24-0.4-35.2,0.1c6.1-7,15.2-6.4,27.2-7.7c12-1.3,11-9.5,11-9.5
	l-0.3-2.8c0,0,0,0-1.9,0.4C629,533.8,611,420.8,611,420.8l-6,0.4l1.9-27.1c0,0-9.2-24.6-10.9-31c-3.8,5.4-17.3,60.1-17.3,60.1
	L574,535.6h-2.6c0,0,0.4,0.9-0.3,4.2c0.4,4.1-0.9,13-0.9,13l-13.7-0.3l0.4-3.6l-6.1,4.1c0,0-26.5,0.3-35.8-0.6
	c2.3-4.7,10.5-5.1,10.5-5.1s12.5,0,17.3-2.9c4.7-2.9,8.3-7,8.3-7c0.1,0,2.2-0.9,2.2-0.9v-1.5c0,0-4,1-4-2.6c0-3.6-1.5-92.5-1.5-92.5
	s1.3-110.8,9-128.3c-8.1-8.6-11.3-17.7-10.2-28.8c-8.3,1.9-10.1,4.6-10.1,4.6l-3.2-2c0,0-5.8,15.1-11.6,16.5
	c-5.9,1.4-21.1,3.2-21.1,3.2l1.8-4c0,0-47.1-19.8-49.4-23.9c-4.7,4.7-7,5.1-10.5,1.3c-2-0.1-1.9-0.9-1.9-0.9s9.1,35.4,10,40.6
	c0.9,5.1-6.3,107.2-8.8,130c-2.6,22.8-6.8,78-6.8,78l-4.1-0.5c0,0-3.3,16.8-2.4,19.8c0.9,3.1,8.4,14.7,8.4,14.7s9.6,11.4,3.3,9.5
	c-6.3-1.9-15-11.9-15-11.9l-3.6,0.4c0,0-2.4-7.8-0.5-11.3c0.4-5.1,0.9-19.6,0.8-21.7c0-0.1,0-0.3,0-0.3c-0.3,0.1-1.8-0.4-1.8-0.4
	l4-80l-9.9,83.2l-4.1-0.1l-0.9,16.6c0,0,1.3,15.1,7,20.3c5.8,5.2,7.7,10,2.4,8.3c-5.2-1.7-13.2-12-13.2-12l-1.2,1.7l-2.9-1.3
	c0,0-1.5-6.7,0.9-10c0.4-7.4,0.6-23.5,0.6-23.5h-2.7c0,0,0.3-61.7,3.2-78.9s-3.8-115.4-4.2-119.4c-2.6,0.6-2.6,0.6-2.6,0.6
	s-2.2-22,3.5-31.3c5.5-9.3,1.7-30.7-5.4-43.5c-7.9,0.6-33.3-1.5-35.6-26c3.2-15,9.3-19.4,9.3-19.4s-13-24.3-1-34.3
	c11.9-10,19.2-8.1,19.2-8.1s-5.1-30.1,14.5-31.3c19.6-1.3,24.7,4.9,26.2,13.4c1.5,8.6,6.4,29.2-3.2,35.8c-9.6,6.7-12.5,5.4-12.5,5.4
	l3.5,8.1c0,0,35.2-6,45.7-6.8c10.5-0.9,32.9-12.2,32.9-12.2l0.6,3.8c0,0,46.1-24.7,58-22"/>
<path class="st1" d="M542.3,168.3c0,0-5,1-4-1.2c1-2.2,7.4-2.4,7.4-2.4"/>
<path class="st1" d="M607,393.8c0,0,0.6-49.9,1.5-50.3s39-0.6,39-0.6v-12.2h1.9c0,0,1-4.6,4.9-6c3.8-1.4,9.2-2.3,9.2-2.3l-2.3-2.7
	l5.5-23.2c0,0-17.5,24.2-17.8,22.8s-8.3-15.4-8.3-15.4l0.4,39.5"/>
<path class="st1" d="M652.4,344.6c0.4,0,26.1,1.2,26.1,1.2s1.3-7.4,0.4-7.8c-0.9-0.4-5.9,0-5.5,0c0.4,0,3.5,2.9,2.8,4.7
	c-0.6,1.8-20.9-0.4-22.4-5.5c-1-0.4-2,0-2,0L652.4,344.6z"/>
<line class="st1" x1="649.5" y1="330.8" x2="653.7" y2="337.2"/>
<line class="st1" x1="664.6" y1="322.8" x2="679.4" y2="329.9"/>
<line class="st1" x1="674.9" y1="334.4" x2="672.6" y2="338.2"/>
<path class="st1" d="M640.5,304.2c0,0-4.5-37.4-16.9-51.4c-12.4-14.1-21.4-36.5-18.5-69.5c2.8-33,3.1-28.4,3.1-28.4"/>
<path class="st1" d="M674.8,267.4"/>
<path class="st1" d="M666.6,296.7l7.9-31.7l2.9-12l-9.6-12.2l-23-26c0,0,19.2,50.9,29.8,52.4"/>
<path class="st1" d="M629,157c0,0,1.3,21.1-4.5,26.2c-5.8,5.1-7.9,7.7-7.9,8.3c0,0.6,8.7,10.9,8.7,10.9s-4.9,44.4,0.9,54.6"/>
<path class="st1" d="M552.8,162.9c0,0-1.3,8.6-2.8,10.5c-1.5,1.9,6.1,5.5,6.1,5.5s-9.6,12.5-6.5,23.9c3.1,11.3,6.9,24.8,6.9,24.8
	s6.7,84.9,7.5,91.1c-9.6-4.9-7.4-7-7.4-7"/>
<line class="st1" x1="545.6" y1="253.4" x2="547.2" y2="284.3"/>
<path class="st1" d="M571.5,156.5c0,0-17,48.6-16,63.7"/>
<path class="st1" d="M604.5,150.3c0,0-21,6.1-33,4.9"/>
<path class="st1" d="M570.8,160.9c0,0,2.9,4.2,4.3,5.9c3.6-3.5,3.6-3.5,3.6-3.5s-12.4,104.4-7.5,114.2c-4.5,0.1-4.5,0.1-4.5,0.1
	l-0.1-1.4l-4.3-0.1v2.2l-1.3-0.3"/>
<path class="st1" d="M608.3,159.1l-20.7,8.7c0,0-4.7-5.1-4.1-3.8c0.6,1.3-7.7,109.4-4.7,113.5c9.2,0,12.2,0.4,12.2,0.4v-1.3l3.5,0.3
	c0,0-0.6,1.9,0,1.7s32-0.3,32-0.3s-1.9-1.5-1-1.3s4.5,0.3,4.5,0.3l0.6,2.2l4.5-0.4"/>
<path class="st1" d="M561.9,285.2h2v0.8h1.9l0.4-0.8l24.7-0.4l0.4,1.9l4-0.4l-0.5-1.3l30.7,0.6c0,0-0.4,1,0.1,1
	c0.5,0,3.8,0.1,3.8,0.1l-0.6-1.2l8.1-0.6"/>
<line class="st1" x1="563.1" y1="279" x2="562.6" y2="285.2"/>
<line class="st1" x1="566.7" y1="277.6" x2="567.1" y2="285.4"/>
<path class="st1" d="M570.9,276.9c0.5,0,9.3,0.8,9.3,0.8"/>
<line class="st1" x1="590.5" y1="278.2" x2="591.2" y2="284.2"/>
<line class="st1" x1="594" y1="279.1" x2="594.6" y2="285.2"/>
<line class="st1" x1="625.7" y1="278.7" x2="625.3" y2="285.9"/>
<line class="st1" x1="630" y1="285.4" x2="630" y2="279.3"/>
<path class="st1" d="M596.1,363c0.3-3.5-8.1-41.8-9.1-43.4c-1-1.5-21-34.4-21-34.4"/>
<line class="st1" x1="611.1" y1="420.6" x2="643.7" y2="421.6"/>
<path class="st1" d="M632.2,537.4c0.1,0.5,7.7,8.4,18.7,3.7"/>
<path class="st1" d="M632,534.6c0.6-0.4,19.2,1.2,19.2,1.2"/>
<path class="st1" d="M553,537.1c0.6-0.1,4.5,8.4,17.9,1.9"/>
<line class="st1" x1="553.5" y1="534.8" x2="571.7" y2="535.4"/>
<line class="st1" x1="522.6" y1="276.1" x2="532.2" y2="284.8"/>
<path class="st1" d="M559.9,109.7c0,0,20.7-3.2,20.1-2.8s-7.3,7.4-4.9,13.4c2.3,6,2.6,9.9,2.6,9.9l2.8-0.4c0,0,0.9-11.8,8.1-12.5
	c4.1,3.5,3.8,5.1,2.2,12.4c1.5,5.8,6.7,11.1,11.8,4.5"/>
<path class="st1" d="M402.5,551.2c0,0,9.5,14.3,14.3,15.1"/>
<path class="st1" d="M421.5,547c0.5,0.3,5.5,11.9,15.4,13.9"/>
<line class="st1" x1="402.3" y1="527.6" x2="410.5" y2="526.9"/>
<path class="st1" d="M422.8,524.3"/>
<path class="st1" d="M430.9,526.1"/>
<path class="st1" d="M421.9,524.7"/>
<path class="st1" d="M422.8,525"/>
<polyline class="st1" points="421.9,525 430.9,525.1 433.8,525.1 "/>
<path class="st1" d="M423.6,449.7c0,0,1.7-35.2,6.9-55c5.2-19.8,13.8-70.1,12-74.2"/>
<path class="st1" d="M399.4,329.2c0,0,29.2-14.6,43.1-9.3c1.4,0,0.6-2.9,1.5-2.8c0.9,0.1,6,2.9,6,2.9"/>
<path class="st1" d="M394.9,255c0,0-20.9-46.4,0.3-58c1.9-5.4,1-4.9,1.9-5.4c0.9-0.4,3.8-0.3,3.8-0.3s5.1-11.8,3.8-20.2
	c4.7-2.3,18.2-21.4,15.7-30.1c4.1,4.9,9,21.7,5.8,29.8c-7.4,4.1-17.7,10.5-15,18.3"/>
<path class="st1" d="M400.7,192.5c0,0,6.7,5.1,11.5-1.7"/>
<line class="st1" x1="415.1" y1="198.6" x2="426.3" y2="215.9"/>
<path class="st1" d="M406,193.6c0.6,0,4.2,4.5,4.2,4.5s9,41.2,22.4,50.3"/>
<path class="st1" d="M423.4,211.5c-1.3-0.3-10.9-3.6-10.9-3.6"/>
<path class="st1" d="M440.6,277.7c0,0-22.1-12.5-36.2-36.1c-14.1-23.4-11.5-22.4-11.5-22.4s-5.8-16.2,5.5-19.4
	c5.4,1.9,12.4,7.4,17.5,17"/>
<path class="st1" d="M458.8,271.5c-0.4,0.4-6.1,6.1-6.1,6.1"/>
<line class="st1" x1="431.4" y1="272.9" x2="443.5" y2="319.3"/>
<path class="st1" d="M495.3,292.5c0,0,22.5-0.6,27.9,1.9c5.4,2.6,4.2,2.3,4.2,2.3"/>
<line class="st1" x1="502.9" y1="300.6" x2="524.1" y2="300.2"/>
<path class="st1" d="M857.8,264.8c0,0-5.2,12.2-4.1,18.8c1.2,6.7,2.8,10.4,9.9,10.1c0.3,1.4-0.3,6-0.3,6l-2.4,0.3
	c0,0,0.1,5.8-13.6,10.7c-13.7,5-30.3,34.7-33.6,52.1s8.8,22.6,8.8,22.6l1.2-0.5c0,0,16.1,18.3,23,22.5c0,8.3,0.9,46.9,0.9,46.9
	l4.1,53.1l6.3,64.2c0,0-13.3,7-16.1,7.2c-2.8,0.1-5,3.1,0.6,3.2c5.6,0.1,15.6,0.1,15.6,0.1l3.3-2.4l0.3,2.2h7.8c0,0,2.2-6.4,1.9-6.7
	c0.5,0,1.4-0.1,1.4-0.1s3.1-72.1-0.6-82.3c-3.7-10.1,0.1-23.4,0.1-23.4l4.7-31.5l34.4,128.9l-4.9,0.3c0,0-1.4,1.3,2.4,5.1
	c3.8,3.8,9,8.2,15.9,6.5c2.7-1.8,2.4-5.1,1.8-7.9c-0.6-2.8-5-31.9-5-31.9l-7-38.1l-6.1-52.4l-2.6-25.1c0,0,12.3-15.4,11.1-25.3
	c0.6,0.1,1.3-0.3,1.3-0.3s-0.4-43.1-3.1-54.2c-2.8-11.1-5.4-29-16-33.3c-10.6-4.2-16.4-8.2-18.3-10.6c-1-1.3-1.8-0.4-1.8-0.4
	l-0.3-10.5c0,0,5,0.8,5.8-6.8s2.8-23.2,4.1-25.6c-2.4-2.8-25.2-16.5-27.8-7.4c-7.5,2-11.6,4.3-4,13c1.9,5.1,1.8,5.8,1.8,5.8
	s0.6,4.9,3.7,1.9c1.2-0.1,4.1,0.6-0.1,8.1c0.5,6.7-2.2,10.1,2.9,10s15.2,0.5,15.2,0.5"/>
<path class="st1" d="M847.1,403.6c-2.7-0.9-12.8-24.7-12.8-24.7s0.8-1.3,0.6-1.8c-0.1-0.5-4.1-4.7-2.8-7.8
	c1.3-3.1,11.4-20.9,11.6-21.4l2.7,59.7"/>
<line class="st1" x1="823.6" y1="385.1" x2="834.5" y2="378.9"/>
<line class="st1" x1="846.9" y1="400.4" x2="903" y2="403.2"/>
<polyline class="st1" points="903.4,313.9 903.4,402.5 905.6,424 "/>
<line class="st1" x1="916.6" y1="399" x2="903.7" y2="400.2"/>
<line class="st1" x1="871.1" y1="575.4" x2="857.5" y2="571.8"/>
<path class="st1" d="M911.5,567.3c0,0-0.3,6.8,4.6,7.4c4.9,0.6,9.6,0.1,10.6-2.2"/>
<path class="st1" d="M863.4,299.2c0.4,0.1,15.9,0.4,15.9,0.4"/>
<path class="st1" d="M229.3,373.6L210.6,352c0,0-1.9,0.6-0.1-1.7c1.8-2.3,9.1-24.4,11-31.3c-1.8,7.8,11.9,36.3,12.9,44.8
	c-8.3,6.4-3.7,33.9-4,44.8c-0.3,10.9-2.3,15.7-6.9,35.6c-8.2,14.7-10.1,59-10.4,66.8c-0.3,7.8,1.8,8.1,8.6,9.1c6.8,1,6-3.1,2.7-5
	s-3.8-5.5-3.8-5.5s27.6-70.4,30.1-75.9c2.3,2.7,2.4,10.5,2.4,10.5s-1.7,11.8-3.1,22.8c-1.5,11,10.4,39.3,13.7,46.7
	c-1,7.5,3.3,4.9,3.3,4.9l0.4-0.8l1.5,1c0,0,5.2-0.1,8.7-0.1c3.5,0,6.1-0.3,4.6-2.3c-5.6-0.1-13.2-6.1-13.2-6.1l-1-144.9
	c0,0,7.3-30.3,6.8-36.8c10.2,10.9,14.1,9.6,17.7,5.8c3.8-1.9,24.9-7.7,28.5-22c3.6-14.3,3.5-18.2,3.5-18.2s9-5.5,10.7-6.3
	c1.8-0.8,1.3-2,0-2.3c2.7-1.7,5.9-5.2,2.4-4.6c-3.5,0.6-3.6,0.9-3.6,0.9s3.7-6.4-0.3-3.7c-4,2.7-8.1,6-8.1,6s-2.8-0.5-0.8-2.9
	s1.9-5.9-0.9-2.6c-2.8,3.3-5.2,9.5-4.2,13.4c1,4-4.7,19.8-19.6,19.6c-1.2-1.7-5.6-3.3-9.9-2.9c-6.1-2.7-19.1-14.3-20.9-19.1
	s-17-3.1-17-3.1s8.7-6.3,5-12.3l-2.7-2.9c0,0,1.9-4.9-1.7-5.5c-0.3-3.3-0.1-4.2-0.1-4.2s4.9-5.2-1-8.4c-4.2-3.6-7-8.1-13.9,0.8
	c-9.9,3.8-7.8,7.4-5.2,12.7c-0.5,3.2,1.2,2.4,1.2,2.4s-0.1,6,1.8,9c1.7,2.9,1.7,5.5,3.3,6.9c0.1,1.5,0.1,2.3,0.1,2.3
	s-27.5-1.9-33,11.9c-5.5,13.8-13.8,52.2-11.6,55.1c2.3,0,2.3,0,2.3,0s19.3,20.6,30.1,21.7c-4.5,4.2-5.1,3.6-5.5,4.9
	c-1.8,1.4,0,5.6,2.7,6.4c2.7,0.8,4.5,0.8,4.5,0.8"/>
<path class="st1" d="M299.2,312c0,0-16.2,16.9-7.4,20.5"/>
<line class="st1" x1="196" y1="353.2" x2="209.8" y2="351.9"/>
<line class="st1" x1="234.4" y1="363.9" x2="267.9" y2="365.1"/>
<line class="st1" x1="268" y1="511.1" x2="264.2" y2="512"/>
<line class="st1" x1="219.7" y1="510.9" x2="213.5" y2="512.2"/>
<path class="st1" d="M251,430.9"/>
<line class="st1" x1="250.7" y1="433.7" x2="267.2" y2="365.7"/>
<path class="st1" d="M239.2,287.3c0,0,13.8,15.4,13.6,0"/>
<path class="st1" d="M250.2,293.8c5.8,6.1,3.1,38.9,5.1,54.2c2,15.4,6.8,1.7,6.8,1.7s2.3-46.7-9.1-57.1"/>
<path class="st1" d="M235.7,275.6c0.4,0,2.9,2.3,6.1,0.6s8.3-6.9,12.7-5.2"/>
<path class="st2" d="M251.9,279h-0.4l-3.6,0.5c0,0-1.2-2.3-0.5-2.7c0.6-0.4,5.9-2,5.9-1.8c0,0.3,0.4,2,0.4,2L251.9,279z"/>
<path class="st1" d="M239.5,284.8c0,0,3.6,4,9.7,2.9c6.1-1,4-0.8,4-0.8"/>
<path class="st1" d="M252.4,254.3c-0.8,0.4-7.4,8.1-15.4,5.2c-3.7,3.2-2.8,8.7-2.8,8.7"/>
<path class="st0" d="M328.4,191.3h-75.5c-5,0-9-4-9-9v-49.3c0-5,4-9,9-9h75.5c5,0,9,4,9,9v49.3C337.4,187.4,333.4,191.3,328.4,191.3
	z"/>
<path class="st1" d="M427.9,156.8c0,0,35.4-23.9,19.6-78.4c29-1.3,67.8-2.6,67.8-2.6s9.9-4.2,9-13.7c-0.9-9.3-8.6-12.4-8.6-12.4
	L427.8,51c0,0-15-23-49.5-20.9s-81.5,27.2-70.7,92.1"/>
<path class="st1" d="M366.8,177.3c0,0-24.7-1.9-30.1-12.8"/>
<path class="st1" d="M337.4,44.6c0,0,42.2,59.2,42.2,58.2s-1-72.7-1-72.7"/>
<line class="st1" x1="449" y1="125.8" x2="379.6" y2="102.8"/>
<path class="st1" d="M427.9,51c0,0-21.7-2.2-20.5,11.9c1.3,14.1,15,14.1,15,14.1l25.2,1.3"/>
<path class="st1" d="M419.5,65.6c2.2-0.9,58.5-1.3,58.5-1.3"/>
<circle class="st1" cx="506" cy="62.8" r="5.5"/>
<line class="st1" x1="514.3" y1="70.2" x2="510.1" y2="66.6"/>
<circle class="st1" cx="786.6" cy="145.7" r="74.6"/>
<circle class="st1" cx="785.7" cy="146.2" r="53.7"/>
<path class="st1" d="M763.1,48.9"/>
<path class="st0" d="M779,57.9l1.3,98.5l95.6,11.9C875.7,168.3,894.1,62.1,779,57.9z"/>
<path class="st0" d="M702.7,125.1H639c-3.5,0-6.3-2.8-6.3-6.3V69.9c0-3.5,2.8-6.3,6.3-6.3h63.7c3.5,0,6.3,2.8,6.3,6.3v48.9
	C709,122.3,706.2,125.1,702.7,125.1z"/>
<path class="st0" d="M619.2,116.2c0.5-0.4,14.2-13.7,14.2-13.7l1.5,13.7H619.2z"/>
<path class="st0" d="M169.5,277.9H73.6c-4.7,0-8.6-3.8-8.6-8.6v-63.1c0-4.7,3.8-8.6,8.6-8.6h95.9c4.7,0,8.6,3.8,8.6,8.6v63.1
	C178.1,274.1,174.2,277.9,169.5,277.9z"/>
<path class="st0" d="M202.9,257c-1.2-0.8-63.7-43.4-63.7-43.4l0.1,20.1l3.3,11.4L202.9,257z"/>
<polyline class="st3" points="245.5,128.3 289.4,159.3 336.3,129 "/>
<line class="st3" x1="82.1" y1="222.7" x2="160.2" y2="222.7"/>
<line class="st3" x1="82.1" y1="235.5" x2="160.2" y2="236.7"/>
<line class="st3" x1="82.1" y1="249.5" x2="160.2" y2="250.8"/>
<line class="st3" x1="643.7" y1="81.3" x2="697.1" y2="81.3"/>
<line class="st3" x1="643.7" y1="94.1" x2="697.1" y2="95.4"/>
<line class="st3" x1="643.7" y1="108.2" x2="697.1" y2="109.5"/>
<rect x="655.7" y="374" transform="matrix(0.9991 4.200494e-02 -4.200494e-02 0.9991 16.4624 -27.4841)" class="st3" width="13.2" height="8"/>
<path class="st3" d="M607.3,373.5c1,0.5,43.7,7.2,47.8,5.3"/>
<path class="st3" d="M669.2,379.2c0.5,0,39.2,4.5,47.2,2"/>
</svg>
