<?xml version="1.0" encoding="utf-8"?>
<!-- Generator: Adobe Illustrator 21.0.2, SVG Export Plug-In . SVG Version: 6.00 Build 0)  -->
<svg version="1.1" id="Слой_1" xmlns="http://www.w3.org/2000/svg" xmlns:xlink="http://www.w3.org/1999/xlink" x="0px" y="0px"
	 viewBox="0 0 1000 600.1" style="enable-background:new 0 0 1000 600.1;" xml:space="preserve">
<style type="text/css">
	.st0{fill:#C0392B;}
	.st1{fill:none;stroke:#6C7A89;stroke-width:2;stroke-miterlimit:10;}
	.st2{fill:none;stroke:#6C7A89;stroke-miterlimit:10;}
</style>
<path class="st0" d="M354.1,301.9c-7.9-7.3-2.8-25.1-2.8-25.1s-1.6-2.3-1-10.2c7.7-5.5,1.1-11.6-0.4-18.6
	c-1.5-7.1,5.8-16.9,5.8-16.9L325,87.5c0,0-63.7-0.4-64.9,0c-1.2,0.4-49.9,229.8-49.9,229.8l54.5,1l6.7-43.2l42.7-0.6l5.1,44.2h26.4
	c0,0-15-9.5-15.8-15.5C328.8,297.2,338.5,299.2,354.1,301.9z M277.4,231.5l15.6-98.9l14.6,100.4L277.4,231.5z"/>
<polygon class="st0" points="357.1,511.4 344,513.9 345,502.3 345.2,490.2 347.5,471.2 351.7,459.1 359,450.9 366.6,449.9 
	374.5,454.4 381.8,468.4 382.8,476.3 368.3,480.1 372.7,503.7 374.9,508.5 "/>
<path class="st0" d="M435.6,563.1l-1.6,3.2l4.9,1.3c0,0,21.3-2.4,22-2.6s3.8-1.8,3.8-1.8l-2.6-5.2l-10.6,0.7l-10.7,2.2l-5.2,0.5
	L435.6,563.1z"/>
<path class="st0" d="M512.1,527.4l-4,15.7l-1.5,7.7l-2.4,2.1l-3.4-1.6c0,0,1.6-5.4,1.6-5.7s0.1-6.8,0.4-7.3
	c0.2-0.5,2.9-10.7,2.9-10.7l4.6-2.6l2.8,1.1L512.1,527.4z"/>
<path class="st0" d="M803.2,390.2l-8.4,13.5l2.2,13.9l2.3,12.4l7.7-3.3l3.4-5.2l-5.1-25.1l2.8-4c0,0,3.5-1.6,4-1.6
	c0.5,0.1,4.6,1.8,4.6,1.8v-3.2l-3.8-11.7l-7.3,8.3L803.2,390.2z"/>
<path class="st0" d="M802.2,446.4l-7.2,9.9l-11-8.5l4.4-8.9c0,0,12.5-1.5,12.5-1.2C801,437.9,802.2,446.4,802.2,446.4z"/>
<polygon class="st0" points="797.1,422.9 792.6,431.5 798.7,430.1 "/>
<path class="st0" d="M801.4,438.6l2.7,18.6l0.6,7.7c0,0,9-1.9,9.9-2.2c0.9-0.4,15.1-10.1,15.1-10.1l3.8-4.7l1-4l-6.8-9.7l-4.9-27
	l-0.1-11.1l-3.7-2.3l1.1,14.5c0,0,0.2,16.1,0.4,16.3c0.1,0.4,0.2,8.8,0.2,8.8s-4,2.6-4.5,2.7C815.6,435.9,801.4,438.6,801.4,438.6z"
	/>
<path class="st1" d="M183.1,317.5c27.4-0.6,137,0.6,137,0.6s10.6,0.6,11,0.5c0.4-0.1,4.3-1.7,8.4-0.6c5,1,12.7,0.6,12.7,0.6
	s-17.9-4.4-20.4-8.4s-6.1-13.3,6.7-11.4c12.8,1.8,17.8,3.5,17.8,3.5s-6.5-5.6-6.2-12.5c0.2-6.9,0.5-9.6,1.6-12.9
	c-1.5-2.1-3.7-9,2.2-14.4c0,0,1.3-2.9-2.2-7.5c-1.3-5.7-3.7-19.4,4.3-24c0.1-0.1,0.2-0.1,0.4-0.2c0-3.8,0.7-173.2,0.7-173.2H714
	v114.4h-21.3V75.8H377.5v143.6l-0.5,3.4"/>
<path class="st1" d="M177,400.6"/>
<path class="st1" d="M156.9,489.5"/>
<path class="st1" d="M652.5,544.1l-118.7-0.2l29.8,17L527.2,581l-301.2-1.5c0,0-7.9-1.6-8.3-9.1c-8.5,0.4-66.3-1.2-66.3-1.2"/>
<path class="st1" d="M658,172.1v387h120.5l1.7-5l-1,0.2c0,0,3.7-39.8,8.5-44.3c2.1-23.1,2.2-24.8,2.2-24.8s-20.7,11-41.1,7.7
	c0.4-26.8,1-101.4,1-101.4s33.2-4.6,46.2,8.5c7.7-10.3,7.1-11.1,7.1-11.1s0.4-12.2-1.6-13.6c-5.2-0.2-12.2,0.6-9.5-12.2
	c2.4-7.3,2.4-10.7,2.4-10.7s2.2-9.1,13.1-7.1c3.4-2.1,11.3-13.6,17-5.1c5.1,7.7,8.5,16.4,0,28.8c5.8,6.9,17.4,9.5,15.8,22.5
	s-14,27.6-15.8,7.1c-2.2-5.2-2.4-3.7-2.4-3.7s-0.6,36.1,11.6,49c-0.6,4.5-1.1,3.7-1.1,3.7s9.1,31.2,5.6,46.2
	c5.2,12.5,16.2,45.5,16.4,49.8c6.8-3.4,45.8-27.6,51-99.4c5.2-71.8-52.3-90.9-52.3-90.9s49-35.3,41.4-92.5
	c-7.7-57.2-44.2-86.8-95.8-87.3C747.7,173.3,658,172.1,658,172.1z"/>
<line class="st1" x1="651.5" y1="543.9" x2="657.7" y2="544.1"/>
<path class="st1" d="M854.9,543.8"/>
<path class="st1" d="M777.8,559.5c0,0-4.6,5.2-11.3,6.7s-6.1,5.2-6.1,5.2l18.4-0.1c0,0,4.9-3.7,5.8-4.3c-1.1,3.5-0.1,4.4-0.1,4.4
	l1.8-0.4c0,0,3.7-5.8,1.2-9c-2.4-3.2-1-7.9-1-7.9l1.2-1l27.9-68c0,0,30.5,65,32.7,66.7s4,10.3-2.8,13.1c-6.8,2.8-9,2.3-10.5,5.6
	c5.5,0.5,15.8,0.7,15.8,0.7l6.5-8.6c0,0-0.1-1.3,1.8,1.6c1,2.3,2.8,1.1,2.8,1.1s-0.1-7.9-4-10.2"/>
<line class="st1" x1="780.2" y1="554.1" x2="786.5" y2="554.1"/>
<path class="st1" d="M770.1,565.2c0,0,7.7,4.3,15.2-5.5"/>
<path class="st1" d="M849.1,552.4"/>
<path class="st1" d="M789.2,486.4c0,0,2.4-22,7.1-29.7c-10.3-7.4-11.4-9.2-11.4-9.2l4.7-8.5l-5.6,0.7l-3.7,4.3l-4.1-3.8
	c0,0-4.3,1.7-10.7-8.4c-4-3-8.6-7.1-8.6-7.1s4.1-4.3,6.7-7.9c2.6-3.7,4.4-6,4.4-6l22.5,18c0,0-3.5,4-3,3.8c0.5-0.2,3,0,5.2-0.7
	c2.9-7.3,5.6-9.7,4-16.8c-1.6-7.1-2.9-10.5-0.4-15.2"/>
<path class="st1" d="M833,449.1c0,0-20.1,18.6-28.4,15.1c0-9.1-4.1-26.2-4.1-26.2"/>
<path class="st1" d="M795,455.5c0.6-0.6,6.5-10.2,6.5-10.2"/>
<path class="st1" d="M792.5,431.9c0,0,7.3-2.3,12.7-3.8c5.4-1.5,4.7-6.5,4.7-6.5s-3-18.9-4.1-26.3c2.6-7.4,9.7-3.7,12.3-2.6
	c2.6,1.1,2.3,29.6,2.2,37c-0.1,7.4-4.4,4.6-6.7,6.1c-2.3,1.5-24.1,3-24.1,3"/>
<line class="st1" x1="797.7" y1="421.3" x2="799" y2="430.2"/>
<path class="st1" d="M765.8,431.9c0,0,8.4,2.2,10,3.5c4.6-1.2,12.3-2.8,12.3-2.8"/>
<line class="st1" x1="776" y1="440.2" x2="784.3" y2="439.3"/>
<path class="st1" d="M802.8,388.5c0.4-0.2,10.1-11.3,10.1-11.3s0.4,13.6,9.5,18"/>
<path class="st1" d="M813.3,348.7c0.4-0.2,4-3.4,5,0.4c1,3.8,3.2,18.7-5.1,26.2"/>
<path class="st1" d="M811.5,377.8l-2.8-6.2l2.3-3.9c0,0,10.6-10.7,3.2-18.6"/>
<path class="st1" d="M795.3,353.3c0,0,3.8,9.1,10,5.6c2.2-1.3,4.3-0.2,2.1,3.2c1.1,2.9,3.2,6.9,3.2,6.9"/>
<path class="st1" d="M801.8,375.7c1-0.2,6.1-1.9,7.1-3.5"/>
<line class="st1" x1="808.8" y1="344.6" x2="813.8" y2="347.8"/>
<path class="st1" d="M786.4,560.6c0.9-0.4,42.2,0.2,60-10.7"/>
<path class="st1" d="M750.2,235.7c0,0-2.4,88.6-1,87.6c1.5-1,46.6,10.7,56.6-36.3C815.8,240.1,767.5,229.6,750.2,235.7z"/>
<path class="st1" d="M723.7,173c0,0,0-125.7-1.6-137.3c-1.6-11.6-15-11.6-15-11.6l-158.7-0.9c0,0-171.6,0.6-186.8,1
	s-17,12.2-17,12.2v143.6l10.7,50.5c0,0,12.5-10,21.4-8.9"/>
<path class="st1" d="M547.4,45.5h-28.6c-2.6,0-4.6-2.1-4.6-4.6l0,0c0-2.6,2.1-4.6,4.6-4.6h28.6c2.6,0,4.6,2.1,4.6,4.6l0,0
	C551.9,43.4,549.8,45.5,547.4,45.5z"/>
<path class="st1" d="M854.9,543.8c0,0,4.7,8.6,2.7,11.4c-0.5,1.9-1.1,7.1-11.2,10.1"/>
<path class="st1" d="M847.1,549.5"/>
<path class="st1" d="M850.2,555.2c0,0,2.6,1.8,7.1-2.3"/>
<path class="st1" d="M533,544.1l-5.5-4l-18.3-0.4l3.4-13.9c0,0-8.9-4.4-10.1,14c-0.1,3.5-2.8,3.5-4.3,4c-0.5-1.3-18.1-5-18.1-5
	l-36.9-10.2c0,0,1-21.9-2.8-26.9c-0.9-4.6-2.3-5.8-2.3-5.8l2.8-0.2l13.8-35.1l-1.9-1.1l-13.1,32.1l-6.2-0.1c0,0-0.7-9.2-4.7-9.9
	c-4-0.6-8.3-2.8-13.5,1.3c-5.2,4.1-27.3,10.1-27.3,10.1s-4.7,2.1-4.4-3.2c0.4-5.2-0.9-31.5-11.3-37.6c-2.1-1.1-1.7-1-1.7-1l1.8-4.3
	c0,0,9,2.2,10-6.7c1-8.9,0.6-7.4,0.6-7.4s10.7,1,5.1-6.9c-4-1.1-3.7-0.4-3.7-0.4s-0.2-10.5-8.3-6.1c0,0-8.5-8.6-13.4,0.4
	c-4.9,8.9-33.7,44.1-27.6,52.6c7.5,7.5,11.9-1,12.8-4.5c-2.8,11.8-3.3,25.2-3.3,25.2l-187.9-3.8"/>
<path class="st1" d="M370.3,451.3c0,0-5.8-2.7-10-0.1c-4.1,2.6-10.1,9-12.5,17.3"/>
<path class="st1" d="M382,433.6c0,0-4.6,0.1-7.8-3.4c-3.3-3.4-5,1-5.2,3c-3.4,0.5-4.7,2.6-2.8,5.5c-0.7,2.3-4.7,12-4.7,12"/>
<path class="st1" d="M153.8,563.4"/>
<path class="st1" d="M345.4,498c-0.6,0.2-8.3,32.9,20.4,42.4c-22.5-1-138.5-0.4-138.5-0.4s-9.1,0.9-9.4,8.9c-0.2,8.2,0,15.6,0,15.6"
	/>
<path class="st1" d="M155,495.8"/>
<path class="st1" d="M365,540.8c0,0,9.2,2.2,13.9-0.1c9.2,3.7,33,9,52.8,5.5c2.8,9.6,1.9,10.1,3.5,10.1c1.6,0,1.3,4.9,1.3,4.9
	s-4.6,6.3,1,6.3c7.3-0.9,26.9-3.3,26.9-3.3s0.1-7.2-6.8-6c-6.9,1.2-14.4,2.2-14.4,2.2l-0.9-4.7c0,0,1.9-3.8,1.6-8
	c6.1,1.9,49.5,5.7,51.8,3c1-0.2,5.4,0.4,5.4,0.4s3.4,4.1,6.1,0.4c1-5,1.6-11.3,1.6-11.3"/>
<path class="st1" d="M497.2,543.9c0,0-0.5,5.4-1.5,6.6"/>
<path class="st1" d="M502.2,542.5c0,0,1,6-1.1,7.8"/>
<path class="st1" d="M436.7,560.3c0,0,3.3,1.1,5.8,0"/>
<path class="st1" d="M435.5,556.3c0.1,0,5.5-0.1,7.1-2.3"/>
<path class="st1" d="M378.2,541c0,0,41.1-14.7,44.4-23c2.2,5.2,3,24.5,8.3,28.4"/>
<path class="st1" d="M443.5,528.5c0,0,1.3,12.7,0.1,18.3"/>
<path class="st1" d="M417.4,524.2c0.6-0.4,5.8,0.4,5.8,0.4"/>
<path class="st1" d="M344.6,513c3.4-0.1,25.4-3.2,31.5-4.9c4.4,1.1,10.8-1.6,10.8-1.6l13.4-6.8c0,0,11.1-3,18.3-5.2
	c7.2-2.2,19,1,19,1"/>
<path class="st1" d="M382.1,477.1l-13.9,1.9c0,0,2.8,26.8,7.3,28.4"/>
<path class="st1" d="M403,498.1l12-9.6c0,0,2.7-0.5,4.1,0.4c2.9,1.2,6.8,0.9,9.4-1.6c1.6,0,4.3,4.3,4.3,4.3"/>
<line class="st1" x1="433.7" y1="491.4" x2="413" y2="490.5"/>
<line class="st1" x1="251.9" y1="540.2" x2="251.7" y2="579.4"/>
<line class="st1" x1="267.6" y1="539.9" x2="267.1" y2="580.1"/>
<line class="st1" x1="528" y1="541.1" x2="527.2" y2="581"/>
<line class="st1" x1="555.1" y1="556.1" x2="555.1" y2="565.2"/>
<line class="st1" x1="527.8" y1="560.9" x2="464.7" y2="561.9"/>
<line class="st1" x1="435.3" y1="562.1" x2="268.3" y2="562.1"/>
<path class="st1" d="M480.3,538.8c-5.2-13.1,4.5-49.8,4.5-49.8s-13,0.9-36.5,0l-2.9-0.1"/>
<path class="st1" d="M175.2,400.5l273.8,1.6c0,0,11.8,3.3,11.8,15l-0.4,62.9c0,0,1,4.6-4,8.5"/>
<path class="st1" d="M190.3,401.2c0,0-24.3,60.5-0.9,88.5"/>
<path class="st1" d="M233.6,400.9c0,0-22.3,60.9-2.4,90.1"/>
<path class="st1" d="M416.8,402.5c0,0-11,65.5-1,79.5"/>
<path class="st1" d="M373.6,402.5c0,0-2.4,9.1-2.8,12.8"/>
<path class="st1" d="M330.5,319.3c0,0-4.7,7.8,3.2,7.9c8.6-0.6,15.9-1.8,15.9-1.8l9.5-0.5l0.4,1.3l4.3-0.5l0.4-1.1l13.3-1.9
	c0,0,11.3,2.3,12.5,2.3s0.6,1.7,0.6,1.7l4.1,0.1l0.1-1.3l8.6-0.5l17.4,2.4c0,0,3.8,1,5.7-3.8c6.3-0.4,21.5-0.4,21.5-0.4
	s-27.4,41.9-0.6,70.2c3.3,3.7,1.6,8.5,1.6,8.5"/>
<path class="st1" d="M363.8,401.5c0,0-49.9-23.7-15-74.8"/>
<path class="st1" d="M358.6,326.6c0,0-19.2,18-15.6,37.7c2.4,12.8,12.5,28.2,22.3,30.8c14.2,0.6,83,0.4,83,0.4"/>
<path class="st1" d="M448.4,323l-0.1-6.2l-39.7,0.5c0,0,12.5-4.6,15.1-7.4c2.6-2.8,7.8-10.2-4-11c-11.8-0.7-21.8,3.7-21.8,3.7
	s10.8-8.9,9.1-15.9c-1.7-7.1-5.4-22.4-9.7-25.7s-8.5-6.1-15.3-4.4c0,0-4.3-0.5-3.2-6.8c2.2-4.7,3-7.2,2.8-9.5
	c1.1-0.7,2.7-3.5,0.4-4.9c0.2-1.9,4.1-10.5-4.1-12.8"/>
<path class="st1" d="M355.4,319.1"/>
<line class="st1" x1="347.4" y1="317.5" x2="378.9" y2="322.9"/>
<polyline class="st1" points="354.1,301.6 391.5,316.8 392.1,315.3 396.3,316.7 396.1,318.6 411.3,317.6 "/>
<path class="st1" d="M404.6,324.8c0-0.5-0.6-6.2-0.6-6.2"/>
<line class="st1" x1="420.7" y1="317.9" x2="420.4" y2="327.1"/>
<path class="st1" d="M426.3,323.8c0,0,1.5-4.5-4.6-5.8"/>
<line class="st1" x1="390.7" y1="316.7" x2="389.6" y2="325.2"/>
<line class="st1" x1="396.1" y1="318.6" x2="394.5" y2="325.5"/>
<line class="st1" x1="333.9" y1="318.4" x2="333.9" y2="327"/>
<line class="st1" x1="349.8" y1="319.1" x2="349.8" y2="324.3"/>
<path class="st1" d="M358.8,319.7c0.1,0.9,0.2,4.7,0.2,4.7"/>
<path class="st1" d="M363.8,321c0.1,0.5,0.4,3.4,0.4,3.4"/>
<line class="st1" x1="397.9" y1="302.4" x2="377" y2="310.8"/>
<polyline class="st1" points="359.3,303.3 359.1,286 397.8,286 397.8,301.6 "/>
<circle class="st1" cx="377.8" cy="296.6" r="1.7"/>
<path class="st1" d="M350.4,282l4.6,2.3c0,0-4.9,8.8,3,13.8"/>
<path class="st1" d="M351.5,277.5c0,0,5.1,2.8,4,6.5"/>
<path class="st1" d="M368.6,285.7c0,0,3.9-6,0.1-13.4c3-7.4,7.5-11.2,2.1-20.3c-5.5-9.1-6.7-10.1-6.7-10.1l0.6-2.8
	c0,0,11.3,0.6,13.1-5.6c3.3-1.6,3.2,1.6,3.2,1.6"/>
<path class="st1" d="M369.7,251.7c0.6-0.2,6.3,3.8,8.9-1.2"/>
<path class="st1" d="M372.3,264.6c0.5-0.2,7.2,1.6,9.9-7.9"/>
<path class="st1" d="M395.6,285c0,0-2.7-4.1-2.1-4.4c0.6-0.2,10.1-5.2,9.7-5.2"/>
<line class="st1" x1="194.3" y1="316.7" x2="194.3" y2="400.6"/>
<path class="st1" d="M203.2,316.9c0.6,1,0,83.4,0,83.4"/>
<path class="st1" d="M153.5,569.2c-22,0-39.9-17.9-39.9-39.9s17.9-39.9,39.9-39.9"/>
<path class="st1" d="M186.6,400.5c-22.9,0-41.4-18.5-41.4-41.4c0-22.9,18.5-41.4,41.4-41.4"/>
<path class="st1" d="M154.7,563.6c-19.1,0-34.7-15.6-34.7-34.7c0-19.1,15.6-34.7,34.7-34.7"/>
<path class="st1" d="M152.5,489.2"/>
<path class="st1" d="M157.2,489.7"/>
<line class="st1" x1="152.5" y1="489.2" x2="158" y2="489.5"/>
<polyline class="st1" points="153.8,563.4 218,564.6 217.8,570.4 "/>
<polyline class="st1" points="153.2,494.3 345.4,498 344.8,493.1 "/>
<path class="st1" d="M157,488.5c-8,0-14.6-6.6-14.6-14.6v-60c0-8,6.6-14.6,14.6-14.6l20.8,1.5"/>
<line class="st2" x1="132.6" y1="502.3" x2="343.6" y2="505.2"/>
<line class="st2" x1="123.7" y1="514.1" x2="344" y2="514.9"/>
<line class="st2" x1="120.4" y1="526.6" x2="347.3" y2="526.6"/>
<line class="st2" x1="121.3" y1="536.8" x2="354.6" y2="534.4"/>
<line class="st2" x1="124.6" y1="546.1" x2="218.6" y2="546.1"/>
<line class="st2" x1="139.5" y1="560.7" x2="217" y2="560.3"/>
<line class="st2" x1="442.2" y1="503.1" x2="480.7" y2="503.1"/>
<line class="st2" x1="443.8" y1="513.2" x2="479.1" y2="513.7"/>
<line class="st2" x1="443.8" y1="526.2" x2="477.5" y2="526.2"/>
<line class="st2" x1="467.8" y1="535.1" x2="477.9" y2="533.9"/>
<line class="st2" x1="353.7" y1="332.5" x2="443.5" y2="331.9"/>
<line class="st2" x1="346.8" y1="342.2" x2="438.3" y2="342.8"/>
<line class="st2" x1="342.8" y1="355.8" x2="436.2" y2="355.8"/>
<line class="st2" x1="342.5" y1="362.9" x2="435.6" y2="361.9"/>
<line class="st2" x1="344.6" y1="370.2" x2="435.6" y2="369.6"/>
<line class="st2" x1="349.2" y1="379.9" x2="438.1" y2="379.9"/>
<line class="st2" x1="355.9" y1="388.7" x2="444.2" y2="390.3"/>
<line class="st1" x1="482.7" y1="497.4" x2="656.8" y2="495.4"/>
<circle class="st1" cx="530.6" cy="519.3" r="12.2"/>
<line class="st1" x1="460.8" y1="476.9" x2="657.4" y2="475.1"/>
<path class="st1" d="M460.5,413V294.6h-8.9v-75.3h11.8V198l18.6-41.1v-19.5c0,0,11.6-52.1,11.9-50.5c0.4,1.6,11.9,49.3,11.9,49.3
	v20.1l18.3,42.4v18.5h12.2v78.3h-9.7v60.2l11.9,0.6c0,0,11-38.9,10.7-38.1c-0.2,0.9,7.1,39.9,7.1,39.9h14.1l9.7-38.1l7.3,38.1h15
	c0,0,9.1-39.9,9.1-38.9s8.3,39.6,8.3,39.6h15.6c0,0,6.7-37.5,7.7-36.9c1,0.6,8.5,35.1,8.5,35.1h6.5"/>
<line class="st1" x1="526.5" y1="355.6" x2="526.5" y2="476.7"/>
<rect x="556.1" y="376.5" class="st1" width="14.6" height="38.1"/>
<rect x="589" y="376.5" class="st1" width="14.6" height="38.1"/>
<rect x="620.6" y="376.5" class="st1" width="14.6" height="38.1"/>
<line class="st2" x1="460" y1="355.5" x2="526.5" y2="357.9"/>
<line class="st2" x1="526.9" y1="416.3" x2="460.6" y2="418.4"/>
<line class="st2" x1="463.7" y1="199.3" x2="524" y2="199.3"/>
<line class="st2" x1="481.3" y1="157.9" x2="505.4" y2="158.2"/>
<line class="st2" x1="481.5" y1="139.2" x2="505.6" y2="139"/>
<line class="st1" x1="463.3" y1="219.3" x2="535.8" y2="218.3"/>
<polyline class="st1" points="493.3,235.6 493.3,258.2 509,274.1 "/>
<line class="st1" x1="460.5" y1="294.6" x2="536" y2="294.6"/>
<circle class="st1" cx="494.7" cy="257" r="29.6"/>
</svg>
