<?xml version="1.0" encoding="utf-8"?>
<!-- Generator: Adobe Illustrator 21.0.2, SVG Export Plug-In . SVG Version: 6.00 Build 0)  -->
<svg version="1.1" id="Слой_1" xmlns="http://www.w3.org/2000/svg" xmlns:xlink="http://www.w3.org/1999/xlink" x="0px" y="0px"
	 viewBox="0 0 1000 600.1" style="enable-background:new 0 0 1000 600.1;" xml:space="preserve">
<style type="text/css">
	.st0{fill:#674172;}
	.st1{fill:none;stroke:#6C7A89;stroke-width:2;stroke-miterlimit:10;}
	.st2{fill:none;stroke:#6C7A89;stroke-miterlimit:10;}
</style>
<path class="st0" d="M440.7,366.3c0,0,78.7,29.7,155.3,0.7c2,13.3,1.7,21.3,1.7,21.3s-71,38.7-158.3-5.7
	C440,372.7,440.7,366.3,440.7,366.3z"/>
<path class="st1" d="M552.5,522.8c0,0-6.5,3.3-6.3,9.3s-0.3,11.8-0.3,11.8s1.5,3.5,3.8,3.3c-0.3,4.8,0.3,16.8,0.3,16.8
	s52.8,32.5,105.3,0.5c0-13.8,0-17,0-17s2.5-1.8,4.5-3.8c0-3.8-0.3-12.5-0.3-12.5s2-6.5-6.3-9"/>
<path class="st1" d="M549.8,547c0,0,43,20.3,105.5,0.3"/>
<path class="st1" d="M546.3,532c0,0,46.8,25.8,113.3-1"/>
<line class="st2" x1="559.8" y1="551.5" x2="560.3" y2="537.5"/>
<line class="st2" x1="577" y1="554.3" x2="577.8" y2="541.8"/>
<line class="st2" x1="633.5" y1="540.3" x2="633.5" y2="553"/>
<path class="st1" d="M735.8,412.5l26.6,38.8l-3.7,25c0,0,1.3,10.3-22.3,6.3c-23.7-4-65-9.3-65-9.3s5,63.3-65,63.3c0,0-59,6-72.7-45
	c-13.7-51,24-85.7,65-91.3c41-5.7,61,31.3,61,31.3l3.3-22.2c0,0,0.3-8,10.3-6.5S735.8,412.5,735.8,412.5l-86.8-131
	c0,0-21,18-55.5,18.5l5.2,100.3"/>
<polygon class="st1" points="610.3,222.3 618.3,236 603.8,232.3 "/>
<line class="st1" x1="649" y1="281.5" x2="618.3" y2="236"/>
<path class="st1" d="M657.8,274.5L639,243c0,0,27.3,12,23.3,25"/>
<polygon class="st1" points="834.5,268.8 841.3,283.5 849,271.4 864.6,271.4 856,257.5 863,241.3 845.6,246.9 831.5,236.4 
	832.5,254.8 818,264.5 "/>
<path class="st1" d="M798.9,195.9l-9.6,0.1c0,0-6.3,11.8,4.8,17.6c5.1-2,8-6,8.4-9c2.5,3,2.5,7.7,10.4,3.3
	c7.9-4.4,21.6-9.6,21.6-9.6s4.1-0.6,3.3-7.9c3.9,2.1,2.5,3.4,5.7,3.4s7.3-0.8,7.3-0.8s4.6-13.2-5.5-17.2c-1.9,1.6-8.7,4.9-9.6,8.4
	c-3-2.5-3.9-5.5-7.8-3.8c-3.9,1.7-24.8,8.9-24.8,8.9S797.4,191.1,798.9,195.9z"/>
<path class="st1" d="M372.3,481.5c0,0-19.5,22.5-19.8,43.8s3,24.5,3,24.5s3.3,14.8-2.8,24.5c11.5,0,62.5-2.8,93-21.3
	c0,0,4.5-4.8,12.5-6.3c-12-12.3-12-10.5-15.8-24.8s-30.8-46-47.8-46.5c4.5-11.8,6.5-16,6.5-16s6-6.5-4-7.3c-2.8-3.5-6-9.3-12.5-2.8
	c-6.3-2-15-4-18.5,4.8c-7.3,2.5-17,8.8-9.3,13.8S370.3,473.8,372.3,481.5z"/>
<path class="st2" d="M371.8,478.3c0,0,14,1.3,22.7-3.7"/>
<path class="st2" d="M371.7,482.3c0,0,13.2,0.8,25.7-5.7"/>
<path class="st1" d="M446,299.3c0,0,126.7,8,147.5,0.7"/>
<path class="st1" d="M449,230.3c0,0,1.2,16.5,3.3,19.3c0,0-39,23,16,29.7c55,6.7,97.3,5.3,115-3.7c17.7-9,29.7-22-13.7-31.7
	c2-8.7,11.7-99-22.7-149c-19.3-33.7-23-47-29.3-29c-6.3,18-1.7,61.7,4,85c5.7,23.3,1,75.3,1,75.3s-20.7-1.7-25.7,0
	c4.3-17,10.3-104.7,0.3-129s-11.7-30.7-22.7-6S448.7,152.7,449,230.3c0,0-66.7,8.7-70.7,34.7c0.3,5.7,3,28.7,67.7,34.3
	C446.3,316,433.3,462,430,476c-0.7,9,2,17.7,9.3,22c7.3,4.3,60.7,30.7,108.3,20.3"/>
<path class="st2" d="M452.3,249.7c0,0,7.4,25.3,17.2,30.6c0,0-17.2-57.6-10.8-98.3c6.3-40.7,15.7-74.7,15.7-74.7s12-29.7,18,0.7
	s2.7,107,0,121c-2.7,14-2,53.3-2,53.3"/>
<path class="st1" d="M497,226.3c0,0-4,50.2-2,55.7"/>
<path class="st1" d="M522.7,226.3c0,0-0.7,48.9-2.2,56.9"/>
<path class="st1" d="M569.7,244c0,0-12.4,36-22.7,39.8"/>
<path class="st1" d="M496,239c0,0,21,0,26.3,0.7"/>
<path class="st2" d="M524.3,282c0,0,7.7-55.3,5.3-82.3c2.3-26.7,1.7-45.7-3.7-64S522.3,94,522.3,94s-0.3-26,13.3-2.3
	c13.7,23.7,30.3,52.7,29.7,81.7c-0.7,29,1,93-17.3,108.3"/>
<path class="st1" d="M572,186.3c0,0,26.7-22.7,45-61.7S635.3,84,635.3,84s11.7,11,22,14.7c10.3,3.7,35.3,18.7,25.7,31
	s-46,53.7-50.7,64c1,0.3,5.7,7,1.3,12.3c-4.3,5.3-4.7,6.3-14.3,4.7c-0.7,1.7-1.6,1.6-1.6,1.6L639,243c0,0,61-64,66.3-71
	s9.5-0.5,9.5-0.5s34.5,32,40.5,37S755,220,755,220s-55,59.5-61,66.3s-10.8,1.5-10.8,1.5s-17.3-16.3-21-19.8c-1.8,6-4.5,6.5-4.5,6.5
	l53,79.5c0,0-0.8-29-0.5-37s4.5-8.5,4.5-8.5s88.3-1.3,95.5-1.3s5,5,5,5s1,51.8,0.5,59s-7.3,5.3-7.3,5.3l-81.8,0.8L752,416
	c0,0-0.8-0.5,6.3-0.3s8.3,6.3,8.3,6.3l-1.5,12c0,0,44,67.3,50,76.3c-2.3,9.5-9.5,5.8-9.5,5.8l-43.2-64.7"/>
<path class="st1" d="M585.7,173c0,0,15.7,19,21.3,22.3c0,1.7,1.5,14.2,10.8,16.9l-7.5,10"/>
<path class="st1" d="M591,165.7c0,0,18.3,23.3,21.7,24.3c6-1.7,13.7-4.3,19.7,3.7"/>
<path class="st2" d="M572.7,210.3c0,0,65-80.3,79-105c-1,1,8.7,30,31.3,24.3"/>
<path class="st2" d="M651.7,106c0,0,22.7-1.2,24.8,17.2c-4.2,4.3-13,2.7-22.2-8.5"/>
<path class="st1" d="M226.5,550.3l6-17l-12.8-16.5h18.8l12.5-14.5l4.8,18.3l19.8,6.8l-15.8,7.3l-1.5,21.8c0,0-13.8-12.8-14.8-12.3
	L226.5,550.3z"/>
<path class="st0" d="M263.9,460.7l3.7-10.4l-7.8-10.1h11.5l7.7-8.9l2.9,11.2l12.1,4.1l-9.7,4.5l-0.9,13.4c0,0-8.4-7.8-9.1-7.5
	L263.9,460.7z"/>
<path class="st1" d="M151.7,429.7l131.3-120c0,0,5-1.7,5,3c-5.7,7.3-131.7,120.7-131.7,120.7S148.7,437,151.7,429.7z"/>
<line class="st2" x1="166.8" y1="416.6" x2="170.1" y2="420.8"/>
<line class="st2" x1="260.1" y1="331.1" x2="263.8" y2="335.8"/>
<path class="st2" d="M271.9,319.9c-0.1-0.4-1.3-4.8-8.1-5.1c2.3-3.4,5.9-7.9,3-15.5c4.8,0,9.8-2.5,11.1-9.3c3,3.9,9.8,8.1,19.3,2.3
	c-1.1,7.3-0.8,13.3,6.9,16.1c-1.4,0.9-9,3.9-3.8,13.9c-6.1-2.6-14.3-2.8-15.9,6.6c-4.1-4.5-6.6-5.3-6.6-5.3"/>
<path class="st2" d="M248.8,287"/>
<path class="st1" d="M259.3,339.5c0,0,11.3,0.3,22.8,12c4.3-25.5,14.5-19.5,36-14.3c-9.5-13.3-2.8-28,7.5-29.5
	c-19-9.3-15.8-20.3-10.5-38.5c-20.5,22-39.5,8.5-47-5c0.5,16.3-10.3,21.5-26.8,18.3c17.5,34.5-19.8,40.5-19.8,40.5s31-6,31,14.3"/>
<path class="st0" d="M341.6,311.4c0,0-2.3-15,5.3-18.1c3.8,2.6,6.9,1.9,9.8,6.8c3-2.4,2.6-4.1,9.4-2.6s22.1,6.6,22.1,6.6
	s4.4,0.8,4.8,6.1c3.1-1.3,13-0.9,13-0.9s6,12-4.8,18.4c-7.5-5.4-10.5-3.1-10.1-8.8c-6.5,5.5-5.9,6.4-12.4,4.5s-23-8.4-23-8.4
	s-3.9-2-1.6-7.3C350,312.4,346,312.6,341.6,311.4z"/>
<polygon class="st1" points="343.3,177.5 379.7,169 389,206 351.2,216.3 "/>
<polygon class="st1" points="391.3,154.5 379.7,169 389,206 400.5,187.3 "/>
<path class="st1" d="M343.3,177.5c0.7-0.8,12.5-16.2,13-16.3c0.5-0.2,35-6.7,35-6.7"/>
<polyline class="st1" points="399.7,183.2 411.8,185.8 419.3,152.8 433,145.5 427.3,174.5 411.8,185.8 "/>
<path class="st1" d="M382.8,155.5c0.3-0.8,4.2-11.3,4.2-11.3l31.7,8.8"/>
<polyline class="st1" points="387,144.2 403.5,137.7 433,145.5 "/>
<path class="st1" d="M659.5,430.5c0,0,12.7,26.7,11.8,42.8"/>
<path class="st1" d="M603.8,232.3c0,0-22.5-3.3-31.3-4.3"/>
<path class="st1" d="M196,121.3c0,0,9.2,10.3,11.5,20.7s13.8,30.3,28.7,31.2c8.3,0.8,9.8,2,9.8,2l-5.3,1.7c0,0-2.2,3.8,2.5,4.8
	c0.7,3.5,2.5,9.8,5.2,8.2c0.3,2.7,2.2,10.8,5.5,7c0.2,4,3.7,9.2,6.2,4.7c1.8,2.5,6.7,11.7,7.8,4.7c4.2,0.3,11.3,5.5,7.5-3.7
	c3.5,0.2,6.7-2.8,4.3-6.3c1.3-1,5.7-4.7,1.3-8c0.3-1.8,1.8-4-1.2-7.2c1.2-0.7,6-5.7,0.8-6.2c-5.2-0.5-13-0.5-13-0.5
	s-3.5-7.7-6.7-9.7c7.3,0,19.1-1,26-10.6c0.1-0.1,0.1-0.2,0.2-0.3c1.7-0.8,4.1,2.4,5.7-0.4c2.8,0.4,4.3,1.4,5.1-1.3
	c2.6,0.2,2.8-0.2,3.3-2c0.4-1.8,6.7,1.3,5.1-2.8c3.1,0.2,6.9-1.2,4.9-3.8c4.4,0.9,6.1-1.5,1.4-5.3c3.3,0.1,12.4-0.5,4.9-4.8
	c4.8-1.3,15-0.3,2-6.2c7.7-2.3,16.2-7.8,6.3-8.5c3.8-3.3,11.2-8.3-4.5-5.3c6-3.8,18-15,1.3-7.8c3.7-3.8,12.2-18.7-3.7-6.7
	c-9.5,7.2-18.7,13.3-28.6,17.5c-6.6,2.8-13.5,4.7-20.8,5.5c-18.2,1.8-23.2,4-28,3c0,0,3-3.2,1.2-4.3c-0.5-1.3-1.5-4.5-2.3-4.3
	c0,0,1-2.7-0.7-2.8c0-1-1.2-3.3-2.5-3.2c0.3-1.3,0.8-3.2-1.2-3.3c-1-1-0.7-4-3.3-2.8c-0.3-1.2-1.3-2.2-3-3.2c-1.7-1-1.7-4.7-4.7-3.2
	c-1-2.2-1.7-3.5-3.7-1.7c0.7-2.3-1.2-5-3.7-2.5c-0.8-3.7-0.5-5.7-3.2-3.7c-1.7-2.7-1.8-3.3-4.2-3.3c-2.3-2.5-4.3-3.8-6-2.3
	c-1.3-1.7-3.7-8.3-5.5-4.8c-2-1-3.8-8.2-5.2-2.7c-2.8-1.2-6.3-6.2-8.5-1c-3.5,1.2-12.8-1.7-6.2,6.5c6.7,8.2,15.8,18.5,15.7,24.3
	c-0.3,0.3-4.5,0.8-5.7,5c-1.8,2.5-5.5,5-6.2,7.2c1.7-0.2,6-0.3,7.7-1C191.7,121.2,195.2,121.8,196,121.3z"/>
<path class="st2" d="M287,154.1c0,0,18.7-26.6,4.7-37.8"/>
<path class="st2" d="M194.8,106.7c0,0,10-3.4,15.3,11.3c10.5,6.6,25.5,9.6,32.4,7.1"/>
<path class="st2" d="M196,121.3c0,0,4,3,8.5-1.8c0,0,20.1,24.5,39.8,6.4"/>
<path class="st2" d="M188.9,112.3c3.2,1.4,4.3,3,2.1,4.9"/>
<path class="st2" d="M201.3,80.5c0,0,2.7,23.2,2,27.7"/>
<path class="st1" d="M336.4,55c0,0,4.1,4.6,5.2,9.3c1,4.6,6.2,13.6,12.8,14c3.7,0.4,4.4,0.9,4.4,0.9l-2.4,0.7c0,0-1,1.7,1.1,2.2
	c0.3,1.6,1.1,4.4,2.3,3.7c0.1,1.2,1,4.9,2.5,3.1c0.1,1.8,1.6,4.1,2.8,2.1c0.8,1.1,3,5.2,3.5,2.1c1.9,0.1,5.1,2.5,3.4-1.6
	c1.6,0.1,3-1.3,1.9-2.8c0.6-0.4,2.5-2.1,0.6-3.6c0.1-0.8,0.8-1.8-0.5-3.2c0.5-0.3,2.7-2.5,0.4-2.8c-2.3-0.2-5.8-0.2-5.8-0.2
	s-1.6-3.4-3-4.3c3.3,0,8.6-0.4,11.6-4.7c0,0,0.1-0.1,0.1-0.1c0.7-0.4,1.8,1.1,2.5-0.2c1.2,0.2,1.9,0.6,2.3-0.6
	c1.2,0.1,1.3-0.1,1.5-0.9s3,0.6,2.3-1.2c1.4,0.1,3.1-0.5,2.2-1.7c2,0.4,2.7-0.7,0.6-2.4c1.5,0,5.6-0.2,2.2-2.2
	c2.2-0.6,6.7-0.1,0.9-2.8c3.4-1,7.2-3.5,2.8-3.8c1.7-1.5,5-3.7-2-2.4c2.7-1.7,8.1-6.7,0.6-3.5c1.6-1.7,5.5-8.4-1.6-3
	c-4.2,3.2-8.4,6-12.8,7.9c-3,1.3-6,2.1-9.3,2.5c-8.1,0.8-10.4,1.8-12.6,1.3c0,0,1.3-1.4,0.5-1.9c-0.2-0.6-0.7-2-1-1.9
	c0,0,0.4-1.2-0.3-1.3c0-0.4-0.5-1.5-1.1-1.4c0.1-0.6,0.4-1.4-0.5-1.5c-0.4-0.4-0.3-1.8-1.5-1.3c-0.1-0.5-0.6-1-1.3-1.4
	c-0.7-0.4-0.7-2.1-2.1-1.4c-0.4-1-0.7-1.6-1.6-0.7c0.3-1-0.5-2.2-1.6-1.1c-0.4-1.6-0.2-2.5-1.4-1.6c-0.7-1.2-0.8-1.5-1.9-1.5
	c-1-1.1-1.9-1.7-2.7-1c-0.6-0.7-1.6-3.7-2.5-2.2c-0.9-0.4-1.7-3.7-2.3-1.2c-1.3-0.5-2.8-2.8-3.8-0.4c-1.6,0.5-5.8-0.7-2.8,2.9
	c3,3.7,7.1,8.3,7,10.9c-0.1,0.1-2,0.4-2.5,2.2c-0.8,1.1-2.5,2.2-2.8,3.2c0.7-0.1,2.7-0.1,3.4-0.4C334.5,54.9,336,55.2,336.4,55z"/>
<path class="st2" d="M377.2,69.6c0,0,8.4-11.9,2.1-16.9"/>
<path class="st2" d="M335.9,48.4c0,0,4.5-1.5,6.9,5.1c4.7,3,11.4,4.3,14.5,3.2"/>
<path class="st2" d="M336.4,55c0,0,1.8,1.4,3.8-0.8c0,0,9,11,17.8,2.9"/>
<path class="st2" d="M333.2,50.9c1.4,0.6,1.9,1.3,0.9,2.2"/>
<path class="st2" d="M338.8,36.7c0,0,1.2,10.4,0.9,12.4"/>
<circle class="st0" cx="359.4" cy="202.1" r="3.6"/>
<circle class="st0" cx="372.2" cy="184.7" r="3.5"/>
<ellipse class="st0" cx="391.8" cy="178" rx="1.5" ry="3.8"/>
<ellipse class="st0" cx="359.7" cy="164.3" rx="3.3" ry="0.9"/>
<ellipse class="st0" cx="366.7" cy="165.3" rx="3.3" ry="0.9"/>
<ellipse class="st0" cx="375.7" cy="166.3" rx="3.3" ry="0.9"/>
<ellipse class="st0" cx="382.7" cy="158.3" rx="3.3" ry="0.9"/>
<ellipse class="st0" cx="352.7" cy="173.3" rx="3.3" ry="0.9"/>
<circle class="st0" cx="407.3" cy="177.1" r="2.6"/>
<circle class="st0" cx="399.3" cy="164.1" r="2.6"/>
<circle class="st0" cx="411.3" cy="157.1" r="2.6"/>
<circle class="st0" cx="392.3" cy="152.1" r="2.6"/>
<ellipse class="st0" cx="416.9" cy="149.1" rx="2.7" ry="0.7"/>
<ellipse class="st0" cx="424.9" cy="145.1" rx="2.7" ry="0.7"/>
<ellipse class="st0" cx="404.9" cy="140.1" rx="2.7" ry="0.7"/>
<ellipse class="st0" cx="396.9" cy="144.1" rx="2.7" ry="0.7"/>
<ellipse transform="matrix(5.323077e-02 -0.9986 0.9986 5.323077e-02 237.0386 579.2607)" class="st0" cx="424" cy="164.6" rx="2.3" ry="0.9"/>
<path class="st0" d="M752.1,343.5c0.4-0.3,11.5-10,11.5-10l13.1,8.9l-12.4,11.1L752.1,343.5z"/>
<path class="st0" d="M800.8,316.1c0.1-0.1,2.8-2.4,2.8-2.4l3.2,2.2l-3,2.7L800.8,316.1z"/>
<path class="st0" d="M800.8,367.1c0.1-0.1,2.8-2.4,2.8-2.4l3.2,2.2l-3,2.7L800.8,367.1z"/>
<path class="st0" d="M719.8,317.1c0.1-0.1,2.8-2.4,2.8-2.4l3.2,2.2l-3,2.7L719.8,317.1z"/>
<path class="st0" d="M719.8,368.1c0.1-0.1,2.8-2.4,2.8-2.4l3.2,2.2l-3,2.7L719.8,368.1z"/>
<line class="st1" x1="710.8" y1="354" x2="726.8" y2="377.3"/>
<line class="st1" x1="752" y1="416" x2="765" y2="434"/>
<path class="st0" d="M724.9,446.6c0,0-20.9-23.1-20.5-4.1c-3.1-0.8-4.4-2.5-4.4-2.5s0.6,3.6-0.5,5.5c0.8-0.3,2.8-0.8,5-0.8
	C702.6,447,698.5,465.4,724.9,446.6z"/>
<path class="st0" d="M679,412.2c0,0-4.5-5-4.4-0.9c-0.7-0.2-0.9-0.5-0.9-0.5s0.1,0.8-0.1,1.2c0.2-0.1,0.6-0.2,1.1-0.2
	C674.2,412.3,673.3,416.2,679,412.2z"/>
<path class="st0" d="M749,475.2c0,0-4.5-5-4.4-0.9c-0.7-0.2-0.9-0.5-0.9-0.5s0.1,0.8-0.1,1.2c0.2-0.1,0.6-0.2,1.1-0.2
	C744.2,475.3,743.3,479.2,749,475.2z"/>
<path class="st0" d="M692.7,239.7c0,0,0-33,13-13.3C713.3,228.7,721.7,239.7,692.7,239.7z"/>
<path class="st0" d="M710.7,179.9c2.4,0.7,5,3.8-4,3.8C706.7,183.8,706.7,173.8,710.7,179.9"/>
<path class="st0" d="M748.7,214.9c2.4,0.7,5,3.8-4,3.8C744.7,218.8,744.7,208.8,748.7,214.9"/>
<path class="st0" d="M691.7,274.9c2.4,0.7,5,3.8-4,3.8C687.7,278.8,687.7,268.8,691.7,274.9"/>
<path class="st0" d="M654.7,239.9c2.4,0.7,5,3.8-4,3.8C650.7,243.8,650.7,233.8,654.7,239.9"/>
<circle class="st0" cx="197.3" cy="112.6" r="1.6"/>
<circle class="st0" cx="337.3" cy="51.3" r="0.8"/>
</svg>
