<?xml version="1.0" encoding="utf-8"?>
<!-- Generator: Adobe Illustrator 21.0.2, SVG Export Plug-In . SVG Version: 6.00 Build 0)  -->
<svg version="1.1" id="Слой_1" xmlns="http://www.w3.org/2000/svg" xmlns:xlink="http://www.w3.org/1999/xlink" x="0px" y="0px"
	 viewBox="0 0 1000 600.1" style="enable-background:new 0 0 1000 600.1;" xml:space="preserve">
<style type="text/css">
	.st0{fill:#C8F7C5;}
	.st1{fill:none;stroke:#6C7A89;stroke-width:2;stroke-miterlimit:10;}
</style>
<path class="st0" d="M804.7,300.8c0.2-0.6-2.7-6.9-2.7-6.9s-0.6-17.2-0.6-18.1c0-0.8,0-14.5,0-14.5"/>
<path class="st0" d="M802.2,287.4c-2.9-7.7,0.2-28.5,0.2-28.5l10.4-0.5l2.5,2.8l3.5,7.8l7,0.7l5.2-3.3l0.7-8.7l7,1.1l4.8,4.7
	l1.6,21.4l-4.3,10v11.7l4.4,15.1l2.9,1.7c0,0-7.1,1.1-7.8,0.8s-14.5,1.9-14.5,1.9s-16.6,0-17.2-0.2s-6.9,0-6.9,0l1.9-5.3"/>
<path class="st0" d="M801,324.6"/>
<path class="st0" d="M581.8,436.9l24,13.6l6.2,2.7c0,0,14.7-17.5,15-18c0.3-0.5,15.8-20.7,15.6-21.1c-0.2-0.5,3.9-8,3.9-8l-10.9-1.3
	l-34.1-10.4l-4.3-0.5l-12.6,24l-4.1,13.9L581.8,436.9z"/>
<path class="st0" d="M621.7,444.8c0,0,2.8,7.7,3.3,7.7s18.5-4.7,18.5-4.7l12.3-7.1c0,0-3.5-21.6-3.8-22.4s-6.9-13.2-6.9-13.2
	s-3.6,7.9-3.6,8.5s-12,18-12,18l-8.5,11.7L621.7,444.8z"/>
<path class="st0" d="M269.3,59.8c0.6-0.4,6.5,1.5,10.7,10.1c3.4,6.5,3.6,5.9,3.6,5.9l14.5-7.4c0,0,13.2-4,14.1-4
	c0.8,0,8.8-1.7,15.1,5S338.1,84,338.1,84s0.2,3.8,4.4,5.3s18.9,7.1,22.9,10.5c4,3.4,9.9,7.8,10.7,10.5c0.8,2.7,2.1,11.6-0.2,14.7
	c-2.3,3.2-5.7,8-5.7,8s22,7.3,23.4,16.7s2,12.3-2.6,20.1c-1.1,7.6,0.6,21.9,0.6,21.9s-0.6,18.9-3.4,22.5
	c-2.7,3.6-7.4,12.2-11.6,14.1c-4.2,1.9-13.9,6.5-13.9,6.5l13.9,1.1l14.9-3.4c0,0,9-6.5,9.7-6.9c0.6-0.4,7.8-13.2,7.8-13.2
	s4.6-14.9,4.8-15.6c0.2-0.6-0.2-24,0.4-24c0.6,0,0.2-12.4,0.2-12.4s8.8-7.9,7.5-14c-1.3-6.1-7.1-22.1-11.9-26s-12-16.3-11.3-19.1
	s-0.5-16.5-2.8-19.6c-2.3-3-11.7-24-34-27.5s-26.1-2.9-26.1-2.9l-18-11.5c0,0-22.3-7.6-31.5,0.9s-11,10.9-11,10.9L269.3,59.8z"/>
<polygon class="st0" points="296.6,400.7 303.4,405.8 308.5,410.3 310.6,410.3 311.7,408.2 299.8,399.6 "/>
<path class="st0" d="M110.1,302.3l-1.2,3l6.5,6.9l2,1.7l-0.1,14l-0.1,13l-1.7,5.5l4.5-0.9l15.5,5.7l12.3-0.6l-1.3-6.2l0.3-15.4
	l-0.1-10l2.1-9.2c0,0-4.5-9.1-6.7-10.8c-2.2-1.7-7.5-8.1-7.5-8.1l-15.5-4.8l-8.6,13.9L110.1,302.3z"/>
<path class="st0" d="M366.3,458.8c0,0-5.8,2.5-5.7,5.7c0.1,3.2,2.7,10.7,2.7,10.7s-5.3,2.9-5.6,3.2c-0.3,0.2-5.6,6.7-5.6,6.7
	l-1.8,6.4l-6.2,2.4c0,0-2.7-2.8-2.7-4s0.7-13,1.1-14.4c0.3-1.4,3.9-14.9,4-15.2c0.1-0.3,3.6-8.8,3.6-8.8s4,0.3,4.3,0.4
	c0.3,0.1,6.2,2.7,6.5,2.9C361.2,455,366.3,458.8,366.3,458.8z"/>
<path class="st0" d="M514,558.3l-1.2,9.1c0,0,0.8,5.8,1.2,5.8s6.6,3.8,6.6,3.8l6.9-0.8c0,0,9.9-0.4,10.5-0.4c0.6,0,7.7,1.5,8.4,1.1
	c0.7-0.4,6.7-3.4,6.9-3.8l0.7-2.2L552,567l-12.9-7l-6.2-4l-2.7,1.9c0,0-4.8,1.4-5.3,1.4s-7.8-1.6-7.8-1.6l-2.7-1.6L514,558.3z"/>
<path class="st1" d="M514.1,543.6c2.8,12.6,0.4,12.1,0.7,12.2s-2.4,7.3-2.6,12.3c-0.2,5,4.3,9.4,10.7,8.7c6.4-0.6,10.2-2.5,16.2-1.3
	c6,1.3,10.1,1.1,13.2-2.1c3.2-3.2,3.4-6.1-6.2-9.7c-10.9-7.8-12.7-5.4-14.7-11.5c-1.4,0.7-0.7,3.8-1.4,2.6c-0.6-1.2-3.5-8.8-3.5-8.8
	l-8.4-70l-2.8-12.9l40.7,15.1c0,0,20.8,13.4,33.9-0.2s31-36,31-36s10.5,32.4,20.2,38.3c0.4,13,4.2,34.5,11.4,43.7
	c7.1,9.3,8,20.6,8,20.6l1.7,11.9c0,0-4,5.8-3.1,14.4c0.8,3.3,11.5,6.5,18.3,3.5c5.4-1.3,10.6,0.6,10.6,0.6s10.6,2.2,14-4.9
	c3.5-7.1-1.6-3.6-8-6.8c-6.5-3.2-13.4-4.7-15.5-9.6c0,0-2.5-2.3-3.5-0.6c-0.6-6.5-4.6-29.4-4.6-29.4l-4.5-35.1
	c0,0-2.2-23.3-5.7-32.8c-3.5-9.5-8.8-44.8-14.2-51.1c2.5-11,5-32.5,5-32.5s28.4-15.8,35.3-23.1c7.4-2.3,11.1,0.8,15.6-6.5
	c1.3-3.2-0.2-8.4-2.1-9.7c-1.9-1.3-5-2.9-7.4-3.2c-1.1-2.9-5-2.7-8.4,5c-4.6,6.9-8.6,8.8-14.5,11.1c-5.9,2.3-15.1,6.3-15.1,6.3
	s3.4-30.5-16.6-43.3c-6.1-6.9-4-8.3-4.1-11c-0.1-2.7,15.3-1.2,16.7-19c2.2-0.6,4.7-1.3-0.3-8c-4.5-8.5-7.5-16-7.5-16
	s23.1-16.7-2.9-21.4s-40.7,1.3-40.7,1.3s-25.2,16.6-6.9,35.5c0,0,14,9.6,17,15.8c3.6,3.6,3,6,9.3,0.9c-0.8,5.5-6.5,11.4-6.5,11.4
	s-6.8,11.5-12.9,15.6c-6.2,4.1-25.7,21-25.7,21s-4.6,8.2,2.2,18.6s20,27.6,20,27.6s-2.8,10.1,3.3,11.5c-2.8,5.7-19.3,29.7-18.2,42.7
	c-6.5,13-4.8,20.6-4.8,20.6s2.9,4.4-12.6,0.2s-51.5-4.8-51.5-4.8s-2.1-31.5-10.5-43.1c2.3-9.5,2-32.3,2-32.3s9.3-0.8,22.9-9.9
	c13.6-9.1,21.3-13.4,21.3-13.4s15.5,1.7,13.7-8c-3.2-8.2-2.8-8.5-8.2-9c-1.9-0.6-2.4-7.4-9.9,5c-10.9,9.5-14.2,12-20.2,14.2
	s-14.5,4.9-14.5,4.9l-2.8-7.6c0,0,4.3-18.8-7.7-28.4s-10.6-17.6-9.9-20c0.8-2.4,15.1-0.7,16.3-15.6c1.3-2.5,8.5,1.8-0.4-11.3
	c-3.2-8.4-5.6-12.4-5.6-12.4s-3.5-29.1-26.6-24.7c-23.1,4.4-19.8,20-34.7,27.3s-19.3,7.4-23.8,20.6c-14.7,4.8-11.1,7.8-12.6,22.1
	c-5.9,10.5-9.9,25,7.4,23.1s35.1-8.6,41.4-17.7c13.9-6.9,17.2-6.7,17.2-6.7l-21,30.5l-8.6,13.2c0,0-6.7,14.3,3.6,19.8
	s18.9,12.8,18.9,12.8s-4.7,5.4-3,9.8c-3.3,2.5-20.2,55.4-21,65c-3.2,5.8-7.7,6-15.6,3.6c-10.3-0.9-18.8-4.9-41.6-1.6
	c-11.4-0.6-12-2.1-12-2.1s2.5,0.1-1-2.5c-3.5-2.6-8.4-4-8.4-4s-6.2-6.5-8.7,2.7c-2.5,9.3-2.3,13.8-3.9,16.1
	c-1.6,2.3-4,16.7-1.3,20.4c2.7,3.7,8.5-0.9,9-4.7s5.6-10.2,10.2-10.9c2.7-1.8,1.6-3.4,1.6-3.4l10.8-0.7c0,0,43.5,6.6,47.6,9.5
	c4.1,2.8,17.7,8.8,24.6-0.6c6.9-9.5,27.8-39.1,27.8-39.1l11,15.8c0,0-7.9,4.1-8.8,10.1c-0.9,6,0.9,18.3,6.9,11.7
	c6-6.6,6.9-10.1,6.9-10.1l10.4,12.6C500.8,482.4,498.3,504.3,514.1,543.6z"/>
<line class="st1" x1="434" y1="460.8" x2="453.1" y2="471.5"/>
<path class="st1" d="M365,458.7c0,0-8.2,9.3-3.2,14.5"/>
<line class="st1" x1="378" y1="461.7" x2="374.3" y2="472.6"/>
<line class="st1" x1="485.4" y1="458.1" x2="491.8" y2="471.3"/>
<path class="st1" d="M516,465.6c-1.3,0.8-13.2,6.1-13.2,6.1l-10.1,0.4"/>
<line class="st1" x1="511.6" y1="451.3" x2="514.5" y2="464.2"/>
<path class="st1" d="M474.3,442.3c0,0-17.7-21.1-17.2-29.2"/>
<path class="st1" d="M580.5,435.4c0,0,20.9,16.1,31.6,16.4"/>
<path class="st1" d="M656.4,440.7c-1.6,0.6-20.2,11-32.2,11"/>
<path class="st1" d="M599.5,392.7c0,0,35.3,14.5,46.5,12.1"/>
<path class="st1" d="M620.9,442.1c0,0,20-22.3,24.4-36.2"/>
<path class="st1" d="M458.4,414.1"/>
<line class="st1" x1="457.1" y1="415" x2="456.3" y2="393.7"/>
<path class="st1" d="M501.1,408.2c0,0-36.1,1.9-44.8-13.6"/>
<path class="st1" d="M514.8,555.8c0,0,10.8,7.9,16.9,0.3"/>
<path class="st1" d="M515.1,547.7c1.1-0.6,11.5-1.6,11.5-1.6"/>
<path class="st1" d="M459.2,384.9c0,0,10.5,6.3,15.4,12.8c6.9,9,12.2,6.7,14.7-4c3.4-12-14.3-8.6-14.3-8.6s-6.5-6-12.9-12
	c-4.9-4.6-9.6-9.2-11.1-11c-3.4-4,0-5.5,0-5.5l12-8l-0.9,25.4"/>
<line class="st1" x1="503" y1="375.9" x2="504.6" y2="351.8"/>
<path class="st1" d="M450.8,332.8c0,0,10.3,3.5,12.6,13.9"/>
<path class="st1" d="M490.7,318c0,0-19.2-2.2-23.8-9.9"/>
<path class="st1" d="M462.5,347.2c0,0,21-18.3,16.1-30.9"/>
<path class="st1" d="M465.2,308.1c0,0,15.3-14.8,10.1-24.4c-3.6-7.9,1.9-11.2,5.7-7.3c2.8,0.8,16.1-12.1,16.1-12.1"/>
<path class="st1" d="M486.8,305.9c-0.6-0.8-13.4-1.9-12-11.2"/>
<path class="st1" d="M662.1,556.6c0,0,5.7,6.4,14.1-2"/>
<line class="st1" x1="660.9" y1="545.8" x2="673.3" y2="545.8"/>
<path class="st1" d="M598.8,392.6l5.5-16.8c0.8-1.1,7.4-28.6,2.3-37.4c-6.3,2.5-12.6,2.9-13,3.6c-0.4,0.6-1.9,2.7,0,8
	c1.9,5.3,9.5,25.2,9.5,25.2"/>
<path class="st1" d="M611.9,300.8c0,0-12.6,29.7-7.4,37.6"/>
<path class="st1" d="M594.8,317c1.9,1.1,7.8,12,7.8,12"/>
<path class="st1" d="M636.3,308.6c0,0-24.2,0.2-23.1-10.1"/>
<path class="st1" d="M654.4,352.3c0,0-7.1-0.2-8.2-6.5c-1.1-6.3-4.8-22.5-9.3-26.9s-12.2-9-17-9s-13,10.3-8.2,18.9
	c4.8,8.6,25.9,36.6,25.9,36.6s7.1,9.9,13.5,6.9"/>
<path class="st1" d="M643.8,335.9c0,0-20.8,6.1-19.3,12.2"/>
<path class="st1" d="M618.3,287c0,0,6.5-5.7,2.1-11.8c-4.4-6.2,2.1-11.4,4.6-7.4s8.4,2.5,17.6-12.8"/>
<path class="st1" d="M633.6,297.9c0,0-12.9-3.4-13.1-12.2"/>
<path class="st1" d="M760,322.8c0,0-6.9,7.9,3.6,14c10.6,6.2,32.3,15.1,32.3,15.1s1.7,8.5,7.3,8.5s20-1.7,23.3-1.1
	c3.3,0.6,19.6,4.7,20.8-5c3.5-2.5,35.6-16.1,37.2-20.3c1.6-4.3,0.6-9.1-0.9-11s9.9,0.8,11.2-6.6c1.3-7.4-3.5-9.3-3.6-6.5
	c-2.1,3.3-4.3,0.5-4.3,0.5s-0.6-1.7-3.2,1.3c-9.3-1.9-20.7-0.5-25.9-11.7s-4.1-33-10.7-37.4c0.2-7.4,2.2-33.6-4.3-42.1
	c-6.5-8.5-17-13.7-28.1-8.4c-11,5.4-13.2,32.8-12.3,45.9c-5.5,7.1-14.7,34.5-15,41.2c-7.3,5.5-17.3,12.9-20.2,14.4
	c-2.8,1.4-4.6,0-4.6,0s-5.8-6.9-5.8-2.5c-2.7,2.7-3.2,2.2-3.6-0.5C752.2,308.2,743.7,322.4,760,322.8z"/>
<path class="st1" d="M883.6,322.9c0,0-5.4-5.2-12.6-1.3c-7.3,3.9-49.4,30.3-49.4,30.3s-26.2-6-24.9-1.1"/>
<line class="st1" x1="848" y1="354" x2="825.1" y2="358.6"/>
<path class="st1" d="M760,322.8c0,0,8.2-5.4,11.2-3.2c3,2.2,51.7,31.7,51.7,31.7"/>
<path class="st1" d="M874.2,320.4c0,0-14.2,0.3-30,4.1c-15.8,3.8-39.3,3.2-48.6-0.6s-25.2-3.6-25.2-3.6"/>
<path class="st1" d="M846.6,323.4c0,0-10.7-19.9-3.9-32c3.2,8.2,13.7,29.3,30.3,28.7"/>
<path class="st1" d="M802.2,288.4c0,0-0.5,17.7-10.3,22.9c-9.8,5.2-18.3,8.8-18.3,8.8"/>
<line class="st1" x1="847.2" y1="262.5" x2="841.7" y2="260.8"/>
<path class="st1" d="M802.4,259.7l12.9-1.6c0,0-0.2,12.3,7.3,11.4s8.7,2.2,9.1-11.7c0,0,9.5,0.5,10.7,3.8c1.3,3.3,4.3,22.7,0.5,28.2
	"/>
<path class="st1" d="M815,257.6c0.1-0.3,1.4-6,1.4-6s-6.5-5.9-6.6-9.5c-0.1-3.6,0.6-17,5.7-20.1c1.9,4.1,14.5,9.1,16.4,9.7
	c1.9,0.5,6.7,7,2.7,12.2c-4,5.2-6.4,9.1-3.8,13.5"/>
<path class="st1" d="M815.8,252.1c0.3,0,7.1,7,13.8,1.5"/>
<path class="st1" d="M308.8,311.3l-16.4,1.3l17.7-130c0,0-27.8-17.7-29.9-40c-15.1-0.4-30.3-0.8-37.4-13.9
	c11.8,2.9,25.2,9.3,33.6,7.1c-1.7-4.6-4.2-22.7-4.2-22.7s5.9-8.8,6.3-7.6c0.4,1.3,9.3,60.6,28.6,65.6c2.1-23.6,8.4-65.6,2.1-90
	c7.6-0.8,14.3-4.6,14.3-4.6s-5,44.6-3.8,53.4c18.9-9.7,39.1-29.4,39.5-27.3c0.4,2.1,1.3,9.3,1.3,9.3s-34.5,27.8-40,30.3
	c-3.4,17.2-0.4,37.9-3.4,49.6c19.8-3.8,41.2-19.8,52.2-35.3c-12.6,19.8-34.9,42.5-53.8,45C318.1,216.7,308.8,311.3,308.8,311.3z"/>
<path class="st1" d="M304,231.6c0,0-29.7,5.4-35-32.2c0,0-123.3-1.7-35-116.9c4.2-19.3,34.5-42.1,49.6-6.7
	c20.2-10.9,42.1-23.6,55.5,11.8c10.1,4.2,54.7,16,31.1,45.4c12.6,0.8,36.2,19.3,19.3,37.9c0,7.6,23.6,79.1-73.2,65.6"/>
<path class="st1" d="M270.6,60.6c0,0,16.4-47.9,65-10.1c44.8,2.5,66.9,22.7,63.7,53.6c12,22.7,36,39.7,14.5,57.4
	c0.6,8.2,10.7,82.6-48.6,73.2"/>
<path class="st1" d="M536,222.6l-11.1,0.9l12-88.1c0,0-18.8-12-20.2-27.1c-10.3-0.3-20.5-0.6-25.4-9.4c8,2,17.1,6.3,22.8,4.8
	c-1.1-3.1-2.9-15.4-2.9-15.4s4-6,4.3-5.1c0.3,0.9,6.3,41,19.4,44.5c1.4-16,5.7-44.5,1.4-61c5.1-0.6,9.7-3.1,9.7-3.1
	s-3.4,30.2-2.6,36.2c12.8-6.6,26.5-20,26.8-18.5c0.3,1.4,0.9,6.3,0.9,6.3s-23.4,18.8-27.1,20.5c-2.3,11.7-0.3,25.7-2.3,33.6
	c13.4-2.6,27.9-13.4,35.3-23.9c-8.6,13.4-23.7,28.8-36.5,30.5C542.2,158.4,536,222.6,536,222.6z"/>
<path class="st1" d="M532.7,168.6c0,0-20.1,3.6-23.7-21.8c0,0-83.6-1.1-23.7-79.2c2.9-13.1,23.4-28.5,33.6-4.6
	c13.7-7.4,28.5-16,37.6,8c6.8,2.9,37.1,10.8,21.1,30.8c8.6,0.6,24.5,13.1,13.1,25.7c0,5.1,16,53.6-49.6,44.5"/>
<path class="st1" d="M510,52.7c0,0,11.1-32.5,44-6.8c30.4,1.7,45.3,15.4,43.2,36.3c8.1,15.4,24.4,26.9,9.8,38.9
	c0.4,5.6,7.3,56-32.9,49.6"/>
<path class="st1" d="M87.6,442.8c0,0,2.7,0.8,1.9,2.1c-0.8,1.3-4.6,2.8-1.3,7.3c3.3,4.4,4.6,12.3-0.3,9.9
	C83,459.7,72,443.4,72,443.4s3.5-9.8,8.2-8.8c4.7-1.4,4.3-3.9,4.3-3.9l1.3-0.3c0,0,11.8-23.5,24.6-30.1c0.9-7.7-0.5-47.5,5.7-55.4
	c2.2-7.1,1.3-33.9,1.3-33.9l-8.4,8.7c0,0-2.7,6-2.4,10.1c0.3,4.1,1.7,19.7,1.6,21.1c-0.2,1.4-0.8,7.1-3.8,9.5
	c-3,2.4-6.8-0.8-4.4-6.2c1.7-3.5,1.1-8.4,0.5-11c-0.6-2.7-6-22.7,3.8-34.2s15.6-24.4,15.6-24.4l1.9-5c0,0-17.3-10.7-15-24
	c-4.3-4.7-6.8-9.1-3-12.3c2.7-2.5,9.1-1.7,10.7,2.2c2.8-2.5,31.9-5.7,23.3,9.1c1.3,6.3,3.6,10.9,3.6,10.9s2.4,6,0.6,6.2
	c-1.4,1.9-3.5,11.2-8,10.1c-1.7,3.3-1.7,7.3,0.9,9.1c2.7,1.9,11.4,12.8,13.1,17.3c6.6,6.6,15,14.7,20.3,16.1
	c5.4,1.4,11.5,2.4,11.5,2.4s8.8-3.5,11.6,2.4c2.6,5.9,0.2,5.6,0.2,5.6s-6.5-5.3-6.3-4.9s4.5,6.5,4.5,6.5s-6,0.8-9.9-4.1
	c-4.4,0.2-31.5,0.7-33.8-9.9c0.8,8.7,1.4,23,0.3,26.4c0.4,1.1,5.5,30.3,4.4,39.7c-1.1,9.5,3.4,30.1,3.4,38.5
	c0,8.4,0.2,16.6,0.2,16.6l0.6,4.1c0,0,2.5-2.6,4.7,0.9s10.4,5,10.4,5s6.6,8-0.8,8.9s-10.3-3.3-13.7-1.4c-3.4,1.9-11.5,3-11.1-1.8
	c0.3-4.8,3.4-10.3,3.4-10.3s-1.3-10.3-2.7-15.4c-1.5-5-6.9-17.3-4.1-26.9c-2.5-8.3-11.7-29.8-11.7-29.8l-5.4,20
	c0,0-2.1,7.1-7.1,12.6c-5,5.5-28.6,29.4-28.6,29.4L87.6,442.8z"/>
<path class="st1" d="M247.1,442.5c0,0-6.8-1.4-10.7,3.3s-7.7,7.4-6,10.6c1.7,3.2,4.4,4.7,1.4,5c-3,0.3-7.6,1.6-6.5-7.6
	c1.1-9.1,10.1-36.4,15-42.3c-4.1-3.8-17.5-14.8-10.9-27.1c1.9,7.9,9.8,18.8,15.3,20.5c5.5,1.7,42.7,4.9,48.9-2.7
	c-2.8-2.8-9.8-2.4-1.8-8.9c8-6.5,14.4-7.5,15.3-6.9c1.5-0.6,6.5-0.7,8.3,3.2s6.5,7.1,9.9,9.5c3.4,2.4,9.2,6.6,0.9,8.5
	c-8.3,1.9-14.4-0.9-14.4-0.9s-2.3,5.3-3.2,4.9c-0.8,0.4-2.7,14.4-8,18.8c-0.9,1.5-3.2,20,2.1,25.4c5,2.4,5.4,6.8,0.3,6.1
	c-5-0.7-4.3-5.4-6.5-8.1c-2.2-2.7-8.8-15.8-8.8-15.8s-0.8,14.3-9,14.7c-8.2,0.4-8.8,0.2-4.8-3.8c0,0,4.4,0.6,5.5-3.8
	c1.1-4.4-2.9-10.7-2.9-10.7h-18.3c0,0-3.6,12.2,1.9,17.2c5.5,5,5.5,6,5.5,6s7.4,3.6,2.6,4c-4.7,0.4-9.4,0.8-11.1-3.4
	c-1.8-4.2-10.7-11.7-9.7-15.4"/>
<path class="st1" d="M246.6,441.8c0.6-0.2,6.8-2.5,10.7-7.6"/>
<path class="st1" d="M276.4,433.8c0.8,0,8-2.8,10.6,1.4"/>
<path class="st1" d="M294.4,402.1c0,0,19.7-6.9,18.3-12.5"/>
<line class="st1" x1="308.7" y1="410.6" x2="296.6" y2="401.5"/>
<line class="st1" x1="300.5" y1="400.8" x2="310.3" y2="407.5"/>
<path class="st1" d="M288.7,397.1c0,0-94.6-46.7-98.8-61"/>
<path class="st1" d="M115.4,311.1c0,0-6.6-7.3-7.4-7.4"/>
<path class="st1" d="M147.9,308.9c0.5,0.5-1.6,14.7-1.6,14.7"/>
<path class="st0" d="M116,344.8c2.4,0.5,22.2,8.8,30.1,5.4"/>
<path class="st1" d="M119.5,285.4c2.1,0.8,10.1,3.6,13.7,4.4"/>
<path class="st1" d="M121.7,279.4c0,0,1.9-5,0.8-8.8c-1.1-3.8-1.4-10.1,2.5-7.6c3.9,2.5,12.6-6.9,12.6-6.9"/>
<path class="st1" d="M132.9,283.2c0,0-10.4-2.2-10.7-5.4"/>
<line class="st1" x1="93.4" y1="418.5" x2="99.8" y2="426.1"/>
<line class="st1" x1="86" y1="431" x2="90.6" y2="436.8"/>
<path class="st1" d="M80.2,434.6c0,0,3.5,7.7,6,8.4"/>
<path class="st1" d="M148.8,449.2c0.5,0,5.4,1.7,7.6-1.4"/>
<path class="st1" d="M147.2,442.9c1.7-0.6,6.2-0.8,6.2-0.8"/>
<path class="st1" d="M145.3,431.9c0.8-0.2,8.8-2.2,8.8-2.2"/>
<path class="st1" d="M146.6,350.1c0,0-18.1,4.1-31-5.4"/>
<path class="st1" d="M801.3,291.3"/>
<path class="st1" d="M802,291c0,0,4.4,26.5-0.2,35"/>
<path class="st1" d="M802.2,291.8c0,0-1.7-14,0.2-32.9"/>
</svg>
