<?xml version="1.0" encoding="utf-8"?>
<!-- Generator: Adobe Illustrator 21.0.2, SVG Export Plug-In . SVG Version: 6.00 Build 0)  -->
<svg version="1.1" id="Слой_1" xmlns="http://www.w3.org/2000/svg" xmlns:xlink="http://www.w3.org/1999/xlink" x="0px" y="0px"
	 viewBox="0 0 1000 600.1" style="enable-background:new 0 0 1000 600.1;" xml:space="preserve">
<style type="text/css">
	.st0{fill:#4DAF7C;}
	.st1{fill:none;stroke:#6C7A89;stroke-width:2;stroke-miterlimit:10;}
	.st2{fill:none;stroke:#6C7A89;stroke-width:4;stroke-miterlimit:10;}
	.st3{fill:none;stroke:#6C7A89;stroke-width:6;stroke-miterlimit:10;}
	.st4{fill:none;stroke:#6C7A89;stroke-miterlimit:10;}
	.st5{fill:none;}
	.st6{fill:none;stroke:#667B8B;stroke-width:2;stroke-miterlimit:10;}
</style>
<polygon class="st0" points="514.4,187.2 524,222.7 529.8,226.9 548,234.1 545,224.2 540.3,221.7 538,216.7 535,214.7 536.5,213.3 
	543.7,212.4 539.8,191.1 512.1,181.4 "/>
<path class="st0" d="M478.1,416.7c0,0,65.9,19.5,79.2,45.3c-7.6-3.3-15.4-8.4-15.4-8.4l-42.7-24.2L478.1,416.7z"/>
<path class="st0" d="M846.7,311.4c0,0-8.7,24.6-20.9,25.3c12.3,1.1,22.6-2.2,22.6-2.2l3.1-2.8l-2-12.4L846.7,311.4z"/>
<path class="st1" d="M353.7,399.8l0.2-30.4l8.7-5.3l-63.8-36.3l1.6-89.4l123.4-72.2c0,0,5.3-2.6,8.1,2.1c2.8,4.7,3.1,26.6,3.1,26.6
	l16.9-8.9c0,0,5.6-3.3,8.7,1c3,4.2,65.3,89.4,65.3,89.4l11.8-1.6l10.3-40.3l-23.8-10.1L513,181.9l11.3,4l14.9,5.1l1.4,6.9l3,15.4
	l-7.9-0.2c0,0-1.3,2.2,1.5,2.9c2.7,3,1.3,7.3,7.3,7.8c5.9,0.5,8.4-1.5,11.8,0.7"/>
<path class="st1" d="M540.6,198.1l5.2-14.5c0,0,5.6-26.8,14.3-24.5c-3.3-2.9-2.4-1.8-3.3-5.9c0-3,0.2-13.1,0.2-13.1
	s-6.6-6.6,2.8-12.9c9.4-6.3,19.1-2.2,19.1-2.2s1.6-2.6-0.2-2.8c-1.8-0.2,14.3-5,10.1,11.8c-4.2,16.8-10.3,21.2-10.3,21.2l-1,5.4
	c0,0,18.8,7.3,23.8,35.1c5,27.8,5.6,28,5.6,28s2.8,6.3-4.2,6.8c-7.1,0.7-11.8,1.4-11.8,1.4s6.1,57.4,4.9,71.5
	c11.5,5.6,46.9,25.8,46.9,25.8l-1-23.3c0,0,1-21.4,4.4-32.5c3.5-11.1,6.8-50.8,6.8-50.8L639.8,249c0,0,0.2,10.9-1,15.3
	c-1.2,4.4-7.7,3.6-9.1-2.4c-3.3,0-4.7-4.5,3-18.3c4-13.1,12.3-37.9,10.9-46.6c-2.6,0-3.8,0.2-3.8,0.2s2.4-52.5,27-50.8
	c-1.6-4.7-4.9-4.5-4.7-10.1c0.2-5.6,0.7-13.7,0.7-13.7s-12.3-19.1,11.8-18.1c24.2,1,23.6,18.3,11.7,34.1c-0.2,4.7,0.2,7.7,0.2,7.7
	s21.6,6.1,26.8,19.8c5.2,13.7,7.1,21.4,7.1,21.4s1,4.2-1.8,6.1c1,5,2.6,48.7,1.6,56.4c0.2,7.7,3.5,16.3,2.2,18.9
	c-1.3,2.6-5.4,8.5-5.4,8.5s-2.8,2.6-3-3.3c-0.2-5.9-1-6.1-1.6-2.2c-2.8,0.7-4-7.1-2.6-12.7c0.2-5.9,0-52.3-4.7-57.8
	c-2.4-1.8-4-0.8-4-0.8s4,35.8,1.2,40.7c0,3.8,6.4,54.2,2.6,73.3c7.1,9.4,20.2,38.9,21.3,44.7c4,3.3,3.3,2.9,3.3,2.9s2.2,2.7,0.8,12
	c-1.3,9.4-3.5,16.6-8.6,19.3c-5.1,2.7-14,5.6-9.7-1.6c1.1-5.3-0.8-23.9,0.5-25c-1.1-0.5-7.5-11.8-7.5-11.8l-0.5,62.5L670,436.2
	l0.5,3.5c0,0,7.5,3,5.9,7.5c-2.2,5.9-3.5,12.5-16.2,7.9c-0.1,0-0.3-0.1-0.4-0.1c-12.6,6.4-114.1,64.5-114.1,64.5s1.7,11.5-8.1,11.3
	c-9.9-0.2-19.1-10.7-14.7-19.9c4.5-9.1,10.9-5.6,10.9-5.6l0.3-10.6l-150.9-87.5l-17.7,8.9"/>
<path class="st1" d="M534.1,188.3"/>
<polyline class="st1" points="383.1,407.2 375.3,402.2 365.9,396.3 365.3,416 "/>
<line class="st1" x1="366.1" y1="408.2" x2="375.3" y2="402.2"/>
<path class="st1" d="M353.7,399.8l0.4,5.9l10.9,11.4c0,0-0.4,13.1-9.7,10.1c-9.2-3-14.8-11.2-11.7-20.7
	C346.5,401.4,350.3,399.6,353.7,399.8z"/>
<path class="st1" d="M349.6,407.5"/>
<polyline class="st1" points="353.9,369.4 545.8,479 545.6,519.6 "/>
<line class="st1" x1="669.9" y1="436.3" x2="545.8" y2="509.9"/>
<path class="st1" d="M545.3,503.6l27.2-16.7l5.6,3.5l2.2-57c0,0-0.8-5.9-6.9-5.9l-0.8,43.2"/>
<line class="st1" x1="545.8" y1="479" x2="551.7" y2="474.2"/>
<line class="st1" x1="572.4" y1="486.9" x2="362.7" y2="364"/>
<line class="st1" x1="365.3" y1="375.7" x2="373.7" y2="371"/>
<path class="st1" d="M393.3,392.2c0.7-0.4,8-5.2,8-5.2"/>
<path class="st1" d="M401.5,396.5c0.7-0.4,7.5-4.7,7.5-4.7"/>
<line class="st1" x1="540" y1="467.3" x2="535.2" y2="472.7"/>
<path class="st1" d="M571.9,471.5l0.5-0.9l-262-150.9l-0.7-74.1c0,0-2.6-7.5-9.2-7.3"/>
<path class="st1" d="M573.2,427.4L700,353.1c0,0,4.6-3,4.9,2.2"/>
<path class="st1" d="M310,294.3c0,0,3.3-8.2,10.4-3.8c7.3,4.5,23.1,12.9,23.1,12.9l43.1,60.2"/>
<path class="st1" d="M396.6,368.9l-43.7-61l100.7,59.3c0,0,9.2,4,9.2,12.9c0,8.9,0.4,27.6,0.4,27.6"/>
<path class="st1" d="M467.5,410l-0.7-30.2c0,0,2.4-9.7-11.7-16.9c-14.1-7.3-108.5-61.9-108.5-61.9l-8-13.7l-4.7,0.2l0.8,4.9l-16-8.2
	c0,0-5.2-2.8-8.9,0.2"/>
<line class="st1" x1="454.2" y1="403" x2="453.6" y2="367.1"/>
<path class="st1" d="M455.2,362.8c0,0,11.2-15.7,28.1-26.2c16.9-10.4,59-39.5,74.7-41.4c15.5-1.8,18.8-5.5,37.9,8.1"/>
<path class="st1" d="M435.1,194.9l-103,60.7c0,0-11.5,3.8-7.5,13.5c4,9.7,14,18.3,14,18.3"/>
<line class="st1" x1="375.3" y1="316.8" x2="332.1" y2="255.6"/>
<polyline class="st1" points="383.1,326 401,351.8 419.4,382.1 "/>
<path class="st1" d="M449.2,315.8l14-0.7c0,0,0,0.1,0,0.4c0,1.5,0.2,6.8,1.6,9.4c-10.4,1.6-35.5,9.2-35.5,9.2s-14.5,4-16.1-7.1
	c-1.6-11.1-3.8-51.1-2.6-52c0,0,10.4-18.8,13.5-26.4l0.1-4.7c0,0-17.3-10.1-17.5-18c-0.3-7.9,1.4-22.2,24-21.1
	c7.8,3.5,6.5,7.3,5,8.1c0.2,2,5.6,11.2,5.6,11.2s2.1,9.9,1,12.9c-0.8,2.8-0.7,4.7-0.7,4.7s10.9-4.9,17.8,0.4
	c6.9,5.2,23,25.6,23,25.6s16.9,12.9,21.4,16.3c-2.2,0.4-12.3,8.2-12.3,8.2l-12.9-9.1l4.7,8.9l2.2,3.6"/>
<path class="st1" d="M439.5,318l-9-15.7c0,0-1.2,12.6-0.2,16.1c0.4,0.1,4.6-0.3,9-1c5.4-0.8,11.4-1.5,11.4-1.5"/>
<path class="st1" d="M422.9,252.3c0,0,21.8,9.8,18.9-10.3"/>
<path class="st1" d="M424.6,245.3c0.3-0.1,13.1,6.7,16.7-3"/>
<path class="st1" d="M423.6,243.8c0,0,0-5.8-2.4-6.8c-2.4-1.1-7.7-2.8-6.9-6.5c2.5-1.4,2.8-1.8,6.8,1.6c1.3-2.1-2.9-7.8-0.9-9.7
	c2.1-1.8,10.5-8.5,15.6-9"/>
<path class="st1" d="M431.8,332.9c0,0-9.4,9.4-10.7,10.4"/>
<line class="st1" x1="526.1" y1="276.4" x2="503.9" y2="284.4"/>
<path class="st1" d="M491.7,292.6c0,0-35.8,21.2-38.6,23.3"/>
<line class="st1" x1="334.7" y1="292.4" x2="343.6" y2="303.5"/>
<line class="st1" x1="346.7" y1="301.1" x2="354.2" y2="309.5"/>
<path class="st1" d="M574.1,293.4c0,0-23.1-16.1-36-18.6"/>
<path class="st1" d="M463.8,315.8c0.2-0.1,2.7-0.3,2.7-0.3s7.3-3.5,8.4-5.5c1.5-2.1,3.5-2.3,4.2,0c4.3-0.2,7.5,0.2,7.5,0.2
	s4.9,0.9,3.4,1.8c0.5,1.1,1.4,2.4,0.4,2.8c0.1,0.9,0.5,2.6-0.9,2.7c-0.2,1.1,0.3,3.7-1.3,3.3s3.4,2.3,0.5,2.1
	c-2.8-0.2-9-1.8-13.3-0.8c-4.5,1-9.6,1-11,0.3"/>
<line class="st1" x1="548.4" y1="277.8" x2="548.2" y2="234.5"/>
<path class="st1" d="M559.2,283.5l0.7-55.4c0,0,26.6,4.2,30.4,4"/>
<path class="st1" d="M559.7,228.1l-2.5-0.2L556,218c0,0,32.7,0.4,34.4,0.4c1.7,0,3-2.4,2.1-5.4c-1-3-7.3-18.3-7.3-18.3L589,218"/>
<path class="st1" d="M556.1,218"/>
<path class="st1" d="M556,217.6c0,0-6.8-5.6-8.4-5.2c-2.1-1.7-2.7-2.2-4.1-1.5"/>
<path class="st1" d="M559.9,217.7c0,0-0.8-34,7.5-40.2c1.6-5.6,1.7-5.2-4.3-0.1c-2.8-0.2-2.1-7.3-2.1-8.5s-3.8,6.7-3.4,11
	c-1.3,5.2-7.2,33.9-7.2,33.9"/>
<path class="st1" d="M577.6,160.6c0,0-5.3,9.4-9.7,12.8"/>
<path class="st1" d="M561.1,169c0,0-1.5-5.2-1-10"/>
<path class="st1" d="M577.4,157.6"/>
<path class="st1" d="M560.8,159.1c0,0,6.7,7.7,17.3-1.3"/>
<path class="st1" d="M556.7,139.9c0,0,9.8,3,15.2,1.3c5.3-1.7,5.3,0.4,5.3,0.4s5.8,2.1,1.1,6.4c-0.2,6.6-1.2,4.6,0.3,7.2"/>
<path class="st1" d="M683,362.7c0,0-4-15.1-19.3-21.7c-0.8-10.7-1.8-33-1.8-33s1.6-9.4,3.8-15.1c2.2-5.6,8.6-24.7,8.6-24.7
	s8.6,42.1,11,47.8c0.5,5.6,19.1,37.9,19.1,37.9"/>
<path class="st1" d="M651.7,240c0,0,14.5,12.4,50.5,4.3"/>
<polyline class="st1" points="642.5,197.3 652.4,197.3 653,222.7 "/>
<path class="st1" d="M718.4,193.5c0,0-12,7.1-17.5,7.1"/>
<path class="st1" d="M666.6,146.5c0,0,10.1,20,19.8-0.2"/>
<path class="st1" d="M686.1,140.1c0,0-9.1,11.8-19.8,4.2"/>
<path class="st1" d="M662.6,122.7c0,0,17.4-7.8,19.8,1s0.7,17.1,4.9,13.2"/>
<path class="st1" d="M726,359.2c0,0-1.1,5.9-13.7,7.8"/>
<line class="st1" x1="642.8" y1="329.2" x2="663.7" y2="341"/>
<line class="st1" x1="548.3" y1="235" x2="545.9" y2="224.1"/>
<line class="st1" x1="549.4" y1="223.4" x2="548.2" y2="234.5"/>
<path class="st1" d="M658,455.5c0.4-0.2,13.2-3.3,14.2-14.2"/>
<ellipse transform="matrix(0.866 -0.5 0.5 0.866 -187.9504 335.2592)" class="st1" cx="531.6" cy="518.3" rx="5.8" ry="8.4"/>
<polyline class="st1" points="545.7,520.2 534.1,509.8 533.7,505.3 "/>
<ellipse transform="matrix(0.8995 -0.4369 0.4369 0.8995 -145.6608 195.9263)" class="st1" cx="353.1" cy="414.6" rx="4.4" ry="7.7"/>
<path class="st1" d="M806.2,287.7l-20.3,37.4l-0.4,6.8c0,0-0.8,10.3-7.7,5c0.2-5.2-0.1-6.2-0.1-6.2s-3.5,0.4-1.7-4
	c1.7-4.5,5.2-8.5,5.2-8.5l17.5-38.6c0,0-4.5-2.3-1.1-10.2s9.2-29.3,9.2-29.3s2.2-9.7,9.4-10.9c-1-5.9-2.2-16.4-1-19.6
	c-1.8-1-2.7-8,2.7-12.9c5.3-4.9,16.9-4,16.9-4s4.3-10.1,11.5,0c1.5,4.7,3,24.5-8.4,33c-1.1,2.9-2.4,5.5,0.5,7.8
	c2.9,2.3,16.9,12.9,20.4,25.4c3.5,12.5,6.9,24.5,6.9,24.5s2.1,7.5,0,8.6c0.1,3.3-0.2,34.6-0.2,34.6l-0.1,16.4c0,0,3.3,5.1-0.2,10.1
	c0,0-5.3,9.2-5.3,2.6c0-6.7-1.8-7.8-1.8-5.5s-4.7,3.9-3-3c1.6-6.9,2.9-7.2,2.9-7.2s0.1-43-2.8-45.3c-3.4,0-3.8-2.1-5.3-5.9
	c-1.6-3.9-3.9-8.5-4.3-3.6c-0.4,4.9,0.5,25,4.1,35.2c1.6,9.2,0.8,23-1,31c-1.7,8-2.6,37.9-2.6,37.9s1.2,7.8,4.9,11.9
	c3.7,4.1,18.2,30.9,18.2,30.9s-1.2,10.7-11.2,8.1c-8-8.9-27-35.2-27-35.2s-4.4-4.7-4.9-13c-0.4-8.4-3.3-36.4-3.3-36.4l-8.5,27.2
	l-0.7,55.6l-1.2,5.6c0,0-1.6,4-9.6,2.4c-5.1-0.8-5.9,1.2-5.5-12.8c0.4-14-1.2-33.3-1.2-33.3s-3.3-22.2-0.8-30.6
	c2.4-8.4,8.1-38.1,8.1-38.1s-1.6-4.1-0.5-8.4C804.5,319.5,809.4,294.3,806.2,287.7z"/>
<path class="st1" d="M799.4,446.6c0,0-3.9,8.6-8.1,11.4c-4.3,2.8-11.4,10-3.9,10s21.7-6.7,21.7-6.7s3.8-3,1.6-14.5"/>
<path class="st1" d="M859,440.8c0,0,0.5,12.3-0.3,14.5c-0.8,2.2,1.8,18.8,9.6,4c5.6-13.7,9.6-12.4,1.2-25.7"/>
<path class="st1" d="M788,460.6c0.4-0.1,12.4,2.2,22.7-5.3"/>
<path class="st1" d="M858.6,455.3c0,0,4.7,3.7,8.2-3.1c3.6-6.8,3.9-15.2,3.9-15.2"/>
<path class="st1" d="M803.6,332.7c0,0,36.5,9.8,46.6-0.1"/>
<path class="st1" d="M798.6,279.8c0,0,4.7,5.9,7.7,7.4"/>
<path class="st1" d="M855.2,294.9c0.5,0,8.4-0.4,10.9-2.7"/>
<path class="st1" d="M840,235.2c0,0-11.8,13-20.5,13.7c-2.4-3.9-1.3-12.8,0.4-15.2c0.8-1.6-3.6-4.3-3.6-4.3"/>
<path class="st1" d="M837.4,227.4c0,0-11.2,7.7-17.6,5.2"/>
<path class="st1" d="M815.3,209.8c0,0,11.9,2.3,15.7,0.4c2.9,0.1,3.9,3.6,6.8,2.7c3,1.2,2.9,1.8,0.7,4.5c-2.3,2.6-0.4,8.6-0.4,8.6"
	/>
<path class="st0" d="M138.5,208.6c0,0,4,18.8,18.7,20.1c-7.3,0.3-19-2-19-2l-1.1-6.3l-0.2-11.4L138.5,208.6z"/>
<polygon class="st1" points="809.9,522.9 773,491.3 693.8,518.7 687.7,556.1 725.4,585 804.8,556.9 "/>
<polyline class="st1" points="725.4,585 731.4,551.4 693.8,518.7 "/>
<line class="st1" x1="809.9" y1="522.9" x2="731.4" y2="551.4"/>
<path class="st1" d="M774.7,500.2c-19.4,7.4-29,10.4-29,10.4"/>
<line class="st2" x1="780.2" y1="505.6" x2="743.9" y2="518.3"/>
<line class="st3" x1="790.5" y1="513.5" x2="734.5" y2="534.1"/>
<path class="st1" d="M457.3,75.6c0,0-11.7,11.9-7.4,23.1s10.9,33.1,10.9,33.1s7.1,9,10.9,9.8c3.8,0.8,26.4,8.1,35.1-3.3
	c6-13.9,15.5-42.7,15.5-42.7s6.8-16.8-15.5-23.1c2.2-6,6.5-27.5-4.7-18.5c3-12.3,1.4-38.5-8.7-13c-0.5-10.9-2.2-48.8-20.1-23.7
	c0,0-2.7,5.2-0.3,13S480,50,480,50s-7.9-22.2-16.1-6.3c0.5,6.8,1.6,23.1,10.6,34C463.8,68.4,456,64.2,457.3,75.6z"/>
<path class="st1" d="M504.8,76c0,0,12.8,6.8,12.5,11.9c-0.3,5.1-1.6,14.1-9.6,16.6c-7.9,2.5-29.3,12.5-50.8-5.4
	c-4.1-7.6-4.7-12.8,2.2-18.8"/>
<path class="st1" d="M507.7,78.7c0,0-11.4,44.8-50.5-3"/>
<line class="st1" x1="458.4" y1="80.7" x2="460.2" y2="79.4"/>
<line class="st1" x1="505.6" y1="76" x2="506.7" y2="72.7"/>
<path class="st1" d="M583.4,58.6"/>
<path class="st0" d="M799.4,87l13.8-2l8.5-0.3l3.9,4.1c0,0,0.1,7.1,0,7.4c-0.1,0.3-4.2,4.4-4.6,4.7c-0.3,0.2-12,3.6-12,3.6l-3.6-1.7
	l1.3-5.5l-1.2-4.2l-2.3-3.4L799.4,87z"/>
<path class="st0" d="M806.2,156.4l14.1,3.1c0,0,7.5-0.3,7.7-0.3s2.6-3.7,2.7-3.9c0.1-0.2,1.2-5.9,1.3-6.1s-5.5-6.7-5.5-6.7l-16.4-3
	l-3.1,1.7l-3.5,6.1l0.3,8L806.2,156.4z"/>
<path class="st0" d="M850.1,139.9l-0.5-8.6l3.5-6c0,0,7.4-0.9,7.5-0.9c0.1,0,5.3,2.4,5.3,2.4s2,4.6,2,5s0,7.9,0,7.9l-2.7-2.7l-6-2.4
	l-4.8,1.1l-4,4.9L850.1,139.9z"/>
<path class="st1" d="M584,59c0,0-16.5-7.8-11.7-15.2s9-6.7,13-4.6c4,2.2,17.7,10.6,17.7,10.6s8.4,11.2-4.3,15.2
	C585.7,60.8,584,59,584,59z"/>
<path class="st1" d="M583.9,59.7c0,0-3.5-14.4,7.8-15.7"/>
<path class="st1" d="M185.2,493.8l58.4-33.1c0,0,28.5-2.5,25.3,15c-13.3,9.2-59.2,36.4-59.2,36.4S170.5,516.6,185.2,493.8z"/>
<path class="st0" d="M243.5,487l-16.7,8.2c-1.6,0.8-4.2,0.7-6-0.3l-13-7.2c-2-1.1-2.3-2.7-0.7-3.6l17.5-9.3c1.7-1,4.8-0.8,6.6,0.5
	l12.4,8.1C245.2,484.6,245.2,486.1,243.5,487z"/>
<path class="st1" d="M137.1,201c0,0-0.9,1.6,1.1,5.2c-1.6,5.4-1.6,29.1-1.1,32.9c0.5,3.8,10.9,28,10.9,28l-18.2,28.2
	c-7.6,5.8-1.7,8.6-1.7,8.6s10.4,9.1,16.2,9.3c5.8,0.2,0.3-6.3,0.3-6.3l-5-6.6l11.9-13c0,0,2.8,33.5,3.6,38.1
	c-1.2,2.1,1.2,6.9,1.2,6.9s13.5,7.1,19.5,6.3c6.1-0.8-0.4-7.5-0.4-7.5l-9.6-8.1l0.1-27.1c0,0,0.7-25.5-1.1-30
	c6.6-9.3,5.5-38.4,5.8-41.4c1.6-1,1.5-3.7,1.5-3.7l0.7-13.1l13.9,20.2c0,0-1,3-0.1,7.5c-2.1,0.9-2.7,8.7-2.7,8.7l2.5,0.1l0.7-2.5
	c0,0,1.7-0.5,2.7,1.6c-2.2,4.2,0,23.2,0,23.2s1,27.2,1.6,37.3c2.7,3.1,9.6,0,9.6,0l2.3-23.2l12.3,48.4l2.5-1.1l-15.6-63.8l6-24
	c0,0,2,15.5,1.7,22.7c-0.2,7.2,3.9,11.5,3.9,11.5s11.3,15.8,19.4,25.9c6.8-0.1,7.5-6.3,7.5-6.3s-9.7-19.3-11.9-22.1
	c-2.3-2.8-3.8-7.9-3.8-7.9l1.1-25.1l1.1-19.6l2.6-0.9c0,0-0.5-7.5-3.8-12.3c-3.3-4.8-2.6-14-2.6-18.3c2.2,4.2,6.5,2.3,10.4,1
	c3.9-1.3,1.7-7.1,1.7-7.1s-4.1-9.9-7.2-19.1c-3-9.2-14.4-12.4-15.3-12.9c-0.9-0.5-1.2-3.5-0.3-5.6c6.1-6.5,3.4-14.2,5.1-15.7
	c3.6-18.1-10.4-7.5-10.4-7.5s-1.4-1.5-7.6,1.2c-6.2,2.7-7.2,9.9-4.4,11.2c-0.7,8.9,0.4,8.8,2.7,15.3c-6.5,3.1-14.8,23.3-16.4,28.1
	c-1.6,4.8,0.1,7.2,0.1,7.2l-2,2.2c0,0-1-5.5-2.1-14.2c-1.1-8.7-10.9-11-10.9-11s-0.9,0.3,0.4-1.7c4.9-0.3,4.8-15.3,5.4-19.6
	c5.2-4.3-3.1-11.3-12-11.8c-12.3,0-10.9,15.1-10.9,18.6c0,3.5,3.1,5.2,2.2,11.2c-18,2.5-19.1,21.3-22.9,31.9
	c-3.8,10.6-7.6,39.1-7.6,39.1s-0.2,1.4-1.6,6.5c-2.3,3.6-1.1,8.4,0.9,9.3c0.3,4.5,3,5.9,3.3,3.9c0.2-2,1.2-7.7,1.4-4.4
	c0.2,3.3,1.7,0.9,1.7,0.9s-0.3-1.2,0.9-4.3c0,0-0.4-3.1-0.8-4C127,235.2,135.8,203,137.1,201z"/>
<path class="st1" d="M147.9,267c0,0,3.3,12.8,3.4,20.2"/>
<line class="st1" x1="164.8" y1="265.7" x2="159.8" y2="238.9"/>
<line class="st1" x1="122.2" y1="228.2" x2="128.1" y2="229"/>
<path class="st1" d="M179.7,185.8c0,0,8.7,35.3,11.3,38.1c2.6,2.8,2.1,2,2.1,2s1.5-21.1,4.1-25.9c-1-8.6-3.6-16.9-3.6-16.9
	s-2.3-4.5-3.1-1.1c-0.9,3.4-0.3,5.2-2.2,5.4c-1.8,0.2-5.8,7.4-5.8,7.4"/>
<path class="st0" d="M201.5,163c0,0,14.4-2.3,16.8-9.9l-3.8-2.8l-3.7,4.3l-6.5,5.4L201.5,163z"/>
<line class="st1" x1="181.6" y1="183.6" x2="188.2" y2="187.3"/>
<path class="st1" d="M186.5,227.7c0.5-0.7,4.5-3.3,4.5-3.3"/>
<path class="st1" d="M189.5,243.2c0,0,4.3-0.1,4.7-2.3c1.1,6,6,27.2,6,27.2l2.7,13"/>
<path class="st1" d="M201.7,263.4l-4.9-20.7c0,0,2.1,0.1,0.1-5.8s-2.6-9.6-3.9-11.2"/>
<path class="st1" d="M226.8,221.1c0,0-28.2,7.4-33.1-0.9"/>
<path class="st1" d="M215,151c0,0-9.6,12.3-15.1,11.2c0.9-9.6,1.2-9.9,1.2-9.9s0.9-3.8-2.7-3.7"/>
<path class="st1" d="M137.3,226c0,0,18.1,8.1,33.2-1.6"/>
<path class="st1" d="M151.8,157.6c0,0,4.3,15.1,15,3"/>
<path class="st1" d="M129.5,295.8c0,0,4.5,5.5,9.2,4.7"/>
<path class="st1" d="M155.1,326.1c0,0,6.3,1.7,9.9-2.7"/>
<path class="st1" d="M151.7,153.6c0,0,3.6-3.3,2-5.2c-1.6-2-1.2-8,1.4-6.2c0.4,3.7,0.3,19.1,11,17.7"/>
<path class="st1" d="M172.1,139.5l-13.7-0.7c0,0-1.2,9-0.4,10.2c0.8,1.2,2.6,3.4,3.6,3.6s2.4-3.9,9.1-2.1"/>
<path class="st1" d="M167.9,154.4"/>
<ellipse class="st4" cx="166.1" cy="153.7" rx="2" ry="1"/>
<path class="st1" d="M211.2,146.2c0,0-4.2,7.1-9.3,4.2"/>
<path class="st1" d="M195.2,133.1c0,0,7.9,4.1,12,0.7c3,0,2.8-0.1,3.6,0.5c2-0.4,3.1,2.2,2,4.3c-1.1,2.1,0.1,4.9,0.1,4.9"/>
<path class="st1" d="M226.8,191c0,0,5.4,23.1,4.7,26.6c-0.8,3.5-3,10.6-1.6,14.1c1.4,2.5,1.8-1.6,1.8-1.6s1.4,4.9,1.6,6.7
	c1.8-1.4,3.3-2,3.8-5.1c0.5-3,0.5-7.3-0.8-9.6c-0.8-5.4,0-28.5-2.2-34"/>
<path class="st1" d="M192.3,305.5c0,0-6.3,8.5-9,9.4c-2.7,0.9-6.3,9.8,3.3,4.9c9.6-4.9,14.4-5.4,13.1-10.1c-1.3-4.7-0.7-5.5-0.7-5.5
	"/>
<path class="st1" d="M185,314.7c0,0,7.6,0.9,14.2-5.8"/>
<path class="st1" d="M234.4,300.1c0,0-0.1,8.6-1.1,11.1c-1,2.5-2.4,11.4,5.1,4.1c4.3-7.2,6.3-13.9,6.3-13.9s2.7-4.2-3.6-6.6"/>
<path class="st1" d="M234.1,310.8c0,0,8.4-9.8,8.4-14.4"/>
<path class="st1" d="M809.3,139.3l-12.8-2.9c0,0-7.4-2.4-9.6,3.3c-2.2,5.6-2.5,12.3,3.5,13.3c6,1.1,28.8,6.7,29.5,6.7
	s8.1,2,10.5-4.1c2.4-6.2,0.9-10.6-4.1-12.8C821.1,140.5,809.3,139.3,809.3,139.3z"/>
<path class="st1" d="M850.4,141.3l-0.3-8.9c0,0-0.8-7.8,7.3-8.1c7.9-0.3,9.6,1.6,10.1,7.4c0.5,5.8-0.2,20.4-0.2,20.4s-3,4.7-7.6,4.3
	c-4.6-0.3-7.6-1.1-8.7-5.6C849.8,146.4,850.4,141.3,850.4,141.3z"/>
<path class="st1" d="M804,104.6c-0.8,0.3-14.9,4.1-14.9,4.1s-8.9,0-9.4-5.8c-0.5-5.8-0.5-10.1,6.2-12.3c6.7-2.2,27.9-6.2,27.9-6.2
	s10.1-1.6,11.7,5.1s-1.6,10-7.1,12.2S804,104.6,804,104.6z"/>
<path class="st1" d="M809.3,139.3c0,0-9.6,9.2-4.1,17.1"/>
<path class="st5" d="M867.2,139.7c0,0-9.6-10.9-16.8,1.6"/>
<path class="st1" d="M805.3,104.4c3.6-8.9-4-16.6-4-16.6"/>
<path class="st6" d="M851,141.1c0,0,4-13.2,16-2.2"/>
</svg>
