<?xml version="1.0" encoding="utf-8"?>
<!-- Generator: Adobe Illustrator 21.0.2, SVG Export Plug-In . SVG Version: 6.00 Build 0)  -->
<svg version="1.1" id="Слой_1" xmlns="http://www.w3.org/2000/svg" xmlns:xlink="http://www.w3.org/1999/xlink" x="0px" y="0px"
	 viewBox="0 0 1000 600.1" style="enable-background:new 0 0 1000 600.1;" xml:space="preserve">
<style type="text/css">
	.st0{fill:#FFF68A;}
	.st1{fill:none;stroke:#6C7A89;stroke-miterlimit:10;}
	.st2{fill:none;stroke:#6C7A89;stroke-width:2;stroke-miterlimit:10;}
	.st3{fill:none;}
</style>
<path class="st0" d="M128,361.2c0,0-12,45-18,49c6,1,11.3,0.7,11.3,0.7S129,404.2,128,361.2z"/>
<polygon class="st0" points="379,93.2 324,155.2 379,155.2 "/>
<polygon class="st0" points="521,31.2 479.5,82.7 521,83.2 "/>
<polygon class="st0" points="651,122.2 618,174.2 651,174.2 "/>
<path class="st0" d="M942.6,142.5c0,0-16.3,92.9-39.4,109.6c53.7-0.8,53.4-1.2,53.4-1.2S938.1,159.4,942.6,142.5z"/>
<line class="st1" x1="522.3" y1="370.9" x2="456" y2="368.5"/>
<line class="st2" x1="424.3" y1="258.2" x2="545.7" y2="261.5"/>
<path class="st0" d="M366,390.2c0,0,47,16,61.5,19C430.5,410.2,368,405.2,366,390.2z"/>
<path class="st0" d="M603,377.5c0,0-12,25.7-17,30.7C588,409.2,608,402.9,603,377.5z"/>
<path class="st0" d="M585,299.2c0,0-10,21-20,26c1-4,2.8-8.3,2.8-8.3L585,299.2z"/>
<path class="st0" d="M370,237.9c0,0-9,42.3-10,49.3s-4.3,8.7-4.3,8.7s-4.7-15.7,2.3-23.7c2-9,4-16,4-16l3.3-7.3L370,237.9z"/>
<g>
	<path class="st2" d="M435,469.7H280.5c-16,1-15-8-15-8s-4,38-3,48s8,12,8,12l160.5-2l12,0.5"/>
	<path class="st2" d="M265,461.2c0,0-4-17-4-25c-5-1-16-10-18-14s-40-63-6-85s73-29,73-29s-3-32-1-45s25-8,25-8l28,1"/>
	<path class="st1" d="M366,372.2h-59c0,0-4-32,5-46c0,0-41,25-52,32c1,7,8,27,11,41c-3,5-9,16-9,16l155,1l21,0.8"/>
	<path class="st1" d="M600,372.2l73-1c0,0,3-39-1-49c9,4,41,15,48,26c-2,5-12,44-12,44l11,16c0,0,6,8-6,9s-121,1-121,1h-7.5"/>
	<path class="st2" d="M484.3,468.2c0,0,11.7,3,12.7-18c1,7,0,18,18,18l13.7,0.7"/>
	<path class="st2" d="M501.3,518.5l62.8,1c0-0.3,6.3,0.4,6.3,0.4"/>
	<path class="st2" d="M592,520.2l18.5-0.8l109-1.8c9-13,1-51,0-60c-6,8-15,7-15,7L598,470.9l-16,0.7"/>
	<path class="st2" d="M719,457.2l2-30c14-12,21-32,27-50s6-33-5-43s-70-31-70-31s3-31,3-43s-7-10-7-10s-28.4,3-36,3
		c-3,0-35,6.3-42,7.7"/>
</g>
<polyline class="st1" points="492.8,413.7 498,413.7 529,414.7 535.3,414.7 "/>
<g>
	<polygon class="st2" points="61.5,562.7 56.5,562.7 80.5,419.7 72.5,419.7 72.5,416.7 68.5,416.7 68.5,410.7 135.5,410.7 
		135.5,414.7 131.5,414.7 131.5,419.7 122.5,419.7 148.5,562.7 141.5,562.7 116.5,419.7 105.5,419.7 106.5,560.7 97.5,560.7 
		99.5,420.7 87.5,420.7 	"/>
	<line class="st1" x1="74.2" y1="494.7" x2="98.5" y2="494.7"/>
	<line class="st1" x1="73.5" y1="497.4" x2="98.5" y2="497.7"/>
	<line class="st1" x1="106.5" y1="494.7" x2="129.5" y2="494.7"/>
	<path class="st1" d="M129.5,496.7"/>
	<line class="st1" x1="106.5" y1="497.7" x2="129.5" y2="497.7"/>
	<path class="st1" d="M81.5,410.7c0,0-10-30-7-49c8,0,54,0,54,0s2,33-7,48"/>
	<path class="st1" d="M87.2,361.9c0,0-21.7-18.2-24.7-37.2c4,4,6,10,12,14c-2-7-21-48-22-60c5,7,18,42,25,47c-1-7-14-48-12-55
		c3,4,20,42,21,53c0-14-2-33-2-33s9,20,8,35c1-19-1-57,1-60s7,58,12,65c4-10,12-55,26-71c-1,10-16,48-14,61c6-7,12-12,17-14
		c-5,6-20,23-18,27c5-6,13-17,17-19c-2,4-9,14-7,18c8-6,21-19,28-20c-7,8-37,42-39,47l-0.7,2"/>
</g>
<path class="st2" d="M807.5,545.7l59-292l-68,2c0,0,22-90,20-110c19,0,123-4,123-4s4,85,17,109c-53,2-68,3-68,3l61,294l-9,1l-60-293
	v292l-6,1l-3-293l-59,292L807.5,545.7z"/>
<polygon class="st2" points="271,165.2 391,165.2 391,82.2 269,82.2 269,165.2 "/>
<polygon class="st2" points="280.6,155.2 379,155.2 379,93.2 279,93.2 279,155.2 "/>
<polygon class="st2" points="431.7,91.2 531.4,91.2 531.4,22.2 430,22.2 430,91.2 "/>
<polygon class="st2" points="439.7,82.9 521.4,82.9 521.4,31.3 438.3,31.3 438.3,82.9 "/>
<polygon class="st2" points="561.7,182.2 661.4,182.2 661.4,113.2 560,113.2 560,182.2 "/>
<polygon class="st2" points="569.7,173.9 651.4,173.9 651.4,122.3 568.3,122.3 568.3,173.9 "/>
<g>
	<path class="st2" d="M587,509.6c0,0-9.7,8.5-13.4-2.4c-3.6-10.9-3.6-15.8-3.6-19.4s0-3.6,0-3.6s-2.4,4.9-2.4,9.7
		c0,4.9,0,20.7,0,20.7s3.6,8.5,10.3,10.3s12.8,4.3,14-0.6C593.1,519.3,590.6,510.8,587,509.6z"/>
	<path class="st2" d="M542,470.7c0,0-6.1,15.8-10.9,19.4c-4.9,3.6-9.7,3.6-10.9-2.4c-2.4,3.6-6.1,10.9-2.4,14.6
		c3.6,2.4,12.1,1.2,14.6-1.2c0,0,3.6-4.9,6.1-13.4s2.4-7.3,3.6-9.7C543.3,475.6,544.5,470.7,542,470.7z"/>
	<path class="st2" d="M587.6,509c0,0-1.2-17-4.9-20.7c0-8.5-1.2-30.4,0-41.3s6.1-66.8-6.1-74.1c-2.4-4.9-2.4-9.7-3.6-10.9
		s-17-4.9-17-4.9s-12.1,19.4-14.6,27.9c-2.4,8.5-8.5,36.4-8.5,48.6s0,29.2-2.4,32.8s-9.7,14.6-9.7,20.7"/>
	<path class="st2" d="M570.6,483.5c0,0-2.4-15.8-6.1-23.1s-9.7-23.1-9.7-27.9c-3.6,6.1-8.5,20.7-10.9,24.3
		c-1.2,7.3-2.4,8.5-1.2,13.4"/>
	<path class="st2" d="M576.1,372.2c0,0-14.3,59.7-21.4,61.8"/>
	<path class="st1" d="M556,357.1"/>
	<polyline class="st1" points="545.1,345 547.5,345 547.5,360.8 540.2,360.8 	"/>
	<path class="st2" d="M573,362c0,0,8.5-2.4,4.9-7.3s-10.9-6.1-15.8-6.1s-14.6,1.2-14.6,1.2"/>
	<polyline class="st2" points="555.8,357.5 548.7,357.1 547.5,357.1 	"/>
	<path class="st2" d="M588.5,276.2l0.3,12.9l-9.7-4.9l-1.2,3.6c0,0,6.1,4.9,6.1,6.1s2.4,4.9-1.2,7.3c-3.6,2.4-15.8,15.8-17,19.4
		c0-9.7,8.8-45.3,15.3-48.8"/>
	<path class="st2" d="M539,278.2c0,0,1.2,9.7,0,12.1c7.3-2.4,8.5-1.2,8.5-1.2s-2.4,6.1-3.6,7.3c7.3,6.1,19.4,23.1,20.7,29.2
		c-2.4-14.6-6.1-36.4-8.5-40.1c-1.2,1.2-2.4,7.3-3.6,6.1s-8.5-14.6-6.1-18.2c0,0-13.4,7.3-17,8.5s-12.1,7.3-12.1,17
		s-4.9,31.6-4.9,31.6s-6.1,19.4,2.4,24.3c8.5,4.9,25.5,7.3,25.5,7.3s2.4-15.8,4.9-18.2c-4.9-1.2-14.6-2.4-14.6-2.4s-2.4,1.2-1.2-2.4
		s1.2-8.5,3.6-9.7"/>
	<path class="st2" d="M546.3,273.3c0,0,4.9-3.6,7.3-6.1c0,0,2.4,8.5,7.3,10.9c4.9,2.4,9.7-1.2,10.9-2.4s4.9-8.5,4.9-8.5
		c1.2,1.2,4.9,3.6,4.9,3.6c1.2,1.2,3.6,4.9,18.2,9.7c14.6,4.9,14.6,26.7,15.8,32.8s2.4,3.6,2.4,3.6s15.8-8.5,18.2-9.7
		c3.6,3.6,4.9,23.1,4.9,23.1s-14.6,11-23.1,15.9s-9.7,2.4-13.4-1.2c-3.6-3.6-7.3-9.7-7.3-9.7s0,2.4-1.2,10.9s10.9,23.1,10.9,23.1
		s0,1.2-4.9,3.6c10.9,27.9-17.4,36.9-17.4,36.9"/>
	<path class="st1" d="M576.1,267.8"/>
	<path class="st2" d="M576.1,267.8c0,0-1.2-1.2-2.4-3.6c-3.6,6.1-14.6,7.3-18.2,1.2c-1.2,1.2-2.4,2.4-2.4,2.4"/>
	<path class="st2" d="M573.6,264.2c0,0,6.1-7.3,7.3-14.6s2.4-14.6-3.6-19.4c-6.1-4.9-6.1-6.1-6.1-6.1s-4.9,3.6-9.7,4.9
		s-15.8,7.3-14.6,13.4s2.4,13.4,4.9,15.8c2.4,2.4,3.6,7.3,3.6,7.3"/>
	<path class="st2" d="M574.8,262.9c0,0,12.1,5,18.2-6c6.1-10.9,2.4-19.4,2.4-19.4s-3.6,6.1-4.9,6.1c-1.2-7.3,2.4-17-4.9-23.1
		c-7.3-6.1-19.4-13.4-31.6-8.5c-12.1,4.9-21.9,25.5-21.9,25.5s-1.2,3.6-4.9,3.6c0,1.2-1.2,10.9,6.1,15.8s17,6.1,20.7,4.9"/>
	<path class="st1" d="M287.5,443.4"/>
	<polyline class="st1" points="641.1,323.1 641.1,306.1 637.4,307.3 636.2,307.3 	"/>
	<path class="st2" d="M641,316.8c0,0,8-7.7,12.9-7.7s13.4-6.1,14.6-9.7c1.2-3.6,1.2-13.4-6.1-8.5s-10.9,6.1-10.9,6.1l3.6-4.9
		c0,0,0-3.6-3.6,0s-10.3,16.6-10.3,16.6"/>
	<path class="st2" d="M536.6,407c0,0-18.2-8.5-15.8-24.3c0,0,4.7-18.6,0.5-25.1"/>
</g>
<g>
	<path class="st2" d="M443.2,492.6c0,0-3.6,7.3-1.2,13.4c2.4,6.1,1.2,14.6,1.2,14.6h2.4l1.2-13.4c0,0,2.4-1.2,3.6,0s7.3,17,12.1,17
		c4.9,0,19.4,0,19.4,0s1.2-4.9-3.6-7.3c-4.9-2.4-8.5-4.9-8.5-4.9s-4.9,4.9-9.7,0c-4.9-4.9-13.4-18.2-13.4-18.2
		S444.4,492.6,443.2,492.6z"/>
	<path class="st2" d="M462,488.4c0,0,0,8.5,1.2,10.9s2.4,7.3,2.4,7.3h1.2l1.2-7.3c0,0,2.4-1.2,3.6,1.2s6.1,14.6,9.7,15.8
		s17,1.2,18.2,1.2s2.4-3.6-3.6-7.3c-6.1-3.6-3.6-2.4-3.6-2.4s-9.7,2.4-10.9,0c-1.2-2.4-10.9-15.8-12.1-17s-3.6-3.6-3.6-4.9
		S462,484.7,462,488.4z"/>
	<path class="st2" d="M469.3,511.4c0,0-1.6-0.8-3.2-4.7"/>
	<path class="st2" d="M477.8,485.9c0,3.6,14.6,21.9,14.6,21.9"/>
	<path class="st2" d="M464.3,485.2l9.9-69.8l3.6-14.6c0,0,4.9-21.9-17-24.3c-7.3-1.2-9.7-1.2-9.7-1.2s0,6.1-9.7,2.4
		c-9.7-3.6-18.2-7.3-23.1-6.1l-2.4,3.6c0,0-25.5,2.4-29.2-9.7c-3.6,0-17,7.3-19.4,6.1c-2.4-1.2-12.1,21.9,15.8,30.4
		s55.9,7.3,55.9,7.3s-7.3,71.7-2.4,77.8c0,0,12.1,12.1,25.5,2.4"/>
	<path class="st3" d="M465.1,485.3"/>
	<path class="st2" d="M465.1,485.3c0,0,14.6,1.2,17,0c0-4.9,7.3-58.3,8.5-62c1.2-3.6,3.6-18.2,3.6-18.2s3.6-18.2-9.7-25.5
		c-13.4-7.3-27.9-9.7-27.9-9.7s-1.2,2.4-6.1,4.9"/>
	<path class="st2" d="M417.7,371.1c-3.6-4.9,2.4-12.1,2.4-12.1l-29.2-23.1c0,0-3.6-26.7-13.4-43.7c-9.7-17-19.4-1.2-23.1,6.1
		c-3.6,7.3,3.6,25.5,3.6,25.5s9.1,34.6,28.6,41.9"/>
	<path class="st2" d="M419.2,360.2c0,0,9.4,4.9,14.3,4.9s10.9,1.2,19.4,7.3"/>
	<path class="st2" d="M438.3,365l-1.2-2.4c0,0,3.6-8.5,7.3-4.9c3.6,3.6,10.9,7.3,12.1,12.1"/>
	<path class="st2" d="M355.1,298.8c0,0-2.4-4.9-2.4-12.1s2.4-10.9,4.9-14.6c2.4-3.6,2.4-13.4,6.1-17c1.2-6.1,3.6-13.4,4.9-14.6
		s9.7-21.9,15.8-25.5c6.1-3.6,19.4-12.1,32.8-3.6s8.5,15.8,8.5,15.8s-1.2-4.9-4.9-6.1c-3.6-1.2-15.8,1.2-18.2,6.1
		s-6.1,12.1-6.1,12.1s-7.3-4.9-6.1,2.4c1.2,7.3,4.9,8.5,4.9,8.5v8.5c0,0-3.6,10.9-2.4,12.1s2.4,18.2,1.2,21.9
		c-1.2,3.6,4.9,6.1,3.6,10.9c-1.2,4.9,6.1,6.1,3.6,9.7c-2.4,3.6-10.9-4.9-10.9-6.1s-1.2-7.3-3.6-7.3s-6.1-1.2-6.1-1.2"/>
	<path class="st2" d="M437.7,360.8c0,0-4.9-4.9-6.1-4.9s-1.2-21.9-1.2-21.9s12.1,12.1,13.4,23.1"/>
	<path class="st2" d="M393.4,265.8c0,0,9.1,12.4,15.2,11.1s6.1,7.3,6.1,7.3s3.6,2.4,6.1,8.5c2.4,6.1,4.9,8.5,4.9,12.1
		s6.1,9.7,6.1,12.1s0,3.6-1.2,8.5s0,8.5,0,8.5"/>
	<path class="st2" d="M425.6,227.1c0,0,1.2,29.2-2.4,32.8c-3.6,3.6-3.6,7.3-13.4,8.5c-1.2,7.3-1.2,8.5-1.2,8.5"/>
	<path class="st2" d="M424.4,300.6c0,0,3.6-1.8,1.2-9.1c-2.4-7.3-3.6-9.7-2.4-12.1s2-17.2,0.4-19.5"/>
	<path class="st2" d="M366.4,371.9c0,0-11.3-20.9-7.7-48.8"/>
	<path class="st2" d="M420.7,359.6c0,0,6.1-3.6,10.9-3.6"/>
</g>
</svg>
