<?xml version="1.0" encoding="utf-8"?>
<!-- Generator: Adobe Illustrator 21.0.2, SVG Export Plug-In . SVG Version: 6.00 Build 0)  -->
<svg version="1.1" id="Слой_1" xmlns="http://www.w3.org/2000/svg" xmlns:xlink="http://www.w3.org/1999/xlink" x="0px" y="0px"
	 viewBox="0 0 1000 600.1" style="enable-background:new 0 0 1000 600.1;" xml:space="preserve">
<style type="text/css">
	.st0{fill:#2E3131;}
	.st1{fill:none;stroke:#6C7A89;stroke-width:2;stroke-miterlimit:10;}
</style>
<path class="st0" d="M224.2,74.7c0,0,26.2,11.2,24.2,34c-3.2,12.7-4,13.3-4,13.3S239.3,82.3,224.2,74.7z"/>
<path class="st0" d="M384.8,259.5c-5.3,16.5-8.5,28-13.8,70.8s-5.3,63.3-2.8,75s13.8,48.5,13.8,48.5l12.8,30.8l4.1,6.9l4.8-3.5
	C403.8,487.9,390,243,384.8,259.5z"/>
<path class="st0" d="M650.3,491.8c0,0,12.5,15,5.8,30.8c-5.3,9.8-3,11.3-28.5,16C627.5,538.5,658.5,518.5,650.3,491.8z"/>
<path class="st0" d="M512.5,118.7l-31.8-2.7l-7.3,15.2l-4.3,14.2C469,145.3,481.7,118.8,512.5,118.7z"/>
<path class="st0" d="M746.8,392c0,0-10.3,31.8-27,35.8c18.5-0.3,25.5-0.1,25.5-0.1l1.9-1.2L746.8,392z"/>
<path class="st0" d="M794.2,96.8c0,0-1.4,37.7-16.7,40.2c9,0.2,15.7,0.3,15.7,0.3l2.2-2.9L794.2,96.8z"/>
<path class="st1" d="M393.2,508.9l-40-1.2L284.7,575l467.1-0.6l-67.3-66.1l-26.7-0.2c0,0,0.6-31.7-73.7-50.9
	c-62.1-25.5-62.4-28.7-62.4-28.7l3.8-1.5l-23.8-68.5c0,0,8.4,6.7,20.6-1.7c12.2-8.4,62.7-53.4,70.5-76c-2.6-2.3-3.5-3.8-3.5-3.8
	s12.8-13.9,18.9-16.5s24.4-13.3,31-47.9c-0.6-4.4-2.3-6.4-6.1,1.5c-3.8,7.8-17.7,28.4-27.9,29.3c-4.6-1.2-5.2-4.4-2.3-9.9
	s4.6-16-4.6-6.1s-12.2,8.7-16,21.8c-0.5,10.1-1.6,13.6-5.4,16.4c-1.3-0.9-3.3-3.1-3.3-3.1s-28.6,26-39.3,29.9s-18.2,9.5-18.2,9.5
	s-20.5-58.8-26.9-69.4c-0.8-8.1-0.2-10.8-0.2-10.8s10.4,13.7,10.4,5.6c0-8.1-0.8-9.9-0.8-9.9s8.7,9.9,16.1,3.5
	c7.3-6.4,20.9-15.5,19.1-21.7c1.2-3.1,7.3,0.6,7.3,0.6s2.9,2.5,3.5-0.8c0.6-3.3,0.4-20.5,6.4-24.8c2.9-0.8,2.5-4.3,2.5-4.3
	s4.1-9.8,5.1-14.1c1.3,0.5,9.9,5.4,16.8,1.7c-5.4-2.9-13.2-6.9-12.5-24.5c-1.2-7.3-9.1-17.5-9.1-17.5s2.9-1.7,0.1-4.5
	s-9.7-9.6-16.2-12.9c-6.5-3.3-16.1-8-19.9-14.1c-4.1,4.8-14.2,10.3-18.4,12.2S478,109.7,482.1,115c-2.8,4.1-10.4,18.4-12.3,28.9
	c-5.4,8.4-7.3,10.7-7.3,10.7s3.9,5.2,5.5,5.1c-0.6,2.9-1.2,4.9-1.2,4.9s-4.5-4.6-10.6,0.3c-6.1,4.9-15.5,10.9-14.9,16.4
	c-3,1.7-60.7,47.3-66.9,122.3c-7,58-22,89.7,21.7,183.7C392.2,502.1,393.2,508.9,393.2,508.9z"/>
<polygon class="st1" points="700.2,437.8 700.2,456.5 710,450.9 719.7,456.6 719.7,437.4 "/>
<path class="st1" d="M657.7,508.1c0,0,4.8,22.6-15.7,27.3c-20.5,4.6-53.4,7.7-92.8,7.7c-39.5,0-124.2,1.5-124.2,1.5
	s-4.6-11.4-2.3-16.3c-2.9-0.3-23.5,13.3-29.9,18.9c-6.4,5.5-38.9,15.1-23.2,0.6s24.1-25,23.5-38.9"/>
<path class="st1" d="M396.1,487.4l2.6,3.8c0,0,49.9-36.3,63.2-42.6c-0.3-3.2,0.3-14.2,0.3-14.2l10.2,9c0,0,23.8-11,49.3-14.8"/>
<path class="st1" d="M422.7,528.3c0,0,5.8-26.2,17-33.6c4.6,4.6,107.9,17,145.8-1.2"/>
<path class="st1" d="M408,482.7c2.7,1.2,16.2,12.8,29.8,13.2"/>
<path class="st1" d="M489.3,232.5c0,0-16.6-28.8-30.6-26.5c-13.9,2.3-24.4,5.2-23.8,31.9s19.7,100.4,64.4,118.9"/>
<line class="st1" x1="576.8" y1="266.6" x2="589.3" y2="277"/>
<path class="st1" d="M441.3,181.3c0,0,42.2,28.7,47.8,40.3"/>
<path class="st1" d="M468,159.7c0.6-0.3,17.4,5.7,25.5-8.1c8.1-13.7,15.7-18.8,19.5-8.9c-3.7,7.9-5.6,19.5-10.4,19.7
	c-5.4,4.8-17.5,22.9-17.5,22.9c-4.1-7.3-18.6-19.7-18.6-19.7"/>
<path class="st1" d="M497.2,215.3c0,0-22-17.4-12.4-29.2"/>
<path class="st1" d="M558.9,156.5c0,0-9.1-13.7-19.1-13.5c-10.1,0.2-18.2-4.3-23.4,8.3s-26.3,33.1,16.8,48.2"/>
<path class="st1" d="M495.9,149.5c0,0-1,16.1,4.8,14.3"/>
<path class="st1" d="M481.5,115.8c0,0,55.6,6.3,72.5-0.2"/>
<path class="st1" d="M551.6,172.9c0,0-7.7-7.7-14.4-10.3c9.4,2,13.6,4.1,15.4,7"/>
<path class="st1" d="M546.6,175.7c-3.5-0.1-7.8-5.5-7.8-5.5"/>
<path class="st1" d="M284.3,93.4c0,0-13.1-1.9-12.3,12.3s11.2,32.7-16.2,39.7s-39.7,2.3-52.8,13.1c-13.1,10.8-18.5-13.5-18.5-13.5
	s-11.2-9.2,8.9-8.9s24.3,1.5,31.2-4.2c-14.6-1.9-28.1-5-28.1-23.9c-5-9.6-7.7-15.4-6.2-21.6c-1.9-11.2-6.5-17.3-5.8-25
	s1.5-0.8,10.4,2.7s70.9,15,48.9,58.6"/>
<path class="st1" d="M218,68.3c0,0,0-11.9,3.5-18.1c3.5-6.2,7.7-8.1,10.4,3.5c11.6,6.9,21.2,16.2,25.8,25.8"/>
<path class="st1" d="M254.2,92.2c0,0,11.6-22,25,1.5"/>
<path class="st1" d="M212.6,116.1c0,0-11.6-1.5-16.2-8.1"/>
<path class="st1" d="M204.5,95.3c0,0-7.3-1.2-12.7-8.5"/>
<polygon class="st1" points="324.9,189.5 358,248.1 292.9,247.5 "/>
<path class="st1" d="M292.4,209.6c2.2-0.5,66.7,0,66.7,0l-32.5,59.6L292.4,209.6z"/>
<path class="st1" d="M781.3,119.5l0.7-30.2l-6.9-3.6c0,0-1.5-4.7-0.4-4.7s7.3,0,7.3,0l-0.4-24.7c0,0-7.6-4.4,5.1-25.4
	c5.8,6.9,12.7,17.8,8,24.7c-1.1,5.1-1.1,25.1-1.1,25.1h7.6l-0.4,4.7l-6.9,5.1l0.7,46.5H686.9l0.7-46.5c0,0-8.4-3.6-8-4.7
	c0.4-1.1,0-5.1,0-5.1l8-1.8l0.7-21.4c0,0-7.3-11.6-1.1-20s6.2-8.4,6.2-8.4s4,10.2,5.1,12.7c1.1,2.5,4.7,8.7,0.4,14.5
	c0.4,5.8-0.7,22.5-0.7,22.5l7.6,1.1l0.7,4.7l-8,5.1l-0.4,28.3"/>
<path class="st1" d="M716.5,90.3c0,0-10.1-18.8,12.8-27.5c12-7.4,10.6-8.2,11.2-9.3s16.1,8.4,20.4,16.6s6.3,15.8,3.3,21
	c2.5,0.5,4.6,0.3,4.6,0.3l-0.5,10.1l10.6-1.1"/>
<path class="st1" d="M702.3,101.2c1.9,0,10.4-0.3,10.4-0.3V90.6h15"/>
<path class="st1" d="M733.4,90.9c1.1,0.3,30.8,0.3,30.8,0.3"/>
<line class="st1" x1="745.4" y1="100.7" x2="712.7" y2="100.9"/>
<line class="st1" x1="754.1" y1="100.9" x2="768.3" y2="101.5"/>
<path class="st1" d="M732.3,135.6l-0.8-12.5c0,0-1.6-8.7,9.5-8.2c11.2,0.5,9,7.9,9,7.9v12.5"/>
<path class="st1" d="M798.2,311.8v-51.7h-25.6v-17.2h26.1v-22.2h20.2v21.7H842v18.2h-25.6v52.7C816.4,313.3,798.2,310.4,798.2,311.8
	z"/>
<path class="st1" d="M308.9,456.8H201.4V445h8v-34.8h-7l33.3-19.8v-15.8l-8.4-0.8l29.3-27.8l27.6,28h-7.2v15l33.5,21.7h-7.4v32.5
	h5.7C308.9,443.1,309.5,456.2,308.9,456.8z"/>
<line class="st1" x1="255.8" y1="315.6" x2="255.8" y2="347.2"/>
<line class="st1" x1="244" y1="327.9" x2="268.2" y2="327.9"/>
<circle class="st1" cx="256.4" cy="377.8" r="8.6"/>
<path class="st1" d="M231.3,428.4h-10.4v-9.8c0,0-0.3-4.7,4.9-4.6s5.1,3.3,5.1,3.3L231.3,428.4z"/>
<path class="st1" d="M292,428.4h-10.4v-9.8c0,0-0.3-4.7,4.9-4.6s5.1,3.3,5.1,3.3L292,428.4z"/>
<path class="st1" d="M243.6,442.1c0,0-0.7-20.9-0.4-21c0.3-0.1-0.5-10.5,12.7-11.5c13.3-0.9,13.3,11.6,13.3,11.6s0.3,21.1,0.2,21.4"
	/>
<line class="st1" x1="234.3" y1="444.2" x2="278.9" y2="444.2"/>
<path class="st1" d="M694.3,446.7c0,0-8.9-1.1-16,0.4s-6.4-12.1-6.4-12.1s0.4-64.4,0.4-72.2s10.3-6.4,10.3-6.4h64v70.8l-65.6,1.5
	c0,0-9.5,0.7-9.6,7.7"/>
<polyline class="st1" points="726.6,447.6 747.4,447.6 747.1,436.6 "/>
<line class="st1" x1="681.8" y1="364.5" x2="681.8" y2="371"/>
<line class="st1" x1="682.2" y1="378.9" x2="682.2" y2="419.2"/>
<line class="st1" x1="713.5" y1="369.6" x2="713.5" y2="397.4"/>
<path class="st1" d="M703.5,380.8c0.5-0.1,19.6,0,19.6,0"/>
</svg>
