<?xml version="1.0" encoding="utf-8"?>
<!-- Generator: Adobe Illustrator 21.0.2, SVG Export Plug-In . SVG Version: 6.00 Build 0)  -->
<svg version="1.1" id="Слой_1" xmlns="http://www.w3.org/2000/svg" xmlns:xlink="http://www.w3.org/1999/xlink" x="0px" y="0px"
	 viewBox="0 0 1000 600.1" style="enable-background:new 0 0 1000 600.1;" xml:space="preserve">
<style type="text/css">
	.st0{fill:#3A539B;}
	.st1{fill:none;stroke:#6C7A89;stroke-width:2;stroke-miterlimit:10;}
	.st2{fill:none;stroke:#FFFFFF;stroke-width:2;stroke-miterlimit:10;}
	.st3{fill:none;stroke:#3A539B;stroke-width:2;stroke-miterlimit:10;}
	.st4{fill:#3A539B;stroke:#6C7A89;stroke-width:2;stroke-miterlimit:10;}
</style>
<polygon class="st0" points="841.4,336.9 806.9,336.9 786.7,336.9 786.7,292.2 841.4,292.2 "/>
<polygon class="st0" points="812.3,344.8 819.2,336.9 806.8,335.6 805.7,336.7 "/>
<polyline class="st0" points="339.7,137.1 338.7,131.9 392.8,132.7 398.1,132.9 396.9,182.2 373.2,183.1 366,192.4 361.4,182.5 
	338.4,182.4 "/>
<path class="st1" d="M219.3,490.9H464h186.2l-8.2,61h10.7l8.2-57.9l110.7,0.6l-7.5,56.6l10.1,0.6l2.5-6.9l26.5-0.5
	c0,0,2.4-3.1,4.5-1.1c4.5,0.5,7.7,0,7.7,0l15.7-49.1l16.4,18.9c0,0,3.3,8.8-0.5,10.6c-3.8,1.8-8.8,7.7-8.8,7.7s0.4,7.9,9.8,0.1
	c0.6,2.6,8.6,9.2,13.7,1.3c-0.1-5.5-1-5.4-0.1-5.5c0.9-0.1,6.2-0.1,6.2-0.1l1.3,25.8l10.3-0.4v-31.1l9.2-3.8l31,10.3
	c0,0-0.6,8.4,12.6,6c0,0,4-5.7-3.5-8.2H926l-30.4-15.2l-2.3-29.9c0,0,6-1.3,8.2-8.6c14.8-0.4,32.1,0,32.1,0s15.7-3,8.6-25.8
	c-7.2-22.8-7.7-20.6-7.7-20.6s-2.5-6.3-2-14s-0.4-27.2-0.4-27.2s8.6-6.9,1-7.7s-13.7-0.5-13.7-0.5l-2.1-43.3v-0.6
	c0,0,1.6-20.6-22.8-18.4c-6.7-0.1-7.3,0-7.3,0v-13.6c0,0,6.4-6.5,0.1-9.1c-2.4-8.2-0.9-17.7-10.4-18.2c-9.6-0.5-20.6,1-20.6,1
	s-14.2,9.2-2.9,12.1"/>
<path class="st1" d="M870.4,473.2c0.9,0,11.6,0.3,11.6,0.3s2.8,5.4,5,6.3c-0.4,6.3,2.1,29.9,1,30.4l-11.6,3.1L870.4,473.2z"/>
<path class="st1" d="M858.8,454.4l-10.1,0.3v19.5l12.6-0.9L868,517l-4.2,2.1c0,0,2.1-2.3-0.6-5.9c-2.8-3.5-22.9-38.8-22.9-38.8
	s-1-20.8,10.4-20.5"/>
<path class="st1" d="M778.9,544.7c0,0-1.3-4.8,8.4-6.3c10.3-2.3,14.8-2.1,16.7-9.7c1.9-7.5,13.2-56.6,13.2-56.6s1.9-8.8-1-10.3
	c-2.9-1.5-12-16.1-12-16.1s-5-10.1,13.2-16.4c18.2-6.3,35.9-15.7,35.9-15.7l0.4-2.8l-50.6-0.3l0.1,83.3l-21.1,1l-5.7,50.1"/>
<line class="st1" x1="840.5" y1="474.5" x2="831.3" y2="494.4"/>
<line class="st1" x1="853.4" y1="413.7" x2="861.4" y2="473.2"/>
<path class="st1" d="M865,411.6c0.3,0.6,5.4,61.6,5.4,61.6"/>
<path class="st1" d="M933.6,472c0,0,0.1-17-0.9-17c-1,0-62.9-0.4-62.9-0.4"/>
<path class="st1" d="M921.4,454.4c1.5-1.6,9.4-13.2,7.9-28.9c4,5.7,10.7,23.3,10.9,27.9s0,12.2-6,14.5"/>
<path class="st1" d="M868.1,517c0.1,3.6-0.4,10.1-0.4,10.1"/>
<line class="st1" x1="876.5" y1="513.2" x2="879.2" y2="521.4"/>
<line class="st1" x1="848.1" y1="530.9" x2="862.2" y2="520"/>
<path class="st1" d="M819.2,466.3c0,0-1.3-29.3,16.4-33.6c17.6-4.2,19.8-2.5,19.8-2.5"/>
<path class="st1" d="M802,533.8c0.4-0.3,14.1,2.4,16.2,0.9"/>
<path class="st1" d="M849,516.8c0.3-0.4,11.1-4.3,10.7-8.6"/>
<path class="st1" d="M919.4,376.4c0,0,2.6,38.1,7.9,45c-42.1-1.5-50.3,0.3-51-0.3c-0.6-0.4-7.8-3.5-10.9-9.1"/>
<polyline class="st1" points="803.4,410.7 646.8,409.7 646.8,400.3 876.7,402.2 876.5,409.7 853.8,411 "/>
<line class="st1" x1="650.2" y1="490.9" x2="657.8" y2="408.8"/>
<line class="st1" x1="660.9" y1="494" x2="672" y2="409.1"/>
<line class="st1" x1="771.6" y1="494.6" x2="781.7" y2="411.3"/>
<path class="st1" d="M782.3,495c-0.4-1,11.1-84.7,11.1-84.7"/>
<path class="st1" d="M902.5,314.3c0,0-10.1,1-16.6,28.7s-4.8,23.5-4.8,23.5s-5.4,11.1-11.3,15.7c6.3,3.4,9.2,5.9,10.4,11.1
	c7.9-2.9,13.5-3.8,19.8-16.6c6.3-12.8,17.6-29.3,17.2-42.5"/>
<path class="st1" d="M870.8,383.5c0,0-7.2,4.7-12.3,6.3c-5.3,1.6-17.6,2.1-17.6,2.1l-0.4,7.4"/>
<path class="st1" d="M863.5,400c0,0,11.7-3.4,15.5-6.9"/>
<polyline class="st1" points="855.1,389.3 860,378.3 862,386.2 862.6,387.7 "/>
<line class="st1" x1="855.7" y1="327.5" x2="860" y2="378.3"/>
<polyline class="st1" points="803.1,356.6 774.8,356.9 784,399.4 865.1,400 "/>
<line class="st1" x1="836.7" y1="391.6" x2="836.4" y2="398.1"/>
<path class="st1" d="M868.7,314.6c0,0,16.9,0.8,18.5-0.5"/>
<path class="st1" d="M886.5,308.3c-4.3,3.9-18.7,1.9-18.7,1.9s-10.6-1.8-14.6-23.9c0,0,5.9-6.7,8.1-4.3c2,4.4,10.2,1.8,14,0.5
	c3.5,2.3,5.5-0.9,5.9,3.9c0.5,8.1,6,4.9,6,4.9"/>
<polyline class="st1" points="188.3,212.8 184.7,486.5 219.3,490.9 "/>
<path class="st1" d="M772.8,233.9c1.6-0.8,30.6,0,30.6,0v22.8"/>
<polyline class="st1" points="741.7,233.8 347.7,233.8 347.7,491.5 "/>
<polyline class="st1" points="803.5,338.2 786.1,338.2 786.1,292.4 803.5,292.4 "/>
<circle class="st1" cx="807.9" cy="377.4" r="4.3"/>
<path class="st2" d="M821.5,304.9c-0.5,0.4-14,21.1-14,21.1"/>
<polyline class="st2" points="806.8,307.5 797.2,312.7 804.7,317.6 "/>
<polyline class="st2" points="823.6,313.7 830,319.2 820.3,323.3 "/>
<polyline class="st1" points="789,447.8 789,480.2 784.5,480.2 "/>
<line class="st1" x1="773.3" y1="479.5" x2="663.8" y2="479.5"/>
<polyline class="st1" points="650.9,479.9 393.6,479.9 393.6,269.7 791.2,269.7 791.2,292.3 "/>
<line class="st1" x1="790.1" y1="338.6" x2="790.1" y2="356.6"/>
<line class="st1" x1="346.4" y1="250.6" x2="803.1" y2="250.6"/>
<circle class="st1" cx="356.3" cy="242.5" r="2.3"/>
<circle class="st1" cx="370.2" cy="242.5" r="2.3"/>
<circle class="st1" cx="384" cy="242.5" r="2.3"/>
<circle class="st1" cx="197.8" cy="155.7" r="2.3"/>
<circle class="st1" cx="211.7" cy="155.7" r="2.3"/>
<path class="st1" d="M867.8,310.2c0.4,3.5,0.4,4.3,0.4,4.3s-14.1,8.6-16.1,19.9c-2.1,11.4-11.1,57.5-11.1,57.5l-4.2-0.4l-0.6-34.6
	l-33-0.4l0.4-18.5l3.5-0.3c0,0,5.3,6.9,5.9,6.5c0.6-0.4,5.7-7.3,5.7-7.3h18h4l0.6-44.9l-37.7-0.4l0.3-35.2l6.7-1l0.4,12.5l23.3-0.6
	c0,0,1-7.4,1.6-7.4s12-4.2,12.1-3.3s7.4,11.1,7.4,11.1l20.8-10.6c0,0-6-7.9-5.4-8.3c0.6-0.4,10.8-9.4,10.8-9.4l7.9,6.3l13.2-17.7
	c0,0-10.4-8.2-10.2-8.8c0.3-0.6,5-12.5,5-12s15.7-0.1,15.7-0.1l-0.6-22.4l-12,0.5l-1.3-12.6l12-8.2l-9.8-17.6l-13.8,5.4l-7.9-9.9
	l9.8-10.7c0,0-16.9-15.5-16.4-15.2c0.5,0.3-9.2,9.6-9.2,9.6l-10.7-1.8l0.6-16.7l-23.3-0.5l-1.4,13.2l-12.6,0.1l-1-9.9l-26.2,5.4
	l4.5,13l-11.1,8.1l-8.9-6.4l-13.3,16.4l9.6,8.8l-5.2,8.9l-13.6,0.6l-1,24.7l13.3,1.8l-1.6,10.7l-10.4,6.3l8.2,20.5l10.8-3.3l1.9,8.3
	l-31.1-0.1l1.3-8.6l-18.6-9.8c0,0-3.4-19.2-2.8-19.2c0.6,0,17.9-7.9,17.9-7.9l-8.2-33.3l-26.7,0.4l-7.2-16.1l13.6-16.6l-26.4-24.9
	l-17.9,13.2l-16-7.3c0,0,6.3-25.5,6-24.5s-38.6-13.5-39-12.6c-0.4,0.9-10.1,26.8-10.1,26.8l-14.2,2.5c0,0-7.9-27.3-7.9-26
	c0,1.3-40.9,13.2-40.9,13.2l6.9,23l-16,9.8c0,0-18.2-15.5-19.2-14.8c-1,0.6-26.4,26-26.4,26s11.7,14.7,11.7,15.3
	c0,0.6-2.3,7.9-2.3,7.9H397.5v-18h-58.3v17.2L192.4,147c0,0-4.4-0.9-4.2,5.3c0.3,6,0,60.6,0,60.6s-43.2,1.8-41.3,3
	s4.4,25.2,4.4,25.2l-16.4,8.2l-16.4-17c0,0-34.6,24.5-32.7,25.2c1.9,0.6,14.5,19.5,14.5,19.5l-11.3,14.5c0,0-20.8-6.3-20.8-4.4
	c0,1.9-16.4,37.1-16.4,37.1l21.4,10.1l-3.1,18.9l-17.6,1.3l2.5,42.8l24.5-2.5L86,411l-14.5,16.4L96,455.6l16.4-6.3l17.6,13.8
	l-12.6,14.5l32.1,18.9l14.5-17l20.8,6.9"/>
<rect x="269.4" y="270.4" class="st1" width="36.9" height="4.7"/>
<rect x="269.4" y="283" class="st1" width="36.9" height="4.7"/>
<rect x="269.4" y="296.9" class="st1" width="36.9" height="4.7"/>
<rect x="269.4" y="309.4" class="st1" width="36.9" height="4.7"/>
<circle class="st1" cx="225.5" cy="155.7" r="2.3"/>
<rect x="424.7" y="321.3" class="st0" width="62" height="4.7"/>
<rect x="424.7" y="328.8" class="st0" width="93.1" height="4.7"/>
<rect x="424.7" y="337.6" class="st0" width="66.8" height="4.7"/>
<rect x="424.7" y="360.3" class="st0" width="62" height="4.7"/>
<rect x="424.7" y="367.8" class="st0" width="93.1" height="4.7"/>
<rect x="424.7" y="376.6" class="st0" width="66.8" height="4.7"/>
<rect x="424.7" y="400.5" class="st0" width="62" height="4.7"/>
<rect x="424.7" y="408.1" class="st0" width="93.1" height="4.7"/>
<rect x="424.7" y="416.9" class="st0" width="66.8" height="4.7"/>
<path class="st0" d="M871,186.4c0,22.3-18,40.3-40.3,40.3c-22.3,0-40.3-18-40.3-40.3s18-40.3,40.3-40.3
	C853.1,146.1,871,164.1,871,186.4z M830.8,132.3c-29.8,0-54.1,24.3-54.1,54.1s24.3,54.1,54.1,54.1c29.8,0,54.1-24.3,54.1-54.1
	S860.6,132.3,830.8,132.3z"/>
<polyline class="st1" points="499.3,150.3 539.3,150.3 539.3,233.6 "/>
<path class="st1" d="M551.2,233.9c0,0-14.8-46.3,29.6-68.6c44.4-22.3,73.3,19.2,74.6,27.7c0,0,8.8,16.1,7.3,40.9"/>
<path class="st3" d="M600.3,369.2c0,0,28.9-22.6,50.3-10.7c21.4,12,54.1-3.1,54.1-3.1s21.4-41.5,38.1-45.7
	c16.7-4.2,24.9-7.5,24.9-7.5"/>
<path class="st3" d="M600.9,381.8c1-0.4,65.2-32.1,85.3-35.9s59.8-1.3,76.1-17.4"/>
<circle class="st0" cx="652.5" cy="358.8" r="4.8"/>
<circle class="st0" cx="712.3" cy="344" r="5.4"/>
<path class="st4" d="M347,292.7c0,0-12.6-7.5-12.3-8.2c0.3-0.6,0-16.4,0-16.4h-54.5v45.5h52.5l2.1-0.3v-17.2L347,292.7z"/>
<line class="st2" x1="312.7" y1="278.9" x2="304.6" y2="300.2"/>
<polyline class="st2" points="300.9,284.1 293.2,290.6 300.2,296.7 "/>
<path class="st2" d="M316.6,285.2c0.6,0.6,6.5,7.5,6.5,7.5l-7.5,5.3"/>
<path class="st1" d="M189.1,165.6h149.7V182h22.6l4.8,9.4l7.5-9.2h23.9l-0.4-17.4l141.3,1.3c0,0,21.8-34.6,67.3-33.7
	c45.5,0.9,70.8,30.6,77.1,51.6s8.6,36.2,7.9,47.8"/>
<path class="st2" d="M361.9,144.1c0,0-5.7-1.3-5.5,6.2c0.1,7.4-4.5,7.3-4.5,7.3"/>
<path class="st2" d="M361.9,171.2c0,0-5.7,1.3-5.5-6.2s-4.5-7.3-4.5-7.3"/>
<path class="st2" d="M373.2,144.1c0,0,5.7-1.3,5.5,6.2c-0.1,7.4,4.5,7.3,4.5,7.3"/>
<path class="st2" d="M373.2,171.2c0,0,5.7,1.3,5.5-6.2s4.5-7.3,4.5-7.3"/>
<line class="st1" x1="339.4" y1="149.5" x2="338.9" y2="167.3"/>
<line class="st1" x1="397.5" y1="150.9" x2="397.2" y2="166"/>
<rect x="217.8" y="191.2" class="st1" width="71.3" height="4.7"/>
<rect x="217.8" y="203.7" class="st1" width="36.9" height="4.7"/>
<rect x="269.4" y="203.7" class="st1" width="36.9" height="4.7"/>
<rect x="321" y="203.7" class="st1" width="36.9" height="4.7"/>
<rect x="372.6" y="203.7" class="st1" width="58.1" height="4.7"/>
<rect x="217.8" y="217.6" class="st1" width="36.9" height="4.7"/>
<rect x="269.4" y="217.6" class="st1" width="36.9" height="4.7"/>
<rect x="217.8" y="230.2" class="st1" width="36.9" height="4.7"/>
<rect x="269.4" y="230.2" class="st1" width="36.9" height="4.7"/>
<rect x="217.8" y="244" class="st1" width="36.9" height="4.7"/>
<rect x="269.4" y="244" class="st1" width="36.9" height="4.7"/>
<rect x="217.8" y="256.6" class="st1" width="36.9" height="4.7"/>
<rect x="269.4" y="256.6" class="st1" width="36.9" height="4.7"/>
<rect x="217.8" y="270.4" class="st1" width="36.9" height="4.7"/>
<rect x="217.8" y="283" class="st1" width="36.9" height="4.7"/>
<rect x="217.8" y="296.9" class="st1" width="36.9" height="4.7"/>
<rect x="217.8" y="309.4" class="st1" width="36.9" height="4.7"/>
<rect x="217.8" y="323.3" class="st1" width="36.9" height="4.7"/>
<rect x="269.4" y="323.3" class="st1" width="36.9" height="4.7"/>
<rect x="217.8" y="335.9" class="st1" width="36.9" height="4.7"/>
<rect x="269.4" y="335.9" class="st1" width="36.9" height="4.7"/>
<rect x="217.8" y="349.7" class="st1" width="36.9" height="4.7"/>
<rect x="269.4" y="349.7" class="st1" width="36.9" height="4.7"/>
<rect x="217.8" y="362.3" class="st1" width="36.9" height="4.7"/>
<rect x="269.4" y="362.3" class="st1" width="36.9" height="4.7"/>
<rect x="217.8" y="376.1" class="st1" width="36.9" height="4.7"/>
<rect x="269.4" y="376.1" class="st1" width="36.9" height="4.7"/>
<rect x="217.8" y="388.7" class="st1" width="36.9" height="4.7"/>
<rect x="269.4" y="388.7" class="st1" width="36.9" height="4.7"/>
<rect x="217.8" y="402.5" class="st1" width="36.9" height="4.7"/>
<rect x="269.4" y="402.5" class="st1" width="36.9" height="4.7"/>
<rect x="217.8" y="415.1" class="st1" width="36.9" height="4.7"/>
<rect x="269.4" y="415.1" class="st1" width="36.9" height="4.7"/>
<rect x="217.8" y="429" class="st1" width="36.9" height="4.7"/>
<rect x="269.4" y="429" class="st1" width="36.9" height="4.7"/>
<rect x="217.8" y="441.5" class="st1" width="36.9" height="4.7"/>
<rect x="269.4" y="441.5" class="st1" width="36.9" height="4.7"/>
<rect x="217.8" y="455.4" class="st1" width="36.9" height="4.7"/>
<rect x="269.4" y="455.4" class="st1" width="36.9" height="4.7"/>
<rect x="321" y="217.6" class="st1" width="36.9" height="4.7"/>
<rect x="372.6" y="217.6" class="st1" width="58.1" height="4.7"/>
<path class="st0" d="M186.4,417.9c-18,2.5-60.1-22.6-50.1-67.1s51-47.6,51-47.6 M187.2,273.8c0,0-62.9,10.1-74.6,76.4
	s50.3,93.1,72.1,90.2"/>
</svg>
