<?xml version="1.0" encoding="utf-8"?>
<!-- Generator: Adobe Illustrator 21.0.2, SVG Export Plug-In . SVG Version: 6.00 Build 0)  -->
<svg version="1.1" id="Слой_1" xmlns="http://www.w3.org/2000/svg" xmlns:xlink="http://www.w3.org/1999/xlink" x="0px" y="0px"
	 viewBox="0 0 1000 600.1" style="enable-background:new 0 0 1000 600.1;" xml:space="preserve">
<style type="text/css">
	.st0{fill:none;stroke:#6C7A89;stroke-width:2;stroke-miterlimit:10;}
	.st1{fill:none;stroke:#6C7A89;stroke-miterlimit:10;}
	.st2{fill:#59ABE3;}
	.st3{fill:#6C7A89;}
	.st4{fill:none;stroke:#FFFFFF;stroke-width:2;stroke-miterlimit:10;}
</style>
<path class="st0" d="M532.5,514.7c0,0-54.6-1.4-61.3-13.4s13-32.7,35.8-37.1c1.4-2.7,2.7-28.2,2.7-28.2s-159.4-27.3-170.1-165.2
	S443.4,91.7,504.3,86.3"/>
<path class="st0" d="M529.8,514.4c0,0,36.9,3.3,53.8-12.8c16.9-16.1,6-30.2-14.1-34.3c-20.2-4-27.6-3.3-27.6-3.3l-0.7-26.9
	c0,0,77.2-16.7,95.3-32.9"/>
<path class="st0" d="M507,464.1c0,0,18.1,49.2,35,2.3"/>
<path class="st0" d="M503.6,498.5c0,0,25.5,18.1,45.7-3.3"/>
<path class="st0" d="M509.6,435.9l2.4-27.3c0,0-6.9-1.5-17.7-4.6c-29.2-8.5-85.8-29.2-101.5-64.6c-21.5-48.3-42.9-115.5,4-163.1
	s96-69.1,153.1-55C607,135.4,658.7,189,658,235.4s24.1,108.1-44.3,142.4c0,0-43.6,31.1-75.9,32.6l3.3,29.2"/>
<line class="st0" x1="601.4" y1="386.2" x2="620.7" y2="414.8"/>
<line class="st0" x1="614.4" y1="374.1" x2="631.8" y2="408.1"/>
<path class="st0" d="M504.3,112.7c0,0-9.8-31.3,10.7-31.3c20.6,0,13.4,31.3,13.4,31.3"/>
<path class="st1" d="M532.5,119.9c0,0-47,20.8-30.2,34.3c16.7,13.4,19.5,18.1-0.7,26.9c-20.2,8.8-31.6,22.8,17.4,13.4
	c49-9.5,73.8,0.7,49,11.4c-24.8,10.7-50.3,22.2-33.6,28.2c16.7,6,16.7,14.8,16.7,21.5s10.7,22.8,26.2,4s22.8-23.5,24.8-1.4
	c2.1,22.2,26.2,36.2,19.5,1.4c-6.7-34.9-7.4-39,10.7-36.9c18.1,2.1,23.5-3.3,23.5-3.3"/>
<path class="st1" d="M393.5,178.9c0,0,18.8-15.5,35,2.1c16.2,17.5-12.1,33.6-12.1,33.6s14.8,13.4-0.7,25.5
	c-15.5,12.1-29.5,22.2-20.8,35.5s-11.4,44.3-11.4,44.3"/>
<path class="st1" d="M397.5,351.5c0,0,36.2-21.5,47-23.5c10.8-1.9,30.9-23.5,26.9,7.4c8.1,9.5-0.7,12.1,14.8,15.5
	c15.5,3.3,11.4,10.7,9.5,22.8c-1.9,12.1,12.1,10.7,30.9,12.1s31.6,20.2,31.6,20.2"/>
<path class="st1" d="M660.8,302.5c0,0-24.1,0.7-25.5,17.4c-1.4,16.7-6,22.2-15.5,29.5c-9.5,7.4-9.5,29.5-9.5,29.5"/>
<path class="st0" d="M537.9,410.2c0,0-22,0.3-32.5-3.2"/>
<path class="st0" d="M158.8,174.2l6-58.1c0,0,1.7-2.3,8-3.6c6.3-1.4,56-10.8,59.5-9.9C226.3,108.3,158.8,174.2,158.8,174.2z"/>
<path class="st0" d="M177.9,123.1c-0.3,2.1-4.3,26-3.6,25.1c0.8-0.9,32.1-28.7,31.1-28.5C204.6,119.9,177.9,123.1,177.9,123.1z"/>
<line class="st1" x1="168.5" y1="129.5" x2="163.1" y2="129.6"/>
<line class="st1" x1="171.2" y1="134" x2="163.1" y2="134.5"/>
<line class="st1" x1="167.9" y1="138.8" x2="162.7" y2="138.8"/>
<line class="st1" x1="169" y1="144.5" x2="162" y2="145.3"/>
<line class="st1" x1="166.8" y1="148.8" x2="161.2" y2="149.5"/>
<line class="st1" x1="167.2" y1="154.2" x2="161.1" y2="154"/>
<line class="st1" x1="172.8" y1="112.5" x2="172.8" y2="118.3"/>
<line class="st1" x1="178.8" y1="111.4" x2="179.1" y2="116.4"/>
<line class="st1" x1="183.2" y1="111.1" x2="183.6" y2="116.6"/>
<line class="st1" x1="189" y1="109.8" x2="188.9" y2="113"/>
<line class="st1" x1="194.6" y1="108.5" x2="194.1" y2="114.6"/>
<line class="st1" x1="200.1" y1="107.9" x2="199.6" y2="112.8"/>
<line class="st1" x1="203.7" y1="106.8" x2="203.8" y2="113.1"/>
<path class="st1" d="M210.4,105.8c0,0.5-0.5,3.9-0.5,3.9"/>
<path class="st1" d="M215.5,104.6c-0.1,0.7-0.6,6.8-0.6,6.8"/>
<path class="st1" d="M219.7,104.5c-0.6,0.9-0.7,4.1-0.7,4.1"/>
<line class="st1" x1="223.7" y1="104" x2="223.6" y2="108.5"/>
<path class="st0" d="M667.4,111.4c0,0-4.9-10.3,6.3-16.5s40.8-24.3,40.8-24.3l15.4-9.1c0,0,25.1-2.8,18.6,11.4
	c-7.7,11.4-17.1,16.3-17.1,16.3l-41,25.1C690.1,114.2,678.2,130.2,667.4,111.4z"/>
<path class="st0" d="M673.6,94.8c0,0-25.4-1.4-18.2-18.2c0,0,2.8-9.3,13.7-7.1s80.6,22.8,80.6,22.8s11.4,4.8,4.9,16.3
	c-6.5,11.6-21.3,3.2-21.3,3.2L673.6,94.8z"/>
<path class="st0" d="M674.5,54.8c0,0,3.4-22,15.7-14c8.2,11.4,40.4,62.6,40.4,62.6s17.1,19.9,8.9,24.7s-14.5,11.2-30.8-15.7
	C692.7,85.4,674.8,61.2,674.5,54.8z"/>
<path class="st0" d="M703.8,88c0,0,3.4-6,8.5-1.7s-1.5,6.8-1.5,6.8S701.9,97.9,703.8,88z"/>
<path class="st0" d="M798.6,334c0,0,16.9,3.4,22,2.3"/>
<path class="st0" d="M800.9,326.9l-0.2-17.3c0,0-14-5.4-2.3-8.8s23.6-0.9,24.7,4.8c-3.4,4.2-5.1,4-5.1,4l2.1,18.6"/>
<path class="st0" d="M799.7,309.8c0,0,11.4,2.5,18.2-0.2"/>
<path class="st0" d="M898,333.5l0.3,2.4c1.3,5.8,0.9,4.1,13.1,7.3s13.7-6.6,13.1-10.6s-1.7-4-4.3-3.4c-2.6,0.6-16.9-1.1-17.4-4
	C897.7,324.6,898,333.5,898,333.5s-65.5-0.6-70.1,0.3c-2.6,2.3-7.4,2.6-7.4,2.6s8.9,24.3,13.4,30.8c4.6,6.5,5.5,10.3-1.7,15.4
	c-7.2,5.1-40.2,2.3-45.3,0.6c-5.1-1.7-2.6-14.2,2.1-23.1c4.7-8.9,9.7-26,9.7-26s-17-11.6,1.3-7.7c0,0,15.9,2.8,19.1,2.1
	s11.7-2.3,8.9,5.5"/>
<path class="st0" d="M896.1,257.4c0,0-18.6-1.1-21.4,0.3c-0.6,4.2-8.9,3.4-8.9,3.4c1.4,27.6-8.2,25.6-12.8,27.7
	c-16.2-0.9-9.9-28.1-9.9-28.1s-9.5-0.8-9.9-4c-0.3-3.2-0.2-8.2-0.2-8.2s7.7,5.7,9.7,3.2c0.8-9.7,3.6-25.1,1.5-28.2
	c-3.8-2.6-9.9-12.5,7.7-13.4c17.7-0.9,22,3.1,14,11.2c-0.2,5.4-0.2,30.8-0.2,30.8l6.6-0.8"/>
<path class="st0" d="M871.8,251.3c0,0,4-0.9,2.4,6.4"/>
<path class="st0" d="M842.8,261.1c0,0,18.6,1,23.4,0.2"/>
<path class="st0" d="M842.3,252.3c0,0,19.5,0.9,23.6-0.2"/>
<path class="st0" d="M844.6,223.9c0,0,18.6,2.4,21.4-1.4"/>
<path class="st0" d="M847.8,216.9c0,0,7.3-4.7,12.5-0.5C858.5,218.9,852.1,222.5,847.8,216.9z"/>
<path class="st2" d="M846.8,265.7c0,0-0.9,16.3,6,15.8c0,0,10.5,4.6,9.6-15.1C857.2,265.9,846.8,265.7,846.8,265.7z"/>
<path class="st0" d="M895.6,256.8c0,0,3-9.8,7.9-7.5c2.1,3.6,12.9,3.9,16.4,2.4c1.7-0.5,8.2,5.1,0.3,11.4
	C910.9,263.8,897.5,267.6,895.6,256.8z"/>
<path class="st0" d="M916.2,344.3l-1.1,54.1l11.2,0.3c0,0,8.5,11.2-0.2,12.3l-58.3-0.2c0,0-10.5-6.5,0.2-11.2l34.5-0.8l0.3-57.5"/>
<line class="st0" x1="902.8" y1="325.2" x2="902.8" y2="264.2"/>
<line class="st0" x1="915.9" y1="264.8" x2="916.5" y2="329.1"/>
<path class="st0" d="M903.9,250.9l1-64.4c0,0,0.9-3.4,2.6-4s7.2,1.1,8.3,3.2"/>
<line class="st0" x1="917.4" y1="252.6" x2="916.2" y2="184.3"/>
<line class="st0" x1="905.5" y1="186.5" x2="916.1" y2="186.8"/>
<path class="st2" d="M797.8,351.2c0,0-2.7,13.1-4.3,16.4c-1.6,3.3-3.9,9,5.2,10s22.7,0.5,26.7-2.1c4-2.5,3.3-6,0.6-9.7
	c-2.7-3.6-6.7-11.5-6.6-14.1s-2.6-0.5-6.2-1.1C809.6,350,796.1,347,797.8,351.2z"/>
<path class="st0" d="M132.1,517.3c0,0,4.6-5.2-4.2-4.7s-30.2,4.8-30.2,4.8l-12.1-4.3L78,529.4l20,8.9c0,0,4.1-10,4.3-9.6
	c0.2,0.5,5.2,3.3,5.2,3.3l7.7,0.7l-3.5,9.9l18.6,9.1l8.2-12.5c0,0,16.6-3.5,20.4-2.7c3.8,0.8,11.2,5.5,3.2,8.9"/>
<polyline class="st0" points="97.6,517.9 105,521.3 102.4,528.7 "/>
<path class="st0" d="M138.6,538.7c0,0,2.2-3.1-0.9-4.7c-3.2-1.6-17.2-6.7-17.2-6.7s-2.4-1.9-5,5.5"/>
<path class="st1" d="M122.1,536.1c0,0-2.5-1.7-0.3-3c2.1-1.3,2.7-1.6,4.4,0.2C127.9,535.2,125.4,536.3,122.1,536.1z"/>
<path class="st1" d="M86.8,522.1c0,0,3.2-1,3.2-2.3c0-1.3-0.8-1.7-2.2-1.6c0,0-3.3,1-2.6,2.2C86,521.5,84.8,522.2,86.8,522.1z"/>
<path class="st0" d="M276.1,529.4c0,0,0-6-5.1-4.2c-5.1,1.9-5.5,6-2.3,8.8c3.2,2.6,9.9,7.4,5.4,10.8c-4.6,3.4-9.1,1.4-10-4"/>
<line class="st0" x1="284.7" y1="526.8" x2="283.3" y2="545.7"/>
<path class="st0" d="M284.7,517.1"/>
<circle class="st1" cx="286" cy="518.3" r="1.4"/>
<line class="st0" x1="294.1" y1="543.9" x2="295.1" y2="524.8"/>
<path class="st0" d="M305.5,544l-0.3-16.7c0,0-4.2-7.2-10.3,1.5"/>
<line class="st0" x1="320.5" y1="532.8" x2="329.1" y2="543.9"/>
<line class="st0" x1="320.5" y1="544.5" x2="329.3" y2="533"/>
<path class="st0" d="M340.2,532.2c0.8-0.2,8.3-1.9,10-0.9"/>
<path class="st0" d="M341.6,537.9c0.8-0.2,12.2-0.9,12.2-0.9"/>
<path class="st0" d="M370.3,530.8c0,0,5.1-0.9,8.8-7.6c-4,12.5-3.8,15.4-3.8,15.4"/>
<path class="st0" d="M362.7,545.3c0.6,0.2,27.6-1.1,30.8-2.5"/>
<path class="st0" d="M362.5,561.6l4,9.3c0,0,5.1-13.7,5.4-18.5c5.5-2.6,13.4-4,13.4-4"/>
<path class="st0" d="M380.7,555.9c0,0,3.6-5.9,5.1-0.8c1.5,5.1-8.2,12.2-8.2,12.2l9.7-1.1"/>
<path class="st0" d="M752.2,572.7l-20.4-20.6l-29.6,3.2c0,0-4.6-0.3-1.8-8c2.7-7.7,16.3-49.9,16.3-49.9l64.9-17.2c0,0,6-3.3,4.4,1.8
	s-0.9,6.6-0.9,6.6s20,13.7,22.1,17.7c3.5,0.7,6.4,0,10.9,5.1c4.6,5.1,16.4,19.4,16.4,19.4l-6.7,0.9l0.9,6.7c0,0-22.9-18.8-24.6-26
	c-4.3-4.7-20.4-18.9-20.4-18.9l-3.2,15.3l19.4,21.5l-16.3,27.6L752.2,572.7z"/>
<path class="st0" d="M731.8,552.1c0,0,27.7-7.3,35.2-6.6c4.3-11.7,13.6-36.9,13.6-36.9"/>
<path class="st0" d="M783,495.4l-35.4,19.9c0,0-4.3,5.6-8.7,6.9c-4.3,1.4-9.2-1.3-5.8-5.8c3.4-4.6,7.4-5.5,11.7-4.1
	c5.1-3.8,40.4-23.9,40.4-23.9"/>
<path class="st2" d="M294.1,208.5l8,2.7l7.2-1.3l2.7-3.2l-5.2-4.3l-6.8-2.8c0,0-3.9,1-4.1,1.5c-0.2,0.5-3.9,5.1-3.9,5.1L294.1,208.5
	z"/>
<path class="st0" d="M267.3,214c0,0-18.1,2.8-19.1,13.7c-1,10.8,2.2,19.5,2.2,19.5s12.1,15.8,25.4,10.7s19.9-12.3,20.3-19.5
	c0.3-7.2,1.7-17-5.8-20.3c-7.5-3.3-12.4-3.3-12.4-3.3s10.4-18.1,15.5-18.8c-0.5-3.9-15.7-4.1-18.1,16.4
	C274.3,214.1,267.3,214,267.3,214z"/>
<path class="st0" d="M255.2,233.8l3.5-0.1c0,0,5-2.3,6-7.2c1-4.9-4.9-5.7-7.3-2.7S255.2,233.8,255.2,233.8z"/>
<path class="st0" d="M284.8,204.9l6.5-0.3l1-0.1c0,0,5.5-8.7,12.4-3.5c6.9,5.1,7.3,6.6,7.3,6.6s-3.3,5.8-12.3,3.2
	c-9-2.6-8-5.5-8-5.5"/>
<path class="st1" d="M300.9,205.7c0,0-6.3-2.4-8.5-1.3"/>
<line class="st0" x1="274.7" y1="213.1" x2="277.7" y2="214.9"/>
<circle class="st2" cx="668.2" cy="115.9" r="8.5"/>
<circle class="st2" cx="701.3" cy="53.6" r="6.5"/>
<circle class="st2" cx="747.9" cy="75.7" r="6.8"/>
<circle class="st2" cx="716.7" cy="120.9" r="6.6"/>
<path class="st2" d="M451.2,240.1c-5.4,3.1-14.1,28.2-14.1,28.2s-5.4,0.3-0.7,11c4.7,10.7,14.1-0.7,14.1-7.4s0.3-10,7.4-22.2
	C465,237.7,456.6,237,451.2,240.1z M445.5,273.3c0,0-3.3,2.7-4.3,3.1s-0.7-2.7-0.7-2.7l3.1-7.1l4,0.7L445.5,273.3z"/>
<polygon class="st0" points="280.1,120.5 358.7,69.6 371,86.9 292.6,136.4 "/>
<path class="st0" d="M292.6,111.4c0,0-17.4-36.1-1.7-46.1s43.6-11.7,56.7,10.6"/>
<path class="st0" d="M302.7,107.1c0,0-4.9-23.1,3.4-27.3c8.3-4.2,20.8-7.4,26.2,6"/>
<line class="st1" x1="289.2" y1="123.1" x2="298" y2="133.3"/>
<line class="st1" x1="297.2" y1="125.4" x2="301.2" y2="131"/>
<path class="st1" d="M298.3,117.1c0.6,0,8,10.5,8,10.5"/>
<path class="st1" d="M305.7,118.4c0.6-0.2,5.9,6.8,5.9,6.8"/>
<line class="st1" x1="309.5" y1="111.4" x2="316.8" y2="120.5"/>
<line class="st1" x1="318.5" y1="110.8" x2="323.2" y2="117.1"/>
<path class="st1" d="M321.9,103.2c1.4,0,8.3,10,8.3,10"/>
<path class="st1" d="M330.6,104.2c0.6,0.3,3.8,5.4,3.8,5.4"/>
<path class="st1" d="M333.3,95.8c0.9,1.1,6.8,10.3,6.8,10.3"/>
<path class="st1" d="M340.7,96.9c0.8,0.9,4.8,5.9,4.8,5.9"/>
<line class="st1" x1="343.9" y1="89.9" x2="351.1" y2="99.4"/>
<path class="st1" d="M352.2,90.3c0.8,0.8,4.9,6.5,4.9,6.5"/>
<path class="st1" d="M355.8,81.7c0.9,0.9,7.6,10,7.6,10"/>
<path class="st1" d="M364.4,83.7c0.2,0.6,3.8,5.5,3.8,5.5"/>
<line class="st1" x1="289.2" y1="103.2" x2="292.9" y2="100.8"/>
<path class="st1" d="M287.2,96c0.6-0.3,5.7-2.3,5.7-2.3"/>
<line class="st1" x1="285.5" y1="87.7" x2="289.2" y2="89.4"/>
<line class="st1" x1="284.7" y1="79.7" x2="290.7" y2="81.7"/>
<line class="st1" x1="286" y1="72.1" x2="293.8" y2="77.2"/>
<line class="st1" x1="290.9" y1="65.2" x2="293.5" y2="70.4"/>
<line class="st1" x1="295.5" y1="63.5" x2="299.1" y2="69"/>
<path class="st2" d="M151.7,389.1c0,0,2.1,9.7,2.1,10c0.1,0.3,7.5,7.9,7.5,7.9l9.3,7.2l12.2,1.5c0,0,13.8-4.8,14.2-5.1
	c0.5-0.3,10-7.1,10-7.1l6-8l0.3-10.3l-4.3,2.6l-7.2,2.6l-8.5,1.7l-8,0.3l-9.1-0.5l-11.8-1.7l-10.6-1.9l-2.8-0.9L151.7,389.1z"/>
<path class="st2" d="M234.9,419.5l-7.5,19.7l-1,5.7l2.7,3.3l11.3,4c0,0,16.6-1.7,17.2-1.8c0.6-0.1,14.4-3.3,14.4-3.3l2.3-3.2
	c0,0,1.1-4.3,1-4.9c-0.1-0.6-3.8-9.8-3.8-10.3c0-0.5-5.7-13.7-5.7-13.7l-3.8,0.8l-3,1.6l-6.4,1.3l-6.2,0.5l-7.2-0.5H235L234.9,419.5
	z"/>
<line class="st1" x1="302.9" y1="59.9" x2="303.2" y2="64.9"/>
<line class="st1" x1="311.4" y1="59" x2="309.7" y2="64.9"/>
<line class="st1" x1="317.1" y1="59.2" x2="316" y2="64.3"/>
<line class="st1" x1="324.9" y1="59" x2="322.2" y2="63.5"/>
<line class="st1" x1="337.6" y1="64.7" x2="333.6" y2="68.3"/>
<path class="st3" d="M165.7,332.7l28.9-0.5c0,0-3.2-5.8-3.5-5.8c-0.3,0-12.9-3.2-12.9-3.2l-8.7,2.3l-3.2,5.5L165.7,332.7z"/>
<path class="st3" d="M236.4,379c0,0,24.3,2.6,25.5,0.5c1.3-2.2-1.1-4.4-1.1-4.4l-2.8-1.3l-7.2-1l-6.4,0.3l-6.6,2.6L236.4,379z"/>
<path class="st1" d="M343.9,69.4c-0.9,0.2-4.3,3.6-4.3,3.6"/>
<line class="st1" x1="330.4" y1="61.6" x2="328.3" y2="66.1"/>
<path class="st0" d="M500.5,93.1"/>
<path class="st0" d="M250.3,451c0,0-28.4,4.1-23.1-11.4c5.2-15.5,13.6-31.6,13.4-37.4c-0.1-5.8,0.6-16.9,0.6-16.9s-5.6-0.3-4.3-7.2
	c1.3-6.8,22-7.4,24.6-2.6c2.6,4.9-2.6,10.6-2.6,10.6l1,15.7l13.7,32.5c0,0,5,10-3,12.5C262.6,449.4,250.3,451,250.3,451z"/>
<path class="st0" d="M241.1,385.4c0,0,12,3,17.8,0.9"/>
<path class="st0" d="M171.7,340.1c0,0,4,7.4-1.9,12.9c-5.9,5.5-15.7,17.4-17.4,27.9c-1.7,10.5,0.6,19.6,6.3,23.6
	c5.7,4,12.9,14.2,25.6,10.8c12.8-3.4,29-15,29-22.8s4.3-28.1-22.2-40.2c-2.3-9.3-2.6-13.1-2.6-13.1l4.6-1.4c0,0,2.6-5.9,1.7-8.2
	c-0.9-2.3-20.8-11.4-27.9-0.9C165.9,334.3,164.8,340.1,171.7,340.1z"/>
<path class="st0" d="M171.7,340.1c0,0,12.9,0.6,16.7-0.9"/>
<path class="st1" d="M254.1,372.4c-3.8-11.6,4.3-16.2,12.9-29c8.5-12.9,1.7-20.8-2.1-23.7c8.5-23.7-15.4-22.8-22.2-21.1
	c-4.2-7.4-15.6-5.5-26.2-1.9c-23.4-17.3-42.4,27.3-42.4,27.3"/>
<path class="st1" d="M181.9,324.6c0,0,15.4-32.8,29.4-23.4c-1.9,2.1-12.8,9.7-11.2,17.4c1.5,7.7,7.2,9.5,10.6,6.6
	c3.4-2.8,10.3-15.9,11.4-22.4c2.8-0.8,10.5-4.2,14.6,0.8c0,0-18,24.3-10,26.2c8,1.9,13.3-2.1,16.5-10.8c0,0,4.2-19.6,12.9-10.3
	c8.8,9.3,0.3,12.3,0.3,12.3s-16.2,10.5-16.9,14.5c-0.7,4-2.8,13.7,5.4,10.8c8.2-2.8,16.5-17.7,16.5-17.7s8-1.7,3.2,5.9
	c-4.8,7.6-20.3,21.6-16.7,37.2"/>
<path class="st1" d="M217.8,305.1c0,0-11.3,5.8-12,11.2s1.1,5.7,3.3,4.1C211.3,318.8,217.8,305.1,217.8,305.1z"/>
<line class="st1" x1="211.4" y1="301.2" x2="216.5" y2="296.7"/>
<path class="st1" d="M241.8,309c0,0-7.9,6.3-9.7,9.7s0.3,6.6,2.7,4.3C237.3,320.7,241.8,309,241.8,309z"/>
<path class="st1" d="M257.2,328.9c-0.6,0.3-12.5,4.4-12.1,7.3c0.5,2.8,0,6.4,3.8,3.4C252.6,336.7,257.2,328.9,257.2,328.9z"/>
<path class="st1" d="M152,385.3c0,0,25.3-12.3,60.6-3.4"/>
<path class="st1" d="M151.7,387.3c0,0,40.4,11.4,60.7-1.9"/>
<path class="st1" d="M236.6,416.1c0,0,13.1-6.6,26.2-5.7"/>
<path class="st1" d="M264.5,414.6c-11.7,7.6-29.3,3.6-29.3,3.6"/>
<circle class="st4" cx="171.1" cy="397.3" r="3.1"/>
<circle class="st4" cx="181.2" cy="400.6" r="2.5"/>
<circle class="st4" cx="188.4" cy="405.5" r="2.1"/>
<circle class="st4" cx="193.6" cy="397.5" r="2.4"/>
<circle class="st4" cx="240.3" cy="426.6" r="3.2"/>
<circle class="st4" cx="235.8" cy="436.1" r="2.4"/>
<circle class="st4" cx="245.8" cy="442.4" r="2.4"/>
<circle class="st4" cx="251.3" cy="429.7" r="2.5"/>
<circle class="st4" cx="260.3" cy="434" r="2.6"/>
<circle class="st4" cx="264.6" cy="424.1" r="2.4"/>
<circle class="st4" cx="268.3" cy="442.7" r="3.3"/>
<circle class="st0" cx="797.2" cy="285.1" r="6.3"/>
<circle class="st0" cx="826.8" cy="289.6" r="6.3"/>
<circle class="st0" cx="813.7" cy="267.4" r="5.7"/>
<ellipse transform="matrix(0.7071 -0.7071 0.7071 0.7071 57.1683 632.9761)" class="st0" cx="792.7" cy="247.5" rx="7.4" ry="7.4"/>
<circle class="st0" cx="822.8" cy="250.3" r="3.4"/>
<circle class="st0" cx="837.7" cy="194.5" r="5.7"/>
<circle class="st0" cx="862.7" cy="186.5" r="3.4"/>
<circle class="st0" cx="877.5" cy="200.2" r="4.6"/>
<circle class="st0" cx="844.5" cy="164.9" r="6.8"/>
<circle class="st0" cx="882.6" cy="162" r="6.3"/>
</svg>
