<?xml version="1.0" encoding="utf-8"?>
<!-- Generator: Adobe Illustrator 21.0.2, SVG Export Plug-In . SVG Version: 6.00 Build 0)  -->
<svg version="1.1" id="Слой_1" xmlns="http://www.w3.org/2000/svg" xmlns:xlink="http://www.w3.org/1999/xlink" x="0px" y="0px"
	 viewBox="0 0 1000 600.1" style="enable-background:new 0 0 1000 600.1;" xml:space="preserve">
<style type="text/css">
	.st0{fill:none;stroke:#6C7A89;stroke-width:2;stroke-miterlimit:10;}
	.st1{fill:#E47833;}
	.st2{fill:none;stroke:#6C7A89;stroke-miterlimit:10;}
	.st3{fill:#6C7A89;stroke:#6C7A89;stroke-width:2;stroke-miterlimit:10;}
	.st4{fill:#E47833;stroke:#6C7A89;stroke-width:2;stroke-miterlimit:10;}
</style>
<path class="st0" d="M329.8,486.4l-26.1-3.2l-0.8,103.4c0,0,380.6-1.5,404.3-4.7c0.8-19.8-2.4-109-2.4-109l-22.9,0.8l2.3,6.5
	c0,0-153.8,0.9-158.2,3.9c-0.9-2.4-0.6-4.7-0.6-4.7s-67.8,16.5-74,23.9c-6.3,7.5-43.5,11.8-43.5,11.8s-7.9,6.3-21.3,4.7
	c-5.6,2.4-7.9,5.6-24,0c-19,1.5-24.5-0.8-24.5-0.8S336.6,498.6,329.8,486.4z"/>
<path class="st1" d="M188.8,125.8l43.2-1.2l4.5,2.4c0,0-5.9,7.7-15.8,10.7c-8.1,1.2-24.6,0.4-29.6-3.9s-7.6-5.4-7.6-5.4l-1.1-2.8
	L188.8,125.8z"/>
<path class="st1" d="M339.6,129l11.6,8.1l15.8,1.3l15.3-4.9l10.2-6.4l-8.1-1.5c0,0-37.2-0.8-37.6-0.8c-0.4,0-10.1,0.8-10.1,0.8
	L339.6,129z"/>
<path class="st1" d="M457.7,401.8l1.9,1.3c0,0,10.5-3.4,11-3.7c0.5-0.2,14.1-2.1,14.1-2.1l10.8,1.5v-2.1c0,0,2.1-4.5-3.6-4.3
	s-24.6,0-24.6,0l-9.4,3.7l-1.3,3.6L457.7,401.8z"/>
<path class="st1" d="M455.8,451.7l1.1,5.1l2.8,2.4c0,0,0.4-1.9,1.8-2.8c1.4-0.9,8.2-4.9,8.2-4.9l11.6-3.7l14.2-0.5l7.5,1.3
	c0,0,3,0.1,2.4,2.5c-0.6,2.4,2.1-3.6,2.1-3.6l-2.4-21.8l-6.6-20.3v-1.9c0,0-0.7,0.6-4,0.6c-3.3,0-20.5,2.7-20.5,2.7l-14.2,4.1
	l-4.1,3.4l-0.9,13.6L455.8,451.7z"/>
<path class="st1" d="M461.4,478.9c0,0,6.9,6.5,19.7,5.9c12.8-0.6,17.2-1.2,20.7-6.3c3.6-5.1,6.5-10.4,6.5-10.4s-4.5-1.9-8.8-3.1
	c-4.3-1.2-16.1-1.9-16.1-1.9l-8.6,2.7l-8.3,4.6c0,0-7,5.4-8.3,5.3C460.7,475.5,461.4,478.9,461.4,478.9z"/>
<path class="st0" d="M329.8,486.4c0,0-3-28.7,7.1-42.3s43.2-89.4,43.2-89.4s59.8-24.9,61.6-26.1c-0.6-4.7-7.2-13.9,7.5-18.1
	c-4.7-7.3-10.8-16,0-22.3c-4.5-5.1-10.3-12-0.4-18.1c-4.4-8.1-6-13.3,0.5-18.7c-4.3-3.9-8.9-12,0-18.5c-3.7-4.6-7.7-13.6,3.3-19.8
	c-4.3-4-15.8-13.4-0.2-29.1c-4.3-8.1-5.7-13.5,4.3-23.1c-2.6-7.3-2-21.8,20-24.2c6-7.5,18.6-23.9,32.9-10.4
	c8.6-5.6,21.1-9.7,31.4,1.8c6.2-3.9,26.9-9.5,29.9,14.8c9.5,5.1,10.3,7.9,9.5,21.9c4.5,6.2,16.3,14.7,8.2,26.7
	c3,3.6,14.6,8.9,6,20.7c3.3,5.3,13.5,21.1-2.3,30.1c2.5,4.5,11.3,12-7.1,21.1c11,3.6,23.5,14.8,2.7,20.8c6,3.1,14.6,10.4,0.5,17.1
	c9.8,4.1,12.8,6.4,7,15.4c6.9,2.8,12,4.5,7.1,12.6c3.4,1.5,24.8,10.5,24.8,10.5s6.5,0.9,11,12.2c4.5,11.3,34.1,53.9,35.9,76.2
	c1.8,22.3,8.1,45.6,8.1,45.6"/>
<path class="st0" d="M441.8,328.6l6.3,4.7c0,0-14.6,1.8-6.5,11c8.1,9.2,32,8.3,36.5,3.6c4.5-4.7-0.4-11.8-0.4-11.8
	s13.4-4.7,1.2-13.6c3.9-4.7,9.2-12.8-2.1-16.3c4.1-6.5,5.7-11-1.5-15.4c3-8.6,3-11.3-3.9-15.8c2.4-6.3-0.4-17.8-4.1-22.3
	c4.1-3.6,7.5-15.2,2.1-20.7c2.7-1.5,5.9-5.3,6.9-8.9c3-1.8,5.3,2.1,11.8-8.1c0.9-0.4,11.8,4.1,16.6-8.6c-0.4,0.4,9.5-3,9.5-3
	s5.9,6.9,14.8,4.1c1.5,1.5,12.2-2.7,13,4.5c-0.9,3.6,0.4,8.6,6.5,9.2c-0.4,3.6-0.6,9.5,6.9,12.2c-1.5,5.7-9.4,28.8,0.1,38.3
	c-1.8,3.9-5.1,6.9-3.9,13.4c1.2,4.7,5,4.9,5,4.9s-17.2,9-1.5,18c-2.5,6.9-12.3-0.8,1.1,18.6c-2.4,4.5,0.9,30.6,46.3,2.8"/>
<polyline class="st0" points="525.6,479.4 520.5,358.6 556.1,326.4 "/>
<path class="st0" d="M480.6,334.5c0,0,19.3,21.1,40,24"/>
<path class="st0" d="M435.2,542.4l1.5,17.5c0,0,69.9,27.8,106.6-1.5c3-5.3,1.2-17.2,1.2-17.2S510.2,586.6,435.2,542.4z"/>
<path class="st0" d="M441.2,532.9c0,0,65.5,28.8,94.8-1.8C526.2,523.2,494.8,503.1,441.2,532.9z"/>
<polyline class="st0" points="435.2,542.4 439.4,539.2 439.4,532.3 "/>
<path class="st0" d="M544.6,541.2c0,0-1.2-4.7-5.3-3.6c0-5.9-3.3-6.5-3.3-6.5"/>
<path class="st0" d="M361.5,501.9c0,0,13.4,14,25.2,18.1"/>
<path class="st0" d="M376.9,467.8"/>
<path class="st0" d="M408,515.2l-1.2-3.6c-10.7,3.9-40.6-24.3-40.6-24.3"/>
<path class="st0" d="M406.8,511.6c0,0,10.1,1.5,9.8-9.5c2.7-1.5,13.6-3.3,3-15.8c-10.7-12.4-18.1-8.3-18.4-32
	c0,0-20.1-21.3-41.5,9.2c-21.3,30.6-15.3,48,2.8,56.3"/>
<path class="st0" d="M375.8,468.1c0,0,8.9,33.2,40.9,34.1"/>
<path class="st0" d="M404.4,472.9l50.9-36.5l-0.9-20.5l3.3-4.6c0,0-1.9-3.9,0.6-8.2c-1.2-3.1-4.3-6.9,5.8-9.8
	c10.1-3,27.8-1.8,29.4-0.5c0.1,0.1,5.8,1.8,0.5,5.4c4.6,1.3,5.4,4.1,3.4,6c0.7,1.7,8.2,13.1,10.2,44c-2.7-1.3-3.3,9.6-3.3,9.6
	s7.6,1.9,4.1,10.1s-8.2,16.6-24.6,16.7c-16.5,0.1-20.6-3.3-23.8-9.2c-3.1,0.7-6.5-2.5-1.2-9.2c0.7-5.3,0.7-8.8,0.7-8.8
	s-3.7,0-3.6-3.3c0.1-3.3-40.3,27.8-40.3,27.8"/>
<path class="st0" d="M401.2,454.5c0,0,14.2-2.8,20.3,5.4"/>
<path class="st0" d="M419.7,480.7c0,0,16.6,7.8,11.3-8.9"/>
<polygon class="st1" points="792.8,501.3 789.6,498.5 798.2,478.6 799.3,474.2 810.5,478.6 841.9,489 877.8,501.7 850.2,501.9 "/>
<line class="st0" x1="455.4" y1="436.4" x2="456" y2="454.6"/>
<path class="st2" d="M458.3,403.2c0,0,24.8-9,35.5-4.7"/>
<path class="st2" d="M457.7,411.4c0,0,30.3-9.5,39.6-6.9"/>
<path class="st2" d="M459.5,457.8c0,0,17.2-17.2,46.6-8.6"/>
<path class="st2" d="M459.6,464.9c0,0,19.1-14.3,43.8-7.8"/>
<path class="st2" d="M460,475.8c0,0,18.7-22.6,47.5-7.5"/>
<polyline class="st0" points="482.3,317.6 498.6,317.3 508.6,328.3 508.4,354.8 "/>
<polyline class="st0" points="526.8,353 522.4,328.3 533.6,317.3 549.9,316.1 "/>
<polyline class="st0" points="522.4,328.3 508.6,328.3 525.5,310.5 533.6,317.3 "/>
<polyline class="st0" points="498.6,317.3 506.4,310.3 522.5,328.7 "/>
<path class="st0" d="M476.9,282c0,0,32.9,48.6,73.8,4.4"/>
<line class="st0" x1="506.4" y1="310.3" x2="506.6" y2="304.3"/>
<line class="st0" x1="524.9" y1="304.5" x2="525.5" y2="310.5"/>
<path class="st0" d="M501.2,279.8c0,0,16.8-2.1,22.9-2"/>
<path class="st0" d="M503.4,243l-27,0.6l0.9,1.5c0.2,0,2.8,7.1,2.8,7.1s21.8,0.5,22,0.4s2.8-6.5,2.8-6.5l17.3,0.4l0.8,4.3l0.2,1.3
	l20.6,0.5l-0.4-11l-19.4,0.4l-3.3,5.1"/>
<line class="st0" x1="502.6" y1="242.8" x2="505" y2="246.1"/>
<path class="st0" d="M482.6,227.2c0,0,15.2-0.4,22.4,8.2"/>
<path class="st0" d="M521,234.4c0.6-0.5,19.4-10.8,19.4-10.8"/>
<circle class="st3" cx="496.7" cy="237.6" r="1.7"/>
<circle class="st3" cx="526.9" cy="236.7" r="1.7"/>
<path class="st0" d="M777.6,570.3c0-2.4,1.8-69.9,1.8-69.9l3-31.4l48.6-29l55.7,31.4l12.4,88.3c0,0,0,8.9-10.1,11.3
	S777.6,570.3,777.6,570.3z"/>
<path class="st0" d="M818.1,548.6l14.8-0.4c0,0,5,15.6-4.1,17.8C819.7,568.1,816.9,557,818.1,548.6z"/>
<line class="st0" x1="778.2" y1="500.7" x2="891.1" y2="501.5"/>
<line class="st0" x1="887.8" y1="570" x2="887.8" y2="501.5"/>
<path class="st0" d="M789.4,501.3c0.4-0.9,10.1-26.4,10.1-26.4l80.3,27"/>
<path class="st0" d="M620.3,92l74.6-0.4c0,0,1.5,9-0.4,11.7c-18,0.6-74.6-1.2-74.6-1.2L620.3,92z"/>
<polygon class="st4" points="621,41.5 620.8,48.6 694,49.6 693,41.9 "/>
<polyline class="st0" points="621,41.5 657.6,18.8 693,41.9 "/>
<line class="st0" x1="627.7" y1="49.1" x2="627.7" y2="91.8"/>
<line class="st0" x1="636" y1="48.9" x2="636" y2="91.5"/>
<line class="st0" x1="645.9" y1="48.9" x2="645.9" y2="91.5"/>
<line class="st0" x1="654.2" y1="49.8" x2="654.2" y2="91.5"/>
<line class="st0" x1="663.2" y1="48.9" x2="663.2" y2="92.2"/>
<line class="st0" x1="670.9" y1="48.9" x2="670.9" y2="91.4"/>
<line class="st0" x1="681.4" y1="50.4" x2="681.4" y2="92.2"/>
<line class="st0" x1="689.7" y1="50.1" x2="689.7" y2="91.8"/>
<path class="st0" d="M251,159.1c0,0,29.9-4.6,32.9-22.4c6.5-0.2,7.2-0.2,7.2-0.2s3,19.7,32.9,23.2
	C307.6,162.1,277.7,170.8,251,159.1z"/>
<path class="st0" d="M284.7,100.5c0,0-10.2,28.9-0.7,36.1"/>
<path class="st1" d="M289.2,287.4c0,0,7.1-5.6,9.2-10.7c2.1-5.1,6.5-3.2,5,7.7c6.8,0.9,14.8,0,13.6,9.7c-1.2,9.7,1.4,9.7,0,12.2
	c-1.4,2.6-6.3,7.1-16.2,5.1c-10-2-15.4-0.4-16.6-9.2C283,293.3,284.4,287.9,289.2,287.4z"/>
<path class="st0" d="M290.8,100.5c0,0,11.3,28.7,0.2,35.9"/>
<polygon class="st0" points="282.5,96.9 282.4,101 292.8,100.7 292.8,97.1 "/>
<line class="st0" x1="285.4" y1="16" x2="284.7" y2="96.5"/>
<line class="st0" x1="290.4" y1="16" x2="290.6" y2="96.5"/>
<line class="st0" x1="285.4" y1="16.5" x2="290.6" y2="16.4"/>
<path class="st0" d="M287,16.4c0,0,0.2-2.7-0.7-3.4c-0.8-0.7-5.6-6.6,2-9c7.6-2.4,5.6,7,1.7,9.2c-0.7,1.1-0.7,2.6-0.6,3"/>
<path class="st0" d="M285,25.7c0,0-39.8-14.1-52.1-5.8c-12.3,8.3-15.3,6.8-15.3,6.8l-2.7-3.3c0,0,18.2-25.2,69.8-2.4"/>
<path class="st0" d="M290.6,25.7c0,0,39.8-14.1,52.1-5.8C355,28,358,26.6,358,26.6l2.7-3.3c0,0-18.2-25.2-69.8-2.4"/>
<path class="st1" d="M728.8,350.9l-0.9,9.7l14.8-0.4l83.2,3l20.1,0.6l3.9-1.8l-8.3-8.3c0,0-24.9-3-30.2-5.9c-5.3-3-6.9-4.1-17.5-4.1
	s-66.6-0.6-66.6-0.6s1.4-0.6,1.3,2.8C728.4,349.3,728.8,350.9,728.8,350.9z"/>
<path class="st0" d="M214.8,23.2l-33.6,102.5c0,0,30.4,30,57.1-0.5C233.3,98,214.8,23.2,214.8,23.2z"/>
<line class="st0" x1="199.4" y1="125.4" x2="215.6" y2="24.2"/>
<line class="st0" x1="181.1" y1="125.7" x2="238.2" y2="125.2"/>
<path class="st0" d="M360.2,23.2l32.7,102.5c0,0-30.4,30-57.1-0.5C340.8,98,360.2,23.2,360.2,23.2"/>
<line class="st0" x1="374.7" y1="125.4" x2="359.4" y2="24.2"/>
<polygon class="st1" points="116.6,456.3 116.7,465.4 115.3,473 133.6,467.3 146.3,459.2 145.5,453.3 127,454.3 115.1,454.4 "/>
<line class="st0" x1="335.7" y1="125.2" x2="392.9" y2="125.7"/>
<polygon class="st0" points="851.4,363.2 720.4,364.4 723.1,342.6 720.7,341.4 751.2,204.8 868.5,201.6 875.9,307 884.6,313.4 
	889.3,311 943.1,344.2 893.7,399.4 847.8,367.1 "/>
<path class="st0" d="M729,343l-0.8,16.9l123.2,3.2c0,0-4.4-3.6-8.6-9.5c-13.4,2.4-40.3-10.3-40.3-10.3l-79.4-0.8"/>
<path class="st0" d="M842.8,353.7l33.2-46.6c0,0-15.2-23.8-19-27c-3.9-11.8-11.8-24.9-14.6-28.8c-2.7-3.9-11.3-12.4-11-3
	c0.2,9.5,9.2,19.9,9.2,19.9l-29-25.8c0,0-15.4-11-12.2,6.3c-14.2-11-30.6-22.3-24,2.1"/>
<line class="st0" x1="851.4" y1="363.2" x2="886.9" y2="312.9"/>
<path class="st0" d="M802.5,343.4c0,0-43.5-18.1-48.9-24.5c-5.6-6.3-11-21,16.2-12.7s28.8,2.7,20.5-18.1
	c-10.7-12.7-41.1-45-15.8-37.1c16.9,15,28.1,23.7,28.1,23.7"/>
<line class="st0" x1="814.7" y1="265.6" x2="799.5" y2="248.6"/>
<path class="st0" d="M275.9,338.7l-12.4,24.6c0,0-0.9-21.7-1.8-21.1c-0.8,0.6-19.9,12.4-19.9,12.4l23.1-33.2c0,0-30.8-5.9-7.1-26.1
	c-5.1-9.5-13.6-21.1,7.5-23.5c-2.7-7.5,4.7-17.2,15.8-14c1.8-9.8,23.7-19,33.2,0c3.6-6.3,21.7-12.4,21.3,13
	c10.4,3.6,28.2,19.3,9.5,31.4c0.4,4.1,2.1,19-3.3,23.1c4.7,5.1,16,14,16,14l-18.7-0.6l1.2,20.7l-15.4-18.7c0,0-16.9,18.1-33.8-4.1
	C276.5,343.2,275.9,338.7,275.9,338.7z"/>
<path class="st0" d="M265,321.5c0,0-1.2,10.7,11,17.2"/>
<path class="st0" d="M324.8,341c0,0,4.1-4.1,2.4-11.8c6.5,3.3,14.6-3.6,14.6-3.6"/>
<path class="st0" d="M275.3,277.6c0,0,30.8-23.1,45.4-5.9c14.6,17.2,15.4,45-6.5,50.3c-21.9,5.3-44.2-0.4-44.8-27
	C269.4,295.2,269.1,282.7,275.3,277.6z"/>
<path class="st0" d="M199.5,469.6c0,0-39.1,28.4-43.2,36.7c-4.7-17.8-10.7-47.4-10.7-47.4l-0.6-6.5c0,0,8.9-6.3,10.1-13.4
	s2.1-14,5.1-18.7c3-4.7,3.9-15.4-6.3-7.7c-0.4-7.1-1.2-29.6-7.7-21.3c-3-3.9-5.9-13.4-10.7-2.4c-4.5-1.8-8.3-3.3-8.6,7.7
	c-5.7,0.4-6.3,3.9-7.7,14.6c-1.4,10.7-5.1,25.2-1.5,31.4c3.6,6.2,5.1,12.4,5.1,12.4l-6.9-0.6l0.9,4.1L102.6,471
	c0,0,4.1,58.6,19.5,71.7c15.4,13,24,22.5,44.2,10.7s44.2-25.2,45-41.5C212.2,495.6,206,471.7,199.5,469.6z"/>
<line class="st0" x1="156.2" y1="532.3" x2="156.2" y2="506.3"/>
<path class="st0" d="M102.1,475.8c0,0,33.2-6.3,42.4-16"/>
<line class="st0" x1="116.3" y1="471.9" x2="116.9" y2="458.7"/>
<line class="st0" x1="122.8" y1="455.1" x2="145" y2="453.6"/>
<path class="st2" d="M135.3,434.4c0,0,6.5-9.5,9.5-9.5s9.2-12.2,9.2-12.2"/>
<line class="st2" x1="126.9" y1="416.6" x2="127" y2="396.7"/>
<line class="st2" x1="136.1" y1="413.9" x2="135.5" y2="389"/>
<line class="st2" x1="144" y1="413.6" x2="146.2" y2="391.4"/>
<path class="st1" d="M115.4,455.7"/>
</svg>
