<?xml version="1.0" encoding="utf-8"?>
<!-- Generator: Adobe Illustrator 21.0.2, SVG Export Plug-In . SVG Version: 6.00 Build 0)  -->
<svg version="1.1" id="Слой_1" xmlns="http://www.w3.org/2000/svg" xmlns:xlink="http://www.w3.org/1999/xlink" x="0px" y="0px"
	 viewBox="0 0 1000 600.1" style="enable-background:new 0 0 1000 600.1;" xml:space="preserve">
<style type="text/css">
	.st0{fill:#D2527F;}
	.st1{fill:none;stroke:#6C7A89;stroke-width:2;stroke-miterlimit:10;}
	.st2{fill:none;stroke:#6C7A89;stroke-miterlimit:10;}
	.st3{fill:none;stroke:#FFFFFF;stroke-width:2;stroke-miterlimit:10;}
</style>
<path class="st0" d="M622.7,331.6c0,0-10.3,2.5-12.5,1.3c-2.3-1.2-25.1-9.4-24.9-11.3c0.1-1.9-2.7-12.9,0.4-17.2
	c2.3-10.9,5.7-36.3,9.3-42.1s7.6-12.5,7.6-12.5l17.3-10.1c0,0,11.7-6.9,21.4-5.1c18.4,4.8,27.9,10,27.9,10l17.4,7.9l9.7,7.3l5.3,7.9
	c0,0,0.7,8.1-1.6,11.8s-7.3,18.5-7.3,18.5l-4.7,8.2l-0.1,14.7l1-0.6l-1,4.2c0,0-11.8,16.2-12.5,16.6c-0.7,0.4-11.7,9.7-17.2,9.1
	c-8.4-2.1-15.5-8.2-16.2-12.5c1.2-8.1,3.3-19.7,5.7-23c2.4-3.3,8.8-14.8,8.8-14.8l-1.2-10.1l-7.6-8.2l-3.1-9.1l2.3-8.8l-1.9-4.1
	c0,0-10,7.6-10.7,9.1c-0.7,1.4-11.1,15.6-11.1,15.6l-2.3,11.8l4.7,6.2l3.6,3.8l2.7,8.4l-2.4,10.6l-4.2,6.3L622.7,331.6z"/>
<path class="st1" d="M817.2,590.6c0,0-20.5,6.7-26.7-14.1c-15.4-16.2-14-14.1-16.5-15.9c-2.6-1.7-6-9.4,1.1-13
	c-2.6-6-7.9-7.3-7.9-7.3s-86.4,27.3-102.6,23.5c-14.1,5.6-9.8,0.8-14.1,3c-4.3,2.1-23.1,10.3-27.3,13.2c-4.3,3-19.7,26.5-14.9-4.3
	c8.1-12.9,2.6-20,21-16.2c15.4-4.3,18-12.4,27.8-8.6c14.6,0,23.1-9.4,23.1-9.4l-29.5-3.8c0,0-72.7,37.6-60.7-30.8
	c0,0,20-38.1,13.2-73.6c-11.6,47.5-30.8,103.5-35.6,109.5c-4.7,6-22.2,9.8-26.5,8.6c6.7-3,10-5.4,10-5.4s-3-8.9-9.4-6
	c-6.4,3-12.9,0.8-20,3.6c-7.2,2.7-16.9-2.4-9.7-3.8s23.3-6.7,27-8.9c3.7-2.3,15.6-3.6,20.3-2.6c6.4-11.9,14.6-80.4,18-84.7
	c-10.7,1.1-61.3,0.5-88.3-25.2c-31.6-11.9-48.8-24-75.7,7.3s-38.1,53.9-85.6,56.1c-42.7-5.6-77.8-48.8-63.7-97.1
	c-1.7-27-3.5-28.3-3.5-28.3s-41.5,22.7-40.2-22.2c-7.8-16.7-9.8-14.1-8.9-26.1c-8.6-5.1-48.3-30.8-40.7-77.8
	c7.8-47,31.6-112.9,31.6-112.9s19.2-51,102.6-18.4s164.7,92.8,164.7,92.8s50.5,14.6,77.4-8.9c23.1-7.8,64.2-17.1,87.7,22.2
	c32.5,32.5,10.7,31.3,53,47.8c14.9,10.3,17.1,16.7,8.1,35.6c-6.8,14.9-9.8,19.2-7.3,33.4c-4.3,8.6-20.5,30.8-34.6,28.3
	c15.4,0,26.1-1.3,27.3,14.1c1.3,15.4,2.6,42.7,7.8,48.3c6.8-3.5,22.7-11.1,33.8,3.5c11.1,14.6,42.7,68,42.7,68s26.1,0.8,32.5,5.1
	c6.4,4.3,32.5,16.2,10.7,32.9c-15.4,11.6-17.1,8.6-17.1,8.6l5.1,16.2l-4.3-0.8c0,0,11.9,18.9,17.1,24
	C814.6,574.9,844,591.6,817.2,590.6z"/>
<path class="st1" d="M700.4,461.6c0,0,55.6,71.5,66.7,78.8"/>
<path class="st1" d="M650.4,537.7c0,0,42.4-49.2,49.6-77.8"/>
<path class="st1" d="M679.9,541.5c0,0,45.3-36.4,52.6-37.6"/>
<path class="st1" d="M792.7,487.2c-3.5,1.3-24,2.1-24,2.1"/>
<path class="st1" d="M791.5,530.4c0,0-15.4-32.5-26.1-46.7"/>
<line class="st1" x1="663.9" y1="562.8" x2="662.6" y2="550.8"/>
<path class="st1" d="M622.9,580.1c0,0-0.2-15,15.9-19c17.7-6.7,19.6-9.9,19.6-9.9"/>
<path class="st1" d="M592.9,499.2c0,0,54.5-73.9,95.9-86.9"/>
<path class="st1" d="M577,443.5c0,0,8.6,1.1,6.9-20s-1-51-4.2-63.8c-3.2-12.9-3.2-40.7,14.4-33.1c17.7,7.6,27.9,10.3,34,0.4
	c6.1-9.9,2.6-20.9-2.9-24.7c-5.5-3.8-5.7-11.8,0-20.2s12.2-18.6,16-20.5s6.7-5.1,4.2,6.7c-2.6,11.8,7.4,18.3,7.4,18.3
	s7.8,8.4-0.6,21.1c-8.4,12.9-18.1,34.1,1.6,42.2"/>
<path class="st1" d="M602.9,433.3c0,0-4.5-38.7-7.4-49.3c-2.9-10.6-11.2-47.1-1.3-57.4"/>
<path class="st1" d="M664.8,350.4c0,0-4.2,14.8,0.4,20.9c4.5,6.1,14.4,26.3,2.9,39.5c0.6,5.7,0,11.6,0,11.6"/>
<path class="st1" d="M611.5,333.6c0,0,12.5,18.6,37.8,14.4"/>
<path class="st1" d="M817.2,577.8c0,0-17.9,11-42.1-30.3l17.3-1.7"/>
<path class="st1" d="M211,308c0,0,2.7-17.3,0.5-22.1c-2.4-4.7,4.1-15.9,14.9-6.4c10.9,9.4,16,9.7,16.9,9.7c1,0,15.9-0.6,13,19.9
	c7.5,2.7,35.9,18,3.8,47.3"/>
<path class="st2" d="M482.6,417.1c0,0,7.4-16.9,3.2-28.3c-6.1,4.2-17.3,19.2-17.3,19.2l-1.6,2.6"/>
<path class="st2" d="M448.8,404.5c0,0,19-22.8,21.8-35.3c3.2,9.3,1.6,29.2-8.9,38.5"/>
<path class="st2" d="M442.2,405.8c0.6-1.3,12.2-24.7,16.7-29.2s4.5-13.1,1-19.9c-3.6-6.7-7-17.7-18-10.6
	c-10.9,7-15.4,10.9-10.9,28.3c-0.4,16.3-2.9,19-2.9,19s-4.5-24.3-3.2-38.5c-11.2-4.8-16-1.6-16.3,19s14.1,43,14.1,43"/>
<path class="st2" d="M416.5,419.3c0,0-21.8-25.7-15.8-52.3c-4.2-3.8-28.3,6.1-13.8,33.1c16.3,18,16.3,21.6,26,25.5"/>
<path class="st2" d="M402.7,437c0,0-26-27.3-23.4-53c-12.9,4.5-18,24.3-8.7,39.7c9.3,15.4,25.3,22.4,25.3,22.4"/>
<path class="st2" d="M577.2,347.7l-9.8,10.3l3-12.9l-22.7-11.6l-10.3,19.7l-0.5-22.7c0,0-31.6,0-43.2,0.8s-21,27.8-7.8,44.9
	c16.7,5.1,33.8-4.3,33.8-4.3s-9.8,17.5-21.8,18c2.6,5.6,12.9,19.2,12.9,19.2l-4.3,7.3l21,14.1l11.9-6.8l-0.8,7.8
	c0,0,9.4,8.9,17.5,11.6"/>
<path class="st2" d="M581.1,388.4c0,0-48.3-12.4-70.2,21"/>
<line class="st2" x1="487.4" y1="336.6" x2="550.6" y2="385.8"/>
<path class="st2" d="M330,481.6c0,0-1.7-47,28.3-62.4c1.3,8.1,18,18,9.4,51.3"/>
<path class="st2" d="M375.5,156.4c-4.7,27-4.4,27-3.2,39.7c-11.2,4.8-16,1.6-16.3-19c-0.2-17.2,14.1-44.2,14.1-44.3"/>
<path class="st2" d="M407.2,193.1c-3.6,6.7-10.9,20.2-21.8,13.1c-10.9-7-11.6-12.2-7-29.5c-0.2-12.9-3-20.3-2.9-20.2"/>
<path class="st2" d="M407.2,193.1c3.6-6.7,3.6-12.9-1-17.3c-4.5-4.4-16-30.4-16.7-31.7l-1.9-4.1"/>
<path class="st2" d="M360.3,124.2c-9.7,3.9-13.5,11.5-29.8,29.4C316,180.6,344,188,348.1,184c-5.5-24,15.2-52.9,15.8-53.6l1.4-3.2"
	/>
<path class="st2" d="M337.5,114.6l-18.6,9.5c0,0-16,8.4-25.3,23.7c-9.3,15.4-4.2,35.3,8.7,39.7c-2.3-22.6,23.1-53.9,23.4-54.2
	l20.5-14"/>
<path class="st2" d="M247.4,88.9c-2.3,50.4,21,57.2,21,57.2c1.3-8.1,18-19.2,9.4-52.6l-1.4-2.6"/>
<path class="st1" d="M603.2,329.4c0,0-22.7-2.1-18.9-16.7c3.8-14.6,3-54.8,24.8-67.5c21.8-12.9,27.8-14.6,55.1-2.6"/>
<path class="st2" d="M252,350.9c-1-1-19-47.8-28.5-60"/>
<path class="st2" d="M229.4,333.3c3.2,1.6,17.7,7.8,17.7,7.8l5.7-19.6"/>
<path class="st2" d="M227.3,320.6c2.6,1.3,14.6,6.3,14.6,6.3l4.8-16.1"/>
<path class="st2" d="M223.3,307.3c2.3,1.2,12.5,5.5,12.5,5.5l4.1-14"/>
<path class="st1" d="M347.1,507.7c0,0-18.9-24.3-30-8.9c-11.1,15.4-12.4,12.9-20,14.6c-7.6,1.7-7.8,13.7-10.7,15.4
	c-3,1.7-19.7,17.1-3.8,18.4c18.4-2.1,21,1.3,21,1.3s3.8,11.1,13.7-0.5c6-6.8,11.1-3.5,11.1-3.5s14.9,9.8,19.7-6
	C352.7,522.8,347.1,507.7,347.1,507.7z"/>
<path class="st2" d="M343.8,512.6c-1.1,0.8-35.7,21.8-52.4,24.8"/>
<polyline class="st2" points="318.2,511.6 336,517.5 332.1,532.3 "/>
<polyline class="st2" points="308.3,520.2 323.1,525.2 319.8,537.5 "/>
<polyline class="st2" points="297.7,526.6 309,530.4 306.5,539.8 "/>
<path class="st2" d="M118.4,214.7c0,0-5.4-2.7-5.1-7.2C118.3,208.5,118.4,209.9,118.4,214.7z"/>
<path class="st2" d="M98,206.7c6.4,1.2,4.9,3.1,4.9,9.2C103,215.9,97.8,212.4,98,206.7"/>
<path class="st2" d="M81.7,211.3c6.6-0.2,5.5,1.9,6.9,7.8C88.6,219.1,82.7,216.8,81.7,211.3"/>
<path class="st2" d="M119.7,217.5c0,0-4.3,4.2-2.9,8.4C121.4,223.5,121.1,222.1,119.7,217.5z"/>
<path class="st2" d="M102.4,230.9c5.8-3,3.8-4.4,2.1-10.3C104.6,220.8,100.6,225.7,102.4,230.9"/>
<path class="st2" d="M85.5,231.3c6.3-1.6,4.8-3.5,4.4-9.4C89.9,221.8,84.9,225.7,85.5,231.3"/>
<path class="st2" d="M68,229.2c2.7-8.7,5.1-6.3,13.4-5.4C81.3,223.9,75.6,230.4,68,229.2"/>
<path class="st2" d="M136.3,215.3c0,0-44,0.8-55,8.6"/>
<line class="st2" x1="370" y1="133.8" x2="371.9" y2="130.3"/>
<path class="st2" d="M-330,396.5"/>
<path class="st2" d="M160.2-281"/>
<path class="st1" d="M492.5,195.1c0,0,39.4,7.3,41.5,10.3c2.1,3,8.6,6-0.8,14.9c-3,5.1,6,8.9,6,8.9s19.2-2.1,9.4,12.4
	c-2.1,11.9-0.5,10.7,3.8,12.9c4.3,2.1,12.9,9.4-0.8,12.9s-19.7-4.7-19.7-4.7s5.1,16.2-5.1,14.1c-10.3-2.1-18-21.4-18-21.4
	s-3.8-2.6-4.7,1.7c-0.8,4.3-10.3,10.3-12.9-4.3c-2.6-14.6,0.5-16.2-11.1-15.4c-8.9-4.7-22.2-24.3-10.7-45.8"/>
<path class="st2" d="M477.1,198.1c0,0,38.9,53,67.2,62.4"/>
<line class="st2" x1="528.4" y1="213" x2="493.6" y2="218.6"/>
<line class="st2" x1="481.8" y1="231.6" x2="483.9" y2="207.6"/>
<line class="st2" x1="500" y1="254.1" x2="500.1" y2="226.1"/>
<path class="st2" d="M538.2,239.7c-1.1,0.5-20.8,3.2-20.8,3.2"/>
<line class="st2" x1="514.1" y1="239.5" x2="523.3" y2="268"/>
<path class="st2" d="M194.8,162.2c-3.2-0.2,35.1-12.9,42.4-11.9C214,163,208.5,163,194.8,162.2z"/>
<path class="st2" d="M248.7,160.4c-23.1,12.9-28.6,14.1-42.4,13.2C203.1,173.5,241.5,159.6,248.7,160.4"/>
<path class="st2" d="M260.2,168.1c-23.1,12.9-28.6,14.1-42.4,13.2C214.6,181.1,252.9,167.3,260.2,168.1"/>
<path class="st2" d="M272.2,179.1c-22,12.2-27.2,13.4-40.2,12.6C228.9,191.4,265.3,178.3,272.2,179.1"/>
<path class="st2" d="M286.3,188.1c-22,12.2-27.2,13.4-40.2,12.6C243,200.5,279.4,187.2,286.3,188.1"/>
<path class="st2" d="M294.9,197c-17.5,9.8-21.7,10.7-32.1,10C260.3,206.9,289.4,196.4,294.9,197"/>
<path class="st2" d="M303.3,207.4c-13,7.3-16.1,8-23.9,7.5C277.6,214.7,299.1,206.9,303.3,207.4"/>
<path class="st2" d="M311.1,214.4c-9.7,5.4-11.9,5.8-17.7,5.5C292.2,219.9,308.2,214.1,311.1,214.4"/>
<path class="st2" d="M324,219.6c-9.7,5.4-11.9,5.8-17.7,5.5C304.9,225.1,320.9,219.2,324,219.6"/>
<path class="st2" d="M331.2,226.1c-7.3,4.1-9.1,4.4-13.4,4.2C316.9,230.2,328.9,225.8,331.2,226.1"/>
<path class="st2" d="M342.8,230c-7.3,4.1-9.1,4.4-13.4,4.2C328.3,234.1,340.5,229.7,342.8,230"/>
<path class="st2" d="M192.3,163.4c-1.1-3.1-2.5,37.2,0.4,44C198.5,181.6,196.9,176.3,192.3,163.4z"/>
<path class="st2" d="M204.5,219.1c5.8-25.8,5.5-31.5,0.8-44.4C204.2,171.7,201.6,212.4,204.5,219.1"/>
<path class="st2" d="M217.2,226.5c5.8-25.8,5.5-31.5,0.8-44.4C217,179,214.4,219.7,217.2,226.5"/>
<path class="st2" d="M232,233.3c5.5-24.5,5.3-29.8,0.8-42.1C231.8,188.2,229.3,226.9,232,233.3"/>
<path class="st2" d="M245.9,241.8c5.5-24.5,5.3-29.8,0.8-42.1C245.6,196.7,243.1,235.3,245.9,241.8"/>
<path class="st2" d="M260.8,241.1c4.4-19.6,4.2-23.9,0.6-33.6C260.5,205,258.5,235.9,260.8,241.1"/>
<path class="st2" d="M278.1,240.9c3.2-14.6,3.1-17.7,0.5-24.9C278,214.3,276.5,237.2,278.1,240.9"/>
<path class="st2" d="M292.3,240.2c2.4-10.7,2.3-13.1,0.4-18.5C292.2,220.4,291.1,237.4,292.3,240.2"/>
<path class="st2" d="M306,244.6c2.4-10.7,2.3-13.1,0.4-18.5C305.9,224.8,304.8,241.8,306,244.6"/>
<path class="st2" d="M315.6,244.6c1.8-8.1,1.8-9.9,0.2-14.1C315.4,229.6,314.6,242.5,315.6,244.6"/>
<path class="st2" d="M328.9,250.8c1.8-8.1,1.8-9.9,0.2-14.1C328.8,235.8,328,248.7,328.9,250.8"/>
<path class="st1" d="M184.5,121.5"/>
<path class="st1" d="M333.3,237.5c0,0-129.6-46.2-144.4-81.9"/>
<path class="st0" d="M74.9,405.1c0,0,15.3-23.9,21.2-29c3.6-2.7,6.2-1.8,9.3,0.4c3.2,2.1,11.3,9.3,7.2,13.7S88.7,412,82.5,413.1
	C76.4,414.1,71.7,417.1,74.9,405.1z"/>
<line class="st1" x1="110.4" y1="376.8" x2="124.4" y2="362.5"/>
<path class="st1" d="M123.6,358.6c0,0,1.6-0.4,1.4-3.6c2.1-0.6,4.4-1.2,3.8-4.3c3.6,0.6,4.9-0.5,4.9-3.6c1.8,1.2,4.1-0.7,3.9-3.7
	c1.1,1.6,5.7,0.2,7.6-1.6c-2.1,3.5-3,5.7-1.3,7.5c-3.5,0.2-3.5,2.6-3.3,3.7c-3.1,0.5-3.6,1.6-3.3,3.8c-3.9,1-4.3,1.4-4.3,4.8
	c-2.4,0.8-2.3-2-4.1,2.1C128.9,361.7,127.6,358.5,123.6,358.6z"/>
<path class="st1" d="M105.9,415.9c0,0,18.3-25.3,23.5-31.3c3.9-4.2,6.6-5,11-2c4.4,3,12.3,10.4,6,15.8s-28.9,23.9-34.4,24.8
	C106.3,424.2,102.1,427.4,105.9,415.9z"/>
<path class="st1" d="M141.9,380.2l2.4-2.7c0,0,7,2,7.9,6c-0.6,1.6-3.1,3.9-3.1,3.9L141.9,380.2z"/>
<path class="st1" d="M89.2,532.2c0,0,6.4,21.5,12.5,22.4c6.1,1,20.9-1.9,6-11.3c-9.4-6.4-10.9-5.1-12.3-10.7
	C91.3,532.9,89.2,532.2,89.2,532.2z"/>
<path class="st1" d="M82.7,500.3l0.4,22.1c0,0-6.9-5.1-6.6-10.7C76.9,506.1,78,502.1,82.7,500.3z"/>
<path class="st0" d="M85.5,499.5c0.5-0.1,16.2-1.7,25.3,1.7c9.1,3.3,14.8,4.5,15.2,8.6s2.1,8.5-4.5,10.9c-6.7,2.4-27.7,7.9-35.8,3.1
	C85.5,513.8,85.5,499.5,85.5,499.5z"/>
<path class="st2" d="M88,529.8c0,0,0.4-1.9-0.6-2.7c2.9,0.4,9.3,1,11.5,0.6c-1.3,1.7-1.6,2.5-1.6,2.5L88,529.8z"/>
<path class="st2" d="M126.9,505.4c0,0,3.7,7.2,1.1,14.1c3.1,0.7,4.4,1.7,4.4,1.7l0.1-17.1C132.5,504,130.7,505.2,126.9,505.4z"/>
<path class="st1" d="M136.4,506.9c0,0,12.3-3.2,12.6-3.6c0.4-0.4,3.1-5.6-1.9-2.9"/>
<path class="st1" d="M137.6,512.6l22,0.7c0,0,3.6-0.6,3-4.2c-0.6-3.6-4.8-2.5-6.6-0.7"/>
<path class="st1" d="M137.6,518.1l10.6,6.9c0,0,3.1,1.9,4.5-1.3c1.4-3.2-2.9-3.7-3.9-1.8"/>
<path class="st1" d="M611.5,96.9c0,0-5,1.6-5.6,6c-0.6,4.4-0.6,29.5-0.6,29.5s1.8,3,6.6,3c4.8,0,51.9,0.2,51.9,0.2s3.9,0.4,3.6-2.7
	c-0.4-3.2-0.2-27.8-0.2-27.8s0.2-8.6-5.4-8.4C656.2,96.7,611.5,96.9,611.5,96.9z"/>
<path class="st1" d="M620.3,109.1v10.7l7.5,0.2c0,0,3,5,8.5,4.7s6.9-1.6,8.4-4.5c1.9,0.1,7.5-0.1,7.5-0.1l-0.2-11.5l-7.6,0.2
	c0,0-2-5.1-7.4-4.5c-5.4,0.6-8.6,2.1-9.2,4.5C622.3,108.7,620.3,109.1,620.3,109.1z"/>
<path class="st1" d="M612.6,94.2l0.2-6.7c0,0-0.6-4.1,3.9-4.2s39.3,0.1,39.3,0.1s4.3-0.2,4.3,3.3s-0.1,7.6-0.1,7.6L612.6,94.2z"/>
<rect x="402.1" y="80.2" class="st1" width="28.3" height="17.1"/>
<path class="st0" d="M400.4,71.2c0,0-4.8-42.4-5.4-46.2c-0.6-3.8,0.1-8.5,0.1-8.5h41.4c0,0-1.7,25.1-2.6,32.2
	c-1,7.2-3.2,25.4-3.2,25.4s0,3-2.9,3.1c-2.9,0.1-24.6,0.1-24.6,0.1S400.6,78.5,400.4,71.2z"/>
<polygon class="st3" points="404,43.4 407,70.8 424.9,70.3 427.8,43.3 "/>
<path class="st1" d="M788,386l52.4-53c0,0,4.8-3.7,8.9,0.1c4.2,3.8,9.1,8.9,9.1,8.9s1.3,4.1-0.1,5.3c-1.4,1.2-2.9,0.7-4.3-0.5
	c-1.4-1.2-6.7-6.4-6.7-6.4l-1.9,1.9l-24.8,24.3l8.1,6.9c0,0,1,3.5-1.1,4.7s-3.6,0-4.9-1.6c-1.3-1.6-3.3-3.5-3.3-3.5
	s-1.7-0.6-3.3,1.8c-1.7,2.4-16.1,24.2-16.1,24.2s-5.1,4.2-11.7-0.5S788,386,788,386z"/>
<line class="st1" x1="832.7" y1="371.2" x2="825.1" y2="362.3"/>
<line class="st1" x1="836.9" y1="366.9" x2="828.9" y2="358.9"/>
<line class="st1" x1="841.1" y1="363" x2="832.8" y2="355.5"/>
<line class="st1" x1="844.9" y1="359.2" x2="836.6" y2="351.5"/>
<line class="st1" x1="848.8" y1="355.2" x2="840.7" y2="347.4"/>
<line class="st1" x1="853.1" y1="351.3" x2="845.1" y2="343.7"/>
<path class="st0" d="M811.7,247.6l-0.2-21.5c0,0,3.3-13.5,8-17.1c6-0.2,17.3-0.2,17.3-0.2s7.8,8.4,7.8,15.9c0,7.5,0.4,23.3,0.4,23.3
	L811.7,247.6z"/>
<rect x="819.5" y="191.4" class="st1" width="16.8" height="14"/>
<ellipse transform="matrix(0.6582 -0.7529 0.7529 0.6582 172.775 721.282)" class="st1" cx="880.7" cy="170.4" rx="3.6" ry="9.2"/>
<path class="st1" d="M870.8,166.2c0,0,1.1,9.2,14.1,13.6c-4.3,4.5-11.9,12.6-11.9,12.6s-12.8-0.8-15.2-13.2
	C861.9,174.9,870.8,166.2,870.8,166.2z"/>
<path class="st1" d="M858.5,189.1l3.5,2.5l-10.4,10.6l-0.4,9.7c0,0-3.3,0.5-4.8-1.2c-0.4-0.8,0.4-2.4,0.4-2.4l-2.3,0.8
	c0,0-4.9-2.7-4.9-4.7c2.5-1.2,10-4.2,10-4.2L858.5,189.1z"/>
</svg>
