<?xml version="1.0" encoding="iso-8859-1"?>
<!-- Generator: Adobe Illustrator 19.0.0, SVG Export Plug-In . SVG Version: 6.00 Build 0)  -->
<svg xmlns="http://www.w3.org/2000/svg" xmlns:xlink="http://www.w3.org/1999/xlink" version="1.1" id="Layer_1" x="0px" y="0px" viewBox="0 0 511.989 511.989" style="enable-background:new 0 0 511.989 511.989;" xml:space="preserve" width="512" height="512">
<g>
	<path d="M391.009,51.88C356.647,24.989,311.611,9.594,263.495,8.142V7.5c0-4.142-3.358-7.5-7.5-7.5s-7.5,3.358-7.5,7.5v0.642   C200.379,9.594,155.342,24.989,120.98,51.88c-36.685,28.71-56.888,67.048-56.888,107.953c0,4.142,3.358,7.5,7.5,7.5   s7.5-3.358,7.5-7.5c0-3.009,7.806-8.535,20.561-8.535s20.562,5.526,20.562,8.535c0,4.142,3.358,7.5,7.5,7.5   c4.088,0,7.406-3.273,7.492-7.341h0.007c1.107-2.545,12.141-8.694,32.589-8.694c20.449,0,31.482,6.149,32.589,8.694l0.007,0   c0.086,4.068,3.404,7.341,7.492,7.341c3.969,0,7.21-3.086,7.474-6.988l0.009,0c1.79-2.523,13.005-7.765,33.122-8.846v72.584   L211.011,186.6c-2.929-2.929-7.678-2.929-10.606,0l-72.158,72.158c-2.929,2.929-2.929,7.678,0,10.606   c2.929,2.929,7.678,2.929,10.606,0l66.854-66.854l51.755,51.755l-91.44,91.44l-51.755-51.755l2.714-2.714   c2.929-2.929,2.929-7.678,0-10.606c-2.929-2.929-7.678-2.929-10.606,0l-8.018,8.018c-2.929,2.929-2.929,7.678,0,10.606   l62.362,62.362c1.464,1.464,3.384,2.197,5.303,2.197s3.839-0.732,5.303-2.197l77.168-77.168V315.2l-17.896,17.896   c-1.407,1.406-2.197,3.314-2.197,5.303s0.79,3.897,2.197,5.303l17.896,17.896v34.751c0,6.917-5.627,12.544-12.544,12.544   c-6.917,0-12.543-5.627-12.543-12.544v-12.026c0-4.142-3.358-7.5-7.5-7.5s-7.5,3.358-7.5,7.5v12.026   c0,15.188,12.356,27.544,27.543,27.544c15.188,0,27.544-12.356,27.544-27.544v-19.751l69.15,69.15   c1.464,1.464,3.384,2.197,5.303,2.197s3.839-0.732,5.303-2.197l62.362-62.361c1.407-1.406,2.197-3.314,2.197-5.303   s-0.79-3.897-2.197-5.303L303.567,270.735c-2.929-2.93-7.678-2.929-10.606,0L263.495,300.2v-30.754l9.878-9.878   c2.929-2.929,2.929-7.678,0-10.606l-9.878-9.878v-87.584c20.117,1.081,31.332,6.323,33.122,8.846   c0.264,3.903,3.513,6.988,7.483,6.988c4.089,0,7.414-3.272,7.499-7.341c1.107-2.545,12.141-8.694,32.589-8.694   c20.448,0,31.482,6.149,32.589,8.694c0.085,4.069,3.41,7.341,7.499,7.341c4.142,0,7.5-3.358,7.5-7.5   c0-3.009,7.807-8.535,20.562-8.535s20.561,5.526,20.561,8.535c0,4.142,3.358,7.5,7.5,7.5s7.5-3.358,7.5-7.5   C447.897,118.929,427.694,80.59,391.009,51.88z M298.264,286.645l91.44,91.44l-51.755,51.755l-91.44-91.44L298.264,286.645z    M99.653,136.298c-6.925,0-13.267,1.182-18.618,3.271c8.498-44.076,44.276-81.349,93.582-101.19   c-28.742,24.136-48.673,60.709-53.347,102.51C115.358,137.985,107.922,136.298,99.653,136.298z M167.802,136.298   c-11.097,0-22.599,1.73-31.518,5.346c6.641-56.378,43.704-102.004,91.819-114.938c-4.582,6.929-9.086,16.248-13.239,28.708   c-7.929,23.786-12.818,54.135-14.114,86.839C191.653,138.223,179.504,136.298,167.802,136.298z M255.995,136.298   c-14.793,0-29.641,2.088-40.275,6.506c2.898-74.651,24.487-119.786,40.275-119.786s37.376,45.135,40.275,119.786   C285.636,138.386,270.788,136.298,255.995,136.298z M412.336,136.298c-8.272,0-15.711,1.688-21.623,4.594   c-0.547-4.92-1.295-9.802-2.266-14.615c-0.819-4.06-4.77-6.685-8.835-5.869c-4.061,0.819-6.688,4.774-5.869,8.835   c0.824,4.086,1.472,8.228,1.962,12.401c-8.918-3.616-20.421-5.346-31.518-5.346c-11.702,0-23.851,1.925-32.948,5.957   c-1.297-32.705-6.186-63.053-14.114-86.839c-4.151-12.453-8.651-21.768-13.231-28.696c12.785,3.429,25.031,9.197,36.251,17.185   c18.825,13.401,34.021,32.367,43.946,54.846c1.673,3.789,6.099,5.505,9.89,3.832c3.789-1.673,5.505-6.101,3.832-9.89   c-9.445-21.394-23.255-39.942-40.253-54.234c49.208,19.86,84.906,57.093,93.394,101.113   C425.603,137.48,419.261,136.298,412.336,136.298z"/>
	<path d="M143.712,288.646c-2.929,2.929-2.929,7.678,0,10.606l17.008,17.008c1.464,1.464,3.384,2.197,5.303,2.197   s3.839-0.732,5.303-2.197c2.929-2.929,2.929-7.678,0-10.606l-17.008-17.008C151.39,285.717,146.641,285.717,143.712,288.646z"/>
	<path d="M217.413,259.568c1.464,1.464,3.384,2.197,5.303,2.197s3.839-0.732,5.303-2.197c2.929-2.929,2.929-7.678,0-10.606   l-17.008-17.008c-2.929-2.929-7.678-2.929-10.606,0c-2.929,2.929-2.929,7.678,0,10.606L217.413,259.568z"/>
	<path d="M172.058,260.3c-7.612,7.613-7.612,20.001,0,27.615c3.807,3.806,8.807,5.709,13.807,5.709c5,0,10.001-1.903,13.807-5.71   c3.688-3.688,5.719-8.591,5.719-13.807c0-5.215-2.031-10.119-5.719-13.807h0c-3.688-3.688-8.592-5.719-13.808-5.719   C180.65,254.581,175.747,256.612,172.058,260.3z M189.066,270.906c0.855,0.855,1.326,1.992,1.326,3.201s-0.471,2.346-1.326,3.201   c-1.765,1.765-4.637,1.765-6.401,0c-1.765-1.765-1.765-4.637,0-6.401c0.855-0.855,1.992-1.326,3.201-1.326   S188.211,270.051,189.066,270.906L189.066,270.906z"/>
	<path d="M332.645,400.395c1.464,1.465,3.384,2.197,5.303,2.197s3.839-0.732,5.303-2.197l17.008-17.007   c2.929-2.929,2.929-7.677,0-10.606c-2.928-2.929-7.677-2.929-10.606,0l-17.008,17.007   C329.716,392.717,329.716,397.466,332.645,400.395z"/>
	<path d="M275.953,343.703c1.464,1.465,3.384,2.197,5.303,2.197s3.839-0.732,5.303-2.197l17.008-17.007   c2.929-2.929,2.929-7.677,0-10.606c-2.928-2.929-7.677-2.929-10.606,0l-17.008,17.007   C273.023,336.025,273.023,340.773,275.953,343.703z"/>
	<path d="M298.58,358.242c0,5.215,2.031,10.119,5.719,13.807s8.591,5.719,13.807,5.719s10.119-2.031,13.807-5.719   s5.719-8.591,5.719-13.807c0-5.216-2.031-10.119-5.719-13.807s-8.591-5.719-13.807-5.719s-10.119,2.031-13.807,5.719   S298.58,353.026,298.58,358.242z M314.905,355.042c0.855-0.855,1.992-1.326,3.201-1.326s2.346,0.471,3.201,1.326   c0.854,0.855,1.326,1.991,1.326,3.201c0,1.209-0.471,2.345-1.326,3.2c-0.855,0.855-1.992,1.326-3.201,1.326   s-2.346-0.471-3.201-1.326c-0.854-0.855-1.326-1.991-1.326-3.2C313.58,357.033,314.051,355.896,314.905,355.042z"/>
	<path d="M344.188,184.403c-21.819,0-39.57,17.751-39.57,39.57c0,21.819,17.751,39.57,39.57,39.57   c21.819,0,39.57-17.751,39.57-39.57C383.757,202.154,366.006,184.403,344.188,184.403z M344.188,248.543   c-13.548,0-24.57-11.022-24.57-24.57c0-13.548,11.022-24.57,24.57-24.57c13.548,0,24.57,11.022,24.57,24.57   C368.757,237.521,357.735,248.543,344.188,248.543z"/>
	<path d="M204.28,449.792c-7.599,1.754-15.319,6.255-21.738,12.674c-6.419,6.418-10.92,14.139-12.674,21.738   c-2.016,8.732-0.18,16.732,5.037,21.949c3.83,3.83,9.158,5.837,15.176,5.837c2.18,0,4.451-0.264,6.773-0.8   c7.599-1.754,15.319-6.255,21.738-12.674c6.418-6.418,10.92-14.139,12.674-21.738c2.016-8.732,0.18-16.732-5.037-21.949   C221.013,449.613,213.015,447.776,204.28,449.792z M216.651,473.404c-1.114,4.826-4.272,10.113-8.665,14.505   s-9.68,7.551-14.505,8.665c-3.584,0.828-6.488,0.452-7.968-1.029c-1.481-1.48-1.855-4.385-1.028-7.968   c1.114-4.826,4.272-10.113,8.665-14.505s9.68-7.551,14.505-8.665c1.25-0.289,2.418-0.431,3.471-0.431   c1.965,0,3.533,0.496,4.497,1.46C217.104,466.917,217.478,469.821,216.651,473.404z"/>
	<path d="M342.893,214.661l-8.018,8.018c-2.929,2.929-2.929,7.678,0,10.606c1.464,1.464,3.384,2.197,5.303,2.197   s3.839-0.732,5.303-2.197l8.018-8.018c2.929-2.929,2.929-7.678,0-10.606C350.571,211.732,345.822,211.732,342.893,214.661z"/>
	<path d="M123.706,372.814c-21.819,0-39.57,17.751-39.57,39.57c0,21.819,17.751,39.57,39.57,39.57   c21.819,0,39.57-17.751,39.57-39.57C163.276,390.565,145.525,372.814,123.706,372.814z M123.706,436.955   c-13.548,0-24.57-11.022-24.57-24.57c0-13.548,11.022-24.57,24.57-24.57c13.548,0,24.57,11.022,24.57,24.57   C148.276,425.933,137.254,436.955,123.706,436.955z"/>
	<path d="M122.411,403.073l-8.018,8.018c-2.929,2.929-2.929,7.678,0,10.606c1.464,1.464,3.384,2.197,5.303,2.197   s3.839-0.732,5.303-2.197l8.018-8.018c2.929-2.929,2.929-7.678,0-10.606C130.089,400.144,125.34,400.144,122.411,403.073z"/>
</g>















</svg>
